<?xml version="1.0" encoding="UTF-8"?>
<svg width="20Px" height="20Px" viewBox="0 0 20 20" version="1.1" xmlns="http://www.w3.org/2000/svg" xmlns:xlink="http://www.w3.org/1999/xlink">
    <!-- Generator: Sketch 61.1 (89650) - https://sketch.com -->
    <title>btn_close</title>
    <desc>Created with Sketch.</desc>
    <g id="1.20-UI" stroke="none" stroke-width="1" fill="none" fill-rule="evenodd">
        <g id="训练完成未预约超过6组（动效）" transform="translate(-323.000000, -295.000000)" fill="#4D64D7">
            <g id="编组" transform="translate(0.000000, 263.000000)">
                <g id="guanbi" transform="translate(323.000000, 32.000000)">
                    <path d="M1.74194444,19.9959491 C1.29719907,19.9959491 0.852384259,19.8262269 0.513032407,19.4869676 C-0.165601852,18.8082407 -0.165601852,17.7079167 0.513032407,17.029213 L17.0290972,0.513148148 C17.7077315,-0.165578704 18.8081019,-0.165578704 19.4868519,0.513148148 C20.1654861,1.19178241 20.1654861,2.29219907 19.4868519,2.97090278 L2.97078704,19.4869676 C2.63143519,19.8263194 2.18666667,19.9959491 1.741875,19.9959491 L1.74194444,19.9959491 Z" id="路径"></path>
                    <path d="M18.2580787,19.9960185 C17.8133333,19.9960185 17.3685417,19.8262037 17.0291667,19.4869444 L0.513101852,2.97090278 C-0.165532407,2.29226852 -0.165532407,1.19180556 0.513101852,0.513148148 C1.19171296,-0.165486111 2.29215278,-0.165578704 2.97083333,0.513148148 L19.4868981,17.0291667 C20.1655324,17.7078935 20.1655324,18.8082176 19.4868981,19.4869213 C19.1476157,19.8262963 18.7028472,19.9960185 18.2580324,19.9960185 L18.2580787,19.9960185 Z" id="路径"></path>
                </g>
            </g>
        </g>
    </g>
</svg>
