<?xml version="1.0" encoding="UTF-8"?>
<svg width="20Px" height="20Px" viewBox="0 0 20 20" version="1.1" xmlns="http://www.w3.org/2000/svg" xmlns:xlink="http://www.w3.org/1999/xlink">
    <!-- Generator: Sketch 61.1 (89650) - https://sketch.com -->
    <title>btn_add3x</title>
    <desc>Created with Sketch.</desc>
    <path d="M17.4973545,11.4973545 L2.5026455,11.4973545 C1.67724868,11.4973545 1,10.8306878 1,9.994709 C1,9.16931218 1.66666667,8.4920635 2.5026455,8.4920635 L17.4973545,8.4920635 C18.3227513,8.4920635 19,9.15873017 19,9.994709 C19,10.8306878 18.3333333,11.4973545 17.4973545,11.4973545 L17.4973545,11.4973545 L17.4973545,11.4973545 Z M10.005291,19 C9.17989418,19 8.5026455,18.3333333 8.5026455,17.4973545 L8.5026455,2.5026455 C8.5026455,1.66666667 9.16931216,1 10.005291,1 C10.8306878,1 11.5079365,1.66666667 11.5079365,2.5026455 L11.5079365,17.5079365 C11.4973545,18.3227513 10.8306878,19 10.005291,19 L10.005291,19 L10.005291,19 Z" id="形状"></path>
</svg>
