<?xml version="1.0" encoding="UTF-8"?>
<svg width="20Px" height="20Px" viewBox="0 0 20 20" version="1.1" xmlns="http://www.w3.org/2000/svg" xmlns:xlink="http://www.w3.org/1999/xlink">
    <!-- Generator: Sketch 61.1 (89650) - https://sketch.com -->
    <title>btn_finsh3x</title>
    <desc>Created with Sketch.</desc>
    <g id="1.20-UI" stroke="none" stroke-width="1" fill="none" fill-rule="evenodd">
        <g id="完成训练" transform="translate(-291.000000, -549.000000)" fill="#5F5F5F">
            <g id="分组" transform="translate(15.000000, 494.000000)">
                <g id="分组-2" transform="translate(20.000000, 20.000000)">
                    <g id="开始" transform="translate(222.000000, 12.000000)">
                        <g id="完成训练" transform="translate(34.000000, 23.000000)">
                            <path d="M8.33726339,19.1666667 C7.89441189,19.1693267 7.46876242,18.9867158 7.15434,18.659143 L0.48998291,11.6592209 C-0.163327637,10.9730148 -0.163327637,9.86045474 0.48998291,9.17424857 C1.14329346,8.4880424 2.20251914,8.4880424 2.85582968,9.17424857 L8.15399357,14.7566864 L17.0009276,2.36682432 C17.3580459,1.86658804 17.942129,1.60448229 18.533133,1.67925116 C19.1241371,1.75402002 19.6322622,2.15430277 19.8660805,2.72929938 C20.0998988,3.304296 20.0238829,3.96663881 19.6666705,4.46680095 L9.67013481,18.4666452 C9.38083611,18.8745412 8.93689053,19.1300477 8.45388965,19.1666667 L8.33726339,19.1666667 Z" id="路径"></path>
                        </g>
                    </g>
                </g>
            </g>
        </g>
    </g>
</svg>
