<?xml version="1.0" encoding="UTF-8"?>
<svg width="21Px" height="21Px" viewBox="0 0 21 21" version="1.1" xmlns="http://www.w3.org/2000/svg" xmlns:xlink="http://www.w3.org/1999/xlink">
    <!-- Generator: Sketch 61.1 (89650) - https://sketch.com -->
    <title>btn_left_normal</title>
    <desc>Created with Sketch.</desc>
    <g id="jiantou-copy-copy" transform="translate(21.5, 10.5) rotate(-225.000000)">
        <path d="M3.80747666,15.1464466 L13.9231833,15.1464466 C14.7132189,15.1464466 15.3535534,14.5060561 15.3535534,13.7160199 L15.3535534,3.6003063 C15.3535534,2.81027009 14.7132189,2.16993519 13.9231833,2.16993519 C13.1331476,2.16993519 12.4928131,2.81027009 12.4928131,3.6003063 L12.4928131,10.2625283 L2.79590322,0.565611654 C2.23701688,0.00672492772 1.33164268,0.00672492772 0.772728562,0.565611654 C0.213814444,1.12449838 0.213842223,2.02987321 0.772728562,2.58878772 L10.4696385,12.2857044 L3.8074211,12.2857044 C3.41290329,12.2856766 3.05480379,12.445545 2.79584766,12.7045014 C2.53689153,12.9634577 2.37655096,13.3210574 2.37705098,13.7160755 C2.37705098,14.5061117 3.01738544,15.1464466 3.8074211,15.1464466 L3.80747666,15.1464466 Z" id="路径"></path>
    </g>
</svg>
