<?xml version="1.0" encoding="UTF-8"?>
<svg width="24Px" height="25Px" viewBox="0 0 24 25" version="1.1" xmlns="http://www.w3.org/2000/svg" xmlns:xlink="http://www.w3.org/1999/xlink">
    <!-- Generator: Sketch 61.1 (89650) - https://sketch.com -->
    <title>btn_time</title>
    <desc>Created with Sketch.</desc>
    <g id="1.20-UI" stroke="none" stroke-width="1" fill="none" fill-rule="evenodd">
        <g id="训练有氧计时" transform="translate(-217.000000, -436.000000)" fill="#5F5F5F" fill-rule="nonzero">
            <g id="jishi-2" transform="translate(217.000000, 437.000000)">
                <path d="M11.9502923,3.13636364 C17.4389287,3.13636364 21.8821105,7.57954547 21.8821105,13.0681818 C21.8821105,18.5568182 17.4389287,23 11.9502923,23 C6.46165595,23 2.01847412,18.5568182 2.01847412,13.0681818 C2.01847412,7.57954544 6.46165595,3.13636364 11.9502923,3.13636364 Z M11.9502923,5.22727273 C7.61165595,5.22727273 4.10938321,8.72954547 4.10938321,13.0681818 C4.10938321,17.4068182 7.61165595,20.9090909 11.9502923,20.9090909 C16.2889287,20.9090909 19.7912014,17.4068182 19.7912014,13.0681818 C19.7912014,8.72954547 16.2889287,5.22727273 11.9502923,5.22727273 Z M7.82074686,8.36363636 C8.23892866,7.94545453 8.86620139,7.94545453 9.28438321,8.36363636 L9.28438321,8.36363636 L10.7480196,9.87954544 C11.1139287,9.775 11.5321105,9.67045456 11.9502923,9.67045456 C13.8321105,9.67045453 15.3480196,11.1340909 15.3480196,13.0159091 C15.3480196,14.8977273 13.8321105,16.4136364 11.9502923,16.4136364 C10.0684741,16.4136364 8.55256504,14.8977273 8.55256504,13.0159091 C8.55256504,12.3363636 8.76165595,11.6568182 9.12756504,11.1340909 L9.12756504,11.1340909 L7.82074686,9.82727273 C7.40256504,9.40909091 7.40256506,8.78181818 7.82074686,8.36363636 Z M11.9502923,11.7613636 C11.2184741,11.7613636 10.6434741,12.3363636 10.6434741,13.0681818 C10.6434741,13.8 11.2184741,14.375 11.9502923,14.375 C12.6821105,14.375 13.2571105,13.8 13.2571105,13.0681818 C13.2571105,12.3363636 12.6821105,11.7613636 11.9502923,11.7613636 Z M15.6093832,2.91322522e-13 C16.1843832,2.91322522e-13 16.6548377,0.470454578 16.6548377,1.04545456 C16.6548377,1.62045453 16.1843832,2.09090909 15.6093832,2.09090909 L15.6093832,2.09090909 L8.29120139,2.09090909 C7.71620141,2.09090909 7.24574686,1.62045456 7.24574686,1.04545456 C7.24574686,0.470454556 7.71620139,2.91322522e-13 8.29120139,2.91322522e-13 L8.29120139,2.91322522e-13 Z" id="形状结合"></path>
            </g>
        </g>
    </g>
</svg>
