<?xml version="1.0" encoding="UTF-8"?>
<svg width="27Px" height="27Px" viewBox="0 0 27 27" version="1.1" xmlns="http://www.w3.org/2000/svg" xmlns:xlink="http://www.w3.org/1999/xlink">
    <!-- Generator: Sketch 61.1 (89650) - https://sketch.com -->
    <title>date_btn_narrow</title>
    <desc>Created with Sketch.</desc>
    <defs>
        <filter x="-29.6%" y="-29.6%" width="159.3%" height="159.3%" filterUnits="objectBoundingBox" id="filter-1">
            <feOffset dx="0" dy="2" in="SourceAlpha" result="shadowOffsetOuter1"></feOffset>
            <feGaussianBlur stdDeviation="1" in="shadowOffsetOuter1" result="shadowBlurOuter1"></feGaussianBlur>
            <feColorMatrix values="0 0 0 0 0.747474747   0 0 0 0 0.78956229   0 0 0 0 1  0 0 0 1 0" type="matrix" in="shadowBlurOuter1" result="shadowMatrixOuter1"></feColorMatrix>
            <feMerge>
                <feMergeNode in="shadowMatrixOuter1"></feMergeNode>
                <feMergeNode in="SourceGraphic"></feMergeNode>
            </feMerge>
        </filter>
        <linearGradient x1="93.5714286%" y1="100%" x2="6.25%" y2="0%" id="linearGradient-2">
            <stop stop-color="#849DED" offset="0%"></stop>
            <stop stop-color="#4D64D7" offset="100%"></stop>
        </linearGradient>
    </defs>
    <g id="数据页面" stroke="none" stroke-width="1" fill="none" fill-rule="evenodd">
        <g id="体重BMi数据全屏" transform="translate(-712.000000, -108.000000)" fill="url(#linearGradient-2)" fill-rule="nonzero">
            <g id="fangda" filter="url(#filter-1)" transform="translate(712.000000, 108.000000)">
                <g id="编组-3" transform="translate(2.000000, 0.000000)">
                    <path d="M19.1666667,0 L3.83333334,0 C1.68666666,0 0,1.68666666 0,3.83333334 L0,19.1666667 C0,21.3133333 1.68666666,23 3.83333334,23 L19.1666667,23 C21.3133333,23 23,21.3133333 23,19.1666667 L23,3.83333334 C23,1.68666666 21.3133333,0 19.1666667,0 Z M21.4666667,19.1666667 C21.4666667,20.3933333 20.3933333,21.4666667 19.1666667,21.4666667 L3.83333334,21.4666667 C2.60666668,21.4666667 1.53333334,20.3933333 1.53333334,19.1666667 L1.53333334,3.83333334 C1.53333334,2.60666666 2.60666666,1.53333334 3.83333334,1.53333334 L19.1666667,1.53333334 C20.3933333,1.53333334 21.4666667,2.60666668 21.4666667,3.83333334 L21.4666667,19.1666667 Z" id="形状"></path>
                    <path d="M4.31363636,19.7681818 L8.79545453,15.2863637 L8.79545453,18.0681818 C8.79545453,18.5318182 9.10454544,18.8409091 9.5681818,18.8409091 C10.0318182,18.8409091 10.3409091,18.5318182 10.3409091,18.0681818 L10.3409091,13.4318182 C10.3409091,12.9681818 10.0318182,12.6590909 9.5681818,12.6590909 L4.93181817,12.6590909 C4.4681818,12.6590909 4.1590909,12.9681818 4.1590909,13.4318182 C4.1590909,13.8954546 4.4681818,14.2045455 4.93181817,14.2045455 L7.71363635,14.2045455 L3.23181818,18.6863636 C2.92272727,18.9954545 2.92272727,19.4590909 3.23181818,19.7681818 C3.54090908,20.0772727 4.00454544,20.0772727 4.31363636,19.7681818 Z M13.4318182,10.3409091 L18.0681818,10.3409091 C18.5318182,10.3409091 18.8409091,10.0318182 18.8409091,9.5681818 C18.8409091,9.10454541 18.5318182,8.79545453 18.0681818,8.79545453 L15.2863637,8.79545453 L19.7681818,4.31363636 C20.0772727,4.00454546 20.0772727,3.5409091 19.7681818,3.23181818 C19.4590909,2.92272727 18.9954546,2.92272727 18.6863636,3.23181818 L14.2045455,7.71363635 L14.2045455,4.93181817 C14.2045455,4.4681818 13.8954546,4.1590909 13.4318182,4.1590909 C12.9681818,4.1590909 12.6590909,4.4681818 12.6590909,4.93181817 L12.6590909,9.5681818 C12.6590909,10.0318182 12.9681818,10.3409091 13.4318182,10.3409091 Z" id="形状"></path>
                </g>
            </g>
        </g>
    </g>
</svg>
