<?xml version="1.0" encoding="UTF-8"?>
<svg width="335px" height="231px" viewBox="0 0 335 231" version="1.1" xmlns="http://www.w3.org/2000/svg" xmlns:xlink="http://www.w3.org/1999/xlink">
    <!-- Generator: Sketch 61.1 (89650) - https://sketch.com -->
    <title>data_pic_man</title>
    <desc>Created with Sketch.</desc>
    <defs>
        <linearGradient x1="39.8688525%" y1="10.5044136%" x2="68%" y2="100%" id="linearGradient-1">
            <stop stop-color="#F5F7FF" offset="0%"></stop>
            <stop stop-color="#C9D2FF" offset="100%"></stop>
        </linearGradient>
    </defs>
    <g id="组件" stroke="none" stroke-width="1" fill="none" fill-rule="evenodd">
        <g id="实际得分备份" transform="translate(0.000000, -200.000000)" fill="url(#linearGradient-1)" stroke="#BFC9FF" stroke-width="2">
            <g id="编组-2" transform="translate(0.000000, 200.000000)">
                <g id="编组-3">
                    <path d="M229.574534,65.309798 C229.229502,64.3069248 228.889165,63.3011363 228.585795,62.2848526 C227.308357,57.9958205 225.849014,53.800662 223.133357,50.1366765 C220.320293,46.340335 217.149288,42.7690569 215.431172,38.2549614 C215.209366,37.6713126 214.576808,37.1576316 214.012904,36.8013784 C212.122858,35.6084257 210.047974,34.9588904 207.778863,35.1104875 C205.590143,35.256837 203.397901,35.3909422 201.220329,35.6451589 C200.748551,35.6999671 200.155308,36.1553415 199.933502,36.5862271 C199.501626,37.427008 199.191801,38.3610794 199.008723,39.2916524 C198.325702,42.7743045 199.469352,44.4523679 202.943727,44.6931741 C204.048062,44.7695557 205.231615,44.1270172 206.334777,43.7013791 C207.253101,43.3474582 208.107465,42.8291127 208.989995,42.3836504 C209.026376,42.1988186 209.06393,42.0139867 209.100311,41.8297379 C209.665975,42.3760706 210.354278,42.8413571 210.776766,43.4809803 C214.341505,48.8737559 214.186593,55.023351 214.360869,61.4603975 C213.360982,61.1490404 212.461435,60.9373875 211.61646,60.5927956 C209.589106,59.7642591 207.461998,59.2056821 205.371857,59.9170223 C203.416091,60.5823004 201.737876,60.2079722 199.996288,59.4459052 C199.215273,59.1042286 198.421935,58.7788779 197.612167,58.5129999 C193.28871,57.0949838 189.00046,56.1655769 184.969223,59.3619437 C184.948099,59.3782695 184.921693,59.391097 184.897048,59.4050906 C184.866535,59.3677743 184.832501,59.3333735 184.801401,59.2960573 C184.428791,59.5053779 183.914177,59.4126704 182.877322,59.0214333 C180.883415,58.2704445 177.98468,57.9602535 177.365031,57.7567635 C176.747143,57.5509413 177.376767,53.9061969 177.446008,53.0181877 C177.514662,52.1301785 178.906525,48.5519036 178.906525,48.5519036 C178.906525,48.5519036 180.762537,49.406095 181.03774,47.8347327 C181.312944,46.2627872 181.209083,44.7952106 181.312944,44.3503314 C181.415632,43.9060352 181.450253,43.496723 180.865811,43.257083 C180.28137,43.017443 179.284416,42.6769325 179.284416,41.8559759 C179.284416,41.6898021 179.293805,41.5108009 179.304367,41.3230537 C179.799617,37.2071922 177.90605,33.9437728 175.047217,31.0255285 C174.814849,30.7876376 174.395882,30.6838519 174.043809,30.6150501 C172.044034,30.2261453 171.311135,29.6547408 171.226051,28 C170.121715,28.4763648 169.159382,28.9591433 168.147172,29.2909077 C167.763412,29.4168499 167.264055,29.195868 166.556388,29.0961637 C166.297614,29.4495016 165.850482,30.0617207 165.460854,30.595809 C165.002572,30.7252496 164.407569,30.7100899 164.209821,30.9812155 C163.309688,32.2155658 162.434199,33.4860662 161.741202,34.8411111 C161.512941,35.2883226 161.57162,36.0597187 161.605654,36.6672732 C161.623844,36.9914578 161.217787,38.3260955 161.085173,38.622876 C161.085173,38.622876 160.708455,39.4782335 161.260622,42.6436978 C161.287028,43.2728258 161.304045,43.700213 161.304045,43.700213 C161.304045,43.700213 159.035521,42.9148234 158.863592,44.3503314 C158.691076,45.7840902 158.587801,45.8184911 159.103588,47.3560356 C159.619375,48.8941632 159.344171,49.3722772 160.031887,49.6795529 C160.719604,49.9874116 161.44194,50.2264686 161.751178,49.9874116 C162.061002,49.7483546 162.753999,51.5372005 162.857274,52.9383077 C162.961135,54.3382487 163.300299,57.4518201 162.372587,58.2389589 C161.444287,59.0237655 159.344171,60.4406154 157.659502,60.4406154 C157.597302,60.4406154 157.521606,60.445863 157.441803,60.4522768 C156.89609,60.3992178 156.631448,60.1654084 156.631448,60.1654084 C154.864042,57.8599662 151.866726,57.2856463 148.962123,57.2524116 C145.740068,57.2156785 142.969253,58.266363 140.325184,59.9974854 C139.508375,60.5321568 138.172257,61.0580821 137.401804,60.7583863 C133.718533,59.3240444 130.630852,60.1916463 127.755002,62.5892129 C127.433442,62.8580063 127.019756,63.0177663 126.582012,63.2649862 C126.39776,56.4273735 126.3338,49.7856709 130.406112,43.8897094 C132.157676,45.6534835 132.157676,45.6371576 134.78062,45.6429883 C135.498262,45.6447375 136.260501,45.9625084 136.923572,45.8062467 C138.351815,45.4686516 139.962549,45.2202656 141.068058,44.3777355 C142.424126,43.3439598 142.217577,41.6693948 141.436562,40.1697495 C141.070406,39.4677383 140.891435,38.6269574 140.395012,38.0450577 C139.849886,37.4066007 139.053614,36.5815626 138.338319,36.5529923 C135.38912,36.435213 132.369506,36.2538796 129.497177,36.7669775 C127.760283,37.0777516 125.453618,38.2555445 124.787026,39.6817235 C123.005536,43.4955569 120.702979,46.8697587 118.010793,50.025894 C115.161935,53.366278 113.005488,57.034345 112.012642,61.3367876 C111.468102,63.7005364 111.001605,66.0957707 110.242301,68.39305 C109.691893,70.0565367 110.066851,71.157365 111.493921,71.9835692 C116.626559,74.9566218 121.831959,77.7378457 127.851235,78.5628838 C131.724039,79.0934737 135.562222,79.4666358 139.264857,77.7512562 C140.244794,77.297631 141.212995,76.8078557 142.224618,76.4341106 C142.470483,76.3425692 142.692289,76.2743505 142.896491,76.2247899 C143.009741,76.6201085 143.11771,77.0574079 143.233308,77.6556334 C143.597703,79.5325223 145.233083,82.861828 146.105637,84.811017 C146.977018,86.7613721 147.631874,88.6575022 149.048381,90.2813404 C150.466062,91.9069279 152.809695,96.8355832 151.446586,99.2733813 C150.08465,101.710013 150.684934,103.226568 151.011189,104.417771 C151.33803,105.61189 150.520633,106.206617 150.574618,107.071887 C150.629189,107.940071 150.847475,108.372123 149.703237,109.618718 C148.558413,110.863563 146.923034,115.035399 145.560511,117.309356 C144.197988,119.585062 142.616593,122.997163 141.744625,124.513717 C140.873245,126.030854 137.602486,130.742609 136.566217,133.883585 C135.530536,137.025726 134.113442,141.033138 133.895156,142.711784 C133.676871,144.391597 133.513744,146.665553 133.732029,149.319669 C133.950315,151.973784 134.550012,154.248324 134.004886,156.849381 C133.459173,159.449271 133.241474,160.585666 132.314348,161.940711 C131.387809,163.293424 131.408347,163.203632 131.45705,165.592452 C131.506341,167.98069 130.672514,169.978857 129.348133,171.051698 C128.023164,172.125122 126.846654,174.171683 126.356098,176.55992 C125.864956,178.948741 125.374988,182.311865 125.079834,184.944407 C124.785853,187.576366 123.460884,196.49669 123.460884,196.49669 L123.401619,198.262796 C123.401619,198.262796 122.644661,203.660236 122.026186,205.505056 C121.407125,207.349876 121.201162,208.989458 120.994612,209.741029 C120.788063,210.492601 119.34515,212.814952 119.000705,214.590971 C118.657434,216.368738 118.451471,218.349996 118.107026,219.851974 C117.762582,221.3557 115.218854,223.336958 113.362842,224.224967 C111.505656,225.112976 112.124718,226.275026 113.362842,226.821942 C114.600965,227.368275 116.181187,228.119264 117.14352,227.983992 C118.107026,227.846972 119.413218,227.027764 120.650754,226.891327 C121.887704,226.753723 124.157989,226.343245 124.363952,225.044175 C124.569914,223.747436 125.876105,219.032766 126.90768,217.597841 C127.938667,216.164082 128.42042,215.616583 130.002989,215.069668 C131.58321,214.522752 133.3025,213.840565 133.027296,211.926943 C132.752093,210.014487 132.614784,210.082706 131.859,208.374323 C131.102043,206.666523 130.34626,206.050806 130.896081,203.933111 C131.445901,201.814833 135.021203,194.026823 137.084352,192.045565 C139.1475,190.064308 141.553332,187.194458 142.103153,185.760699 C142.652974,184.325191 144.028406,178.107377 143.685135,175.239276 C143.34069,172.369426 143.34069,168.884442 144.165715,167.859412 C144.991913,166.834966 146.985233,162.59841 148.085461,159.660924 C149.18569,156.722272 149.666856,155.356732 151.17901,153.579548 C152.692924,151.803529 156.473602,148.046253 157.573831,146.816567 C158.674059,145.586298 160.324695,143.46802 160.805861,142.101897 C161.287028,140.735774 162.455911,138.617496 162.455911,138.617496 C162.455911,138.617496 161.837435,143.331583 161.631473,145.381059 C161.424336,147.430536 161.011824,153.512495 161.768194,155.971284 C162.524565,158.430655 162.800355,160.891193 163.006318,164.034501 C163.211694,167.176642 163.280935,169.84067 163.41883,171.616688 C163.555552,173.394456 162.593219,173.734966 161.355682,175.717973 C160.118145,177.696899 159.017917,181.591778 158.53675,183.982931 C158.054997,186.374667 156.611498,191.020535 157.092664,193.890385 C157.573831,196.759652 158.330788,199.833575 158.262133,202.020072 C158.192892,204.205986 157.368455,209.672228 157.161318,211.585266 C156.954769,213.499472 156.130331,215.207271 155.442028,217.597841 C154.755486,219.989577 153.722738,221.492721 155.167998,222.585969 C156.611498,223.679217 158.949263,224.908903 160.667966,224.224967 C162.387256,223.541614 166.099867,222.585969 168.57494,223.747436 C171.051774,224.908903 171.600422,225.317632 174.41994,226.275026 C177.239459,227.231837 177.995829,227.368275 179.851841,226.685505 C181.709026,226.000402 183.771588,226.343245 182.808081,225.044175 C181.845748,223.747436 180.401662,222.585969 178.408341,221.69796 C176.413261,220.808201 175.451514,220.194233 172.769304,218.690506 C170.088268,217.188529 168.368391,216.914488 167.406058,215.069668 C166.443725,213.225431 167.474712,209.946269 167.888398,207.965594 C168.30091,205.982587 168.369564,199.219607 170.088268,197.921119 C171.807558,196.622632 174.901693,189.859651 175.382273,188.014831 C175.864027,186.169428 176.413261,180.976061 176.413261,179.405865 C176.413261,177.833919 176.413261,176.60365 176.895601,174.828215 C177.376767,173.052196 178.133137,169.1579 178.752199,166.561508 C179.370674,163.964533 179.370674,163.349981 180.952069,162.188514 C182.533464,161.026464 185.283741,155.288514 186.38397,151.73531 C187.484198,148.182691 188.445944,138.071163 187.89671,135.338334 C187.345716,132.604921 187.140927,129.189322 186.796482,126.387691 C186.452624,123.587226 186.521278,121.536583 186.452624,119.281868 C186.38397,117.027735 186.176834,117.232974 185.627013,115.183498 C185.076605,113.133439 185.145259,112.246012 185.971458,111.289202 C186.796482,110.332974 187.965365,107.66778 187.827469,105.276044 C187.689574,102.885474 187.071686,100.424936 187.484198,98.6495009 C187.89671,96.8717333 188.721148,93.8666121 189.339623,92.5681245 C189.959272,91.2708031 192.297624,88.4015363 193.191303,86.078019 C194.085568,83.7550848 196.560642,77.5378541 197.315839,75.4883778 C197.425568,75.1915973 197.546446,74.8755756 197.672019,74.5519741 C197.802286,74.5129087 197.929033,74.4872538 198.043456,74.48842 C198.853811,74.4942506 199.680009,74.9111427 200.463959,75.2376595 C203.369735,76.446938 206.3471,77.1955945 209.522212,76.703487 C211.157005,76.4498533 212.797665,76.2037996 214.408399,75.8347189 C219.513459,74.665672 224.294611,72.7503008 228.417973,69.4612266 C230.202397,68.038546 230.304498,67.4315745 229.574534,65.309798" id="Fill-1"></path>
                </g>
            </g>
        </g>
    </g>
</svg>
