<?xml version="1.0" encoding="UTF-8"?>
<svg width="17Px" height="17Px" viewBox="0 0 17 17" version="1.1" xmlns="http://www.w3.org/2000/svg" xmlns:xlink="http://www.w3.org/1999/xlink">
    <!-- Generator: Sketch 61.1 (89650) - https://sketch.com -->
    <title>date_icon_height2 </title>
    <desc>Created with Sketch.</desc>
    <g id="组件" stroke="none" stroke-width="1" fill="none" fill-rule="evenodd">
        <g id="个人数据2-BMI" transform="translate(-197.000000, -74.000000)" fill="#4D64D7" fill-rule="nonzero">
            <g id="分组-7" transform="translate(197.000000, 74.000000)">
                <g id="分组-13">
                    <g id="分组-4">
                        <g id="gaodu" transform="translate(2.000000, 2.000000)">
                            <path d="M11.51433,13 L1.48571895,13 C0.665229019,13 0,12.3348534 0,11.5143156 L0,1.4860925 C0,0.665228184 0.665229019,0 1.48571895,0 L11.5143137,0 C12.3348526,0 13,0.665228184 13,1.4860925 L13,11.5143156 C13,12.3348534 12.3348689,13 11.51433,13 Z M11.8857516,1.85713819 C11.8857516,1.44708145 11.5530147,1.11429597 11.1429084,1.11429597 L1.85714053,1.11429597 C1.44708327,1.11429597 1.11429737,1.44706513 1.11429737,1.85713819 L1.11429737,11.1428945 C1.11429737,11.5530002 1.44706695,11.8861447 1.85714053,11.8861447 L11.1429084,11.8861447 C11.5530147,11.8861447 11.8857516,11.5533266 11.8857516,11.1428945 L11.8857516,1.85713819 Z M7.98978329,4.68744703 L7.05710788,3.75518086 L7.05710788,9.2363477 L7.96309578,8.33044256 C8.18075812,8.11318855 8.53324544,8.11278048 8.75090779,8.33044256 C8.96848852,8.54810463 8.96848852,8.90091796 8.75090779,9.11866165 L7.02446261,10.845023 C6.99810155,10.9007648 6.96692532,10.9556904 6.92048742,11.0021282 C6.80459671,11.1176923 6.651572,11.1669866 6.50001632,11.1599679 C6.34883607,11.1674763 6.19543594,11.1176923 6.07954523,11.0018018 C6.0331563,10.9552823 6.00119657,10.9014177 5.97594546,10.8454311 L4.24917382,9.11866165 C4.03151148,8.90091796 4.03151148,8.54810463 4.24917382,8.33044256 C4.4667872,8.11318855 4.81927452,8.11278048 5.03693687,8.33044256 L5.9428758,9.2363477 L5.9428758,3.75518086 L5.01057581,4.68744703 C4.79291346,4.9054682 4.44006705,4.9051091 4.2224047,4.68744703 C4.00474235,4.46978496 4.00474235,4.11729808 4.2224047,3.89963601 L6.10595525,2.01649589 C6.32356863,1.79883381 6.67605595,1.79847471 6.8937183,2.01649589 L8.77726885,3.89963601 C8.99493119,4.11729808 8.99493119,4.47014405 8.77726885,4.68744703 C8.55993295,4.90509278 8.20711918,4.90509278 7.98978329,4.68744703 Z" id="形状"></path>
                        </g>
                    </g>
                </g>
            </g>
        </g>
    </g>
</svg>
