<?xml version="1.0" encoding="UTF-8"?>
<svg width="22Px" height="22Px" viewBox="0 0 22 22" version="1.1" xmlns="http://www.w3.org/2000/svg" xmlns:xlink="http://www.w3.org/1999/xlink">
    <!-- Generator: Sketch 61.1 (89650) - https://sketch.com -->
    <title>data_icon_height</title>
    <desc>Created with Sketch.</desc>
    <defs>
        <linearGradient x1="93.5714286%" y1="100%" x2="6.25%" y2="0%" id="linearGradient-1">
            <stop stop-color="#849DED" offset="0%"></stop>
            <stop stop-color="#4D64D7" offset="100%"></stop>
        </linearGradient>
    </defs>
    <g id="1.20-UI" stroke="none" stroke-width="1" fill="none" fill-rule="evenodd">
        <g id="填写信息" transform="translate(-50.000000, -538.000000)">
            <g id="编组-2" transform="translate(33.000000, 525.000000)">
                <rect id="矩形-copy-2" fill="#FFFFFF" opacity="0.7" x="0" y="0" width="309" height="48" rx="4"></rect>
                <g id="gaodu" transform="translate(18.000000, 14.000000)" fill="url(#linearGradient-1)" fill-rule="nonzero">
                    <path d="M17.6797243,19.9609273 L2.28125313,19.9609273 C1.02142857,19.9609273 0,18.9396241 0,17.6797243 L0,2.28182957 C0,1.02142857 1.02142857,0 2.28125313,0 L17.6796992,0 C18.939599,0 19.9609023,1.02142857 19.9609023,2.28182957 L19.9609023,17.6797243 C19.9609023,18.9396241 18.9396241,19.9609273 17.6797243,19.9609273 Z M18.2500251,2.85155388 C18.2500251,2.22192982 17.7391228,1.71095238 17.1094236,1.71095238 L2.85155388,1.71095238 C2.22192982,1.71095238 1.71095238,2.22190476 1.71095238,2.85155388 L1.71095238,17.1094236 C1.71095238,17.7391228 2.22190476,18.2506516 2.85155388,18.2506516 L17.1094236,18.2506516 C17.7391228,18.2506516 18.2500251,17.7396241 18.2500251,17.1094236 L18.2500251,2.85155388 Z M12.2679449,7.19736842 L10.8358647,5.76591479 L10.8358647,14.182005 L12.2269674,12.7910276 C12.5611779,12.4574436 13.102406,12.456817 13.4366165,12.7910276 C13.7707018,13.1252381 13.7707018,13.6669674 13.4366165,14.0013033 L10.7857393,16.6520551 C10.7452632,16.7376441 10.6973935,16.8219799 10.6260902,16.8932832 C10.4481454,17.0707268 10.213183,17.146416 9.98047619,17.1356391 C9.74834586,17.1471679 9.51280702,17.0707268 9.33486216,16.892782 C9.26363409,16.8213534 9.2145614,16.7386466 9.17578947,16.6526817 L6.52441103,14.0013033 C6.1902005,13.6669674 6.1902005,13.1252381 6.52441103,12.7910276 C6.85854637,12.4574436 7.39977444,12.456817 7.73398496,12.7910276 L9.12501253,14.182005 L9.12501253,5.76591479 L7.69350877,7.19736842 C7.35929825,7.53213033 6.8175188,7.53157895 6.48330827,7.19736842 C6.14909774,6.86315789 6.14909774,6.32192982 6.48330827,5.9877193 L9.37541353,3.0962406 C9.70954887,2.76203008 10.2507769,2.7614787 10.5849875,3.0962406 L13.4770927,5.9877193 C13.8113033,6.32192982 13.8113033,6.86370927 13.4770927,7.19736842 C13.1433835,7.53155388 12.6016541,7.53155388 12.2679449,7.19736842 Z" id="形状"></path>
                </g>
            </g>
        </g>
    </g>
</svg>
