<?xml version="1.0" encoding="UTF-8"?>
<svg width="22Px" height="22Px" viewBox="0 0 22 22" version="1.1" xmlns="http://www.w3.org/2000/svg" xmlns:xlink="http://www.w3.org/1999/xlink">
    <!-- Generator: Sketch 61.1 (89650) - https://sketch.com -->
    <title>data_icon_weight</title>
    <desc>Created with Sketch.</desc>
    <defs>
        <linearGradient x1="91.2480434%" y1="100%" x2="8.58290723%" y2="0%" id="linearGradient-1">
            <stop stop-color="#849DED" offset="0%"></stop>
            <stop stop-color="#4D64D7" offset="100%"></stop>
        </linearGradient>
    </defs>
    <g id="1.20-UI" stroke="none" stroke-width="1" fill="none" fill-rule="evenodd">
        <g id="填写信息" transform="translate(-50.000000, -626.000000)" fill="url(#linearGradient-1)" fill-rule="nonzero">
            <g id="编组" transform="translate(33.000000, 613.000000)">
                <g id="tizhong" transform="translate(17.000000, 13.000000)">
                    <path d="M18.1518719,1 C19.4241548,1 20.4592325,2.03231649 20.4594595,3.3012055 L20.4594595,3.3012055 L20.4594595,18.6987945 C20.4594595,19.9676835 19.4241548,21 18.1520989,21 L18.1520989,21 L3.30736055,21 C2.03507763,21 1,19.9674571 1,18.6987945 L1,18.6987945 L1,3.3012055 C1,2.03231649 2.03530462,1 3.30736055,1 L3.30736055,1 Z M18.1520989,2.68883355 L3.30736055,2.68883355 C2.96869041,2.68883355 2.69335069,2.96343879 2.69335069,3.3012055 L2.69335069,3.3012055 L2.69335069,18.6987945 C2.69335069,19.0365612 2.96869041,19.3111664 3.30736055,19.3111664 L3.30736055,19.3111664 L18.1520989,19.3111664 C18.490769,19.3111664 18.7661088,19.0365612 18.7661088,18.6987945 L18.7661088,18.6987945 L18.7661088,3.3012055 C18.7661088,2.96343879 18.490769,2.68883355 18.1520989,2.68883355 L18.1520989,2.68883355 Z M7.81687499,11.8300294 C8.19951268,11.5607693 8.72793874,11.6533274 8.99680701,12.0365228 L8.99680701,12.0365228 L10.7764697,14.5728892 C11.0124107,14.5469638 11.2565267,14.5674312 11.4947385,14.654304 C12.3233705,14.9567667 12.7500627,15.8746162 12.44804,16.7049106 C12.1457903,17.5347502 11.2292765,17.9620642 10.4006445,17.6596014 C9.57700838,17.3587305 9.15190585,16.4502051 9.44348258,15.6242316 L9.44348258,15.6242316 L7.6106821,13.0119084 C7.34181383,12.6284856 7.43401021,12.0992895 7.81687499,11.8300294 Z M10.4596865,4.78378378 C13.29007,4.78378378 15.6490257,6.84280481 16.1220431,9.54359273 C16.2133312,10.0639197 15.8157059,10.5414925 15.2881882,10.5414925 C14.8764837,10.5414925 14.5249566,10.2447151 14.4538791,9.83855079 C14.1205187,7.9330353 12.4564422,6.48030431 10.4596865,6.48030431 C8.46270383,6.48030431 6.79840018,7.9330353 6.46503986,9.83855079 C6.39396236,10.2447151 6.04266235,10.5414925 5.63073073,10.5414925 C5.10321301,10.5414925 4.70558773,10.0639197 4.79687577,9.54359273 C5.27012025,6.84280481 7.62930304,4.78378378 10.4596865,4.78378378 Z" id="合并形状"></path>
                </g>
            </g>
        </g>
    </g>
</svg>
