<?xml version="1.0" encoding="UTF-8"?>
<svg width="12Px" height="12Px" viewBox="0 0 12 12" version="1.1" xmlns="http://www.w3.org/2000/svg" xmlns:xlink="http://www.w3.org/1999/xlink">
    <!-- Generator: Sketch 61.1 (89650) - https://sketch.com -->
    <title>data_icon_edit</title>
    <desc>Created with Sketch.</desc>
    <g id="组件" stroke="none" stroke-width="1" fill="none" fill-rule="evenodd">
        <g id="个人数据2-BMI" transform="translate(-308.000000, -76.000000)" fill="#FFFFFF" stroke="#FFFFFF" stroke-width="0.3">
            <g id="分组-9-copy" transform="translate(304.000000, 74.000000)">
                <g id="分组-2" transform="translate(4.000000, 2.000000)">
                    <g id="weibiaoti13-copy">
                        <path d="M10.53125,4.75 L8.65625,4.75 C8.3984375,4.75 8.1875,4.5390625 8.1875,4.28125 C8.1875,4.0234375 8.3984375,3.8125 8.65625,3.8125 L9.421875,3.8125 C8.703125,2.6875 7.4375,1.9375 6,1.9375 C3.7578125,1.9375 1.9375,3.7578125 1.9375,6 C1.9375,8.2421875 3.7578125,10.0625 6,10.0625 C8.1875,10.0625 9.9765625,8.328125 10.0546875,6.15625 L10.0625,6.15625 C10.0625,5.8984375 10.2734375,5.6875 10.53125,5.6875 C10.7890625,5.6875 11,5.8984375 11,6.15625 C11,6.1875 11,6.21875 10.9921875,6.2421875 C10.8671875,8.890625 8.6796875,11 6,11 C3.2421875,11 1,8.7578125 1,6 C1,3.2421875 3.2421875,1 6,1 C7.671875,1 9.15625,1.8203125 10.0625,3.0859375 L10.0625,2.40625 C10.0625,2.1484375 10.2734375,1.9375 10.53125,1.9375 C10.7890625,1.9375 11,2.1484375 11,2.40625 L11,4.28125 C11,4.5390625 10.7890625,4.75 10.53125,4.75 Z" id="路径"></path>
                    </g>
                </g>
            </g>
        </g>
    </g>
</svg>
