<?xml version="1.0" encoding="UTF-8"?>
<svg width="22Px" height="22Px" viewBox="0 0 22 22" version="1.1" xmlns="http://www.w3.org/2000/svg" xmlns:xlink="http://www.w3.org/1999/xlink">
    <!-- Generator: Sketch 61.1 (89650) - https://sketch.com -->
    <title>data_icon_birth</title>
    <desc>Created with Sketch.</desc>
    <defs>
        <linearGradient x1="93.5714286%" y1="83.4710744%" x2="6.25%" y2="16.5289256%" id="linearGradient-1">
            <stop stop-color="#849DED" offset="0%"></stop>
            <stop stop-color="#4D64D7" offset="100%"></stop>
        </linearGradient>
        <linearGradient x1="93.5714286%" y1="100%" x2="6.25%" y2="0%" id="linearGradient-2">
            <stop stop-color="#849DED" offset="0%"></stop>
            <stop stop-color="#4D64D7" offset="100%"></stop>
        </linearGradient>
    </defs>
    <g id="1.20-UI" stroke="none" stroke-width="1" fill="none" fill-rule="evenodd">
        <g id="填写信息" transform="translate(-50.000000, -449.000000)" stroke-width="0.3">
            <g id="编组-3" transform="translate(33.000000, 437.000000)">
                <g id="编组-5" transform="translate(17.000000, 12.000000)">
                    <g id="icon_shengri" transform="translate(1.000000, 2.000000)">
                        <path d="M19.2546584,17.5407201 L18.0124224,17.5407201 L18.0124224,8.15879772 C18.0124224,7.12249919 17.1781703,6.28241324 16.1490683,6.28241324 L14.9068323,6.28241324 L14.9068323,3.78056726 C14.9068323,3.43513441 14.6287483,3.15510576 14.2857143,3.15510576 C13.9426803,3.15510576 13.6645963,3.43513441 13.6645963,3.78056726 L13.6645963,6.28241324 L10.5590062,6.28241324 L10.5590062,3.15510576 C10.5590062,2.80967292 10.2809222,2.52964427 9.9378882,2.52964427 C9.59485419,2.52964427 9.31677019,2.80967292 9.31677019,3.15510576 L9.31677019,6.28241324 L6.21118012,6.28241324 L6.21118012,3.78056726 C6.21118012,3.43513441 5.93309612,3.15510576 5.59006211,3.15510576 C5.24702811,3.15510576 4.9689441,3.43513441 4.9689441,3.78056726 L4.9689441,6.28241324 L3.72670807,6.28241324 C2.69760606,6.28241324 1.86335404,7.12249919 1.86335404,8.15879772 L1.86335404,17.5407201 L0.621118012,17.5407201 C0.278084006,17.5407201 0,17.8207488 0,18.1661816 C0,18.5116145 0.278084006,18.7916431 0.621118012,18.7916431 L19.2546584,18.7916431 C19.5976924,18.7916431 19.8757764,18.5116145 19.8757764,18.1661816 C19.8757764,17.8207488 19.5976924,17.5407201 19.2546584,17.5407201 Z M3.72670807,7.53333623 L16.1490683,7.53333623 C16.4921023,7.53333623 16.7701863,7.81336488 16.7701863,8.15879772 L16.7701863,10.4636233 C16.286566,10.7033342 15.8884439,11.0878545 15.6304348,11.5644356 C15.3198758,12.0335317 15.1677019,12.2242974 14.9068323,12.2242974 C14.6459627,12.2242974 14.4906832,12.0335317 14.1801242,11.5644356 C13.8695652,11.0953394 13.3726708,10.347913 12.4223602,10.347913 C11.4720497,10.347913 11.0031056,11.0515571 10.6645963,11.5644356 C10.326087,12.077314 10.1987578,12.2242974 9.9378882,12.2242974 C9.67701863,12.2242974 9.52484472,12.0335317 9.21428571,11.5644356 C8.90372671,11.0953394 8.40372671,10.347913 7.45341615,10.347913 C6.50310559,10.347913 6.03416149,11.0515571 5.69565217,11.5644356 C5.35714286,12.077314 5.22981366,12.2242974 4.9689441,12.2242974 C4.70807453,12.2242974 4.55279503,12.0335317 4.24223602,11.5644356 C3.98636136,11.0873155 3.58901123,10.7024922 3.10559006,10.4636233 L3.10559006,8.15879772 C3.10559006,7.81336488 3.38367407,7.53333623 3.72670807,7.53333623 Z M3.10559006,12.1054598 C3.13975155,12.1523694 3.17391304,12.2024063 3.20807453,12.2586978 C3.54968944,12.7715762 4.01552795,13.4752204 4.9689441,13.4752204 C5.92236025,13.4752204 6.38819876,12.7715762 6.72670807,12.2586978 C7.06521739,11.7458194 7.18944099,11.5988359 7.45341615,11.5988359 C7.7173913,11.5988359 7.86956522,11.7896017 8.18012422,12.2586978 C8.49068323,12.7277939 8.98136646,13.4752204 9.9378882,13.4752204 C10.8944099,13.4752204 11.3571429,12.7715762 11.6987578,12.2586978 C12.0403727,11.7458194 12.1583851,11.5988359 12.4223602,11.5988359 C12.6863354,11.5988359 12.8385093,11.7896017 13.1490683,12.2586978 C13.4596273,12.7277939 13.9503106,13.4752204 14.9068323,13.4752204 C15.863354,13.4752204 16.326087,12.7715762 16.6645963,12.2586978 C16.7018634,12.2024063 16.7360248,12.1492421 16.7701863,12.1023325 L16.7701863,17.5407201 L3.10559006,17.5407201 L3.10559006,12.1054598 Z" id="形状" stroke="url(#linearGradient-1)" fill="url(#linearGradient-1)" fill-rule="nonzero"></path>
                        <path d="M5.05928854,1.26482213 C5.05928854,1.56419727 5.30198003,1.80688876 5.60135517,1.80688876 C5.9007303,1.80688876 6.1434218,1.56419727 6.1434218,1.26482213 C6.1434218,0.965447002 5.9007303,0.722755505 5.60135517,0.722755505 C5.30198003,0.722755505 5.05928854,0.965447002 5.05928854,1.26482213 Z" id="路径" stroke="url(#linearGradient-2)" fill="url(#linearGradient-2)"></path>
                        <path d="M9.39582157,0.542066629 C9.39582157,0.841441762 9.63851307,1.08413326 9.9378882,1.08413326 C10.2372633,1.08413326 10.4799548,0.841441762 10.4799548,0.542066629 C10.4799548,0.242691496 10.2372633,0 9.9378882,0 C9.63851307,0 9.39582157,0.242691496 9.39582157,0.542066629 Z" id="路径" stroke="url(#linearGradient-2)" fill="url(#linearGradient-2)"></path>
                        <path d="M13.7323546,1.26482213 C13.7323546,1.56419727 13.9750461,1.80688876 14.2744212,1.80688876 C14.5737964,1.80688876 14.8164879,1.56419727 14.8164879,1.26482213 C14.8164879,0.965447002 14.5737964,0.722755505 14.2744212,0.722755505 C13.9750461,0.722755505 13.7323546,0.965447002 13.7323546,1.26482213 Z" id="路径" stroke="url(#linearGradient-2)" fill="url(#linearGradient-2)"></path>
                    </g>
                </g>
            </g>
        </g>
    </g>
</svg>
