<?xml version="1.0" encoding="UTF-8"?>
<svg width="14Px" height="14Px" viewBox="0 0 14 14" version="1.1" xmlns="http://www.w3.org/2000/svg" xmlns:xlink="http://www.w3.org/1999/xlink">
    <!-- Generator: Sketch 61.1 (89650) - https://sketch.com -->
    <title>date_icon_man</title>
    <desc>Created with Sketch.</desc>
    <g id="组件" stroke="none" stroke-width="1" fill="none" fill-rule="evenodd">
        <g id="个人数据2-评分" transform="translate(-194.000000, -33.000000)" fill="#4D64D7" fill-rule="nonzero">
            <g id="分组-5" transform="translate(194.000000, 33.000000)">
                <g id="nan">
                    <path d="M13.2284829,1.64092736 L13.2284829,1.64017717 C13.2284829,1.62881721 13.2271826,1.61767159 13.2265324,1.60631164 C13.2259906,1.59623773 13.2258822,1.58605662 13.224907,1.57608986 C13.2236067,1.56430122 13.2214395,1.55304844 13.219489,1.54147415 C13.2184054,1.53472248 13.2176469,1.52786362 13.2163466,1.52100479 L13.2156964,1.51661083 L13.2149379,1.51243122 C13.212554,1.50064258 13.2089781,1.4893898 13.205944,1.4778155 C13.20356,1.46881327 13.2016096,1.45959669 13.1989006,1.45080881 C13.1949996,1.43869866 13.1901234,1.42680286 13.1855723,1.41490705 L13.1814546,1.40365426 L13.1789623,1.39690258 L13.1770118,1.39207996 C13.1717022,1.37975547 13.165634,1.36796684 13.1595658,1.35607103 C13.1562066,1.34931936 13.1532809,1.34246051 13.1495967,1.33592318 C13.1430951,1.32402737 13.1357266,1.31288176 13.1285748,1.3015218 C13.1264076,1.29819956 13.1245655,1.29466297 13.1223983,1.29155504 C13.1210979,1.28962599 13.1201227,1.28758978 13.1188224,1.28566073 L13.1170886,1.28308866 C13.1095034,1.27194304 13.1011597,1.26165478 13.0929243,1.25115217 C13.0883732,1.24536502 13.0842555,1.23925636 13.079596,1.23357638 C13.0712523,1.2237168 13.06215,1.21439305 13.0532645,1.20496215 C13.0479548,1.19928218 13.0430786,1.19338785 13.0376606,1.18802938 L13.0366853,1.18706486 L13.0364686,1.18674335 L13.035385,1.18588599 C13.0274747,1.17806263 13.0189143,1.17098944 13.0103538,1.16348758 C13.0039606,1.15791478 12.9980008,1.15191328 12.9912824,1.14644764 C12.9822885,1.13916013 12.9725361,1.13262278 12.9631088,1.12565678 C12.9558487,1.12029831 12.9488052,1.11461832 12.9413284,1.10958136 C12.9396288,1.10864435 12.937966,1.10764337 12.9363438,1.10658062 L12.9283252,1.10197234 C12.9227058,1.09840226 12.9169971,1.09497176 12.9112042,1.09168406 C12.9034023,1.08696861 12.8958171,1.08193165 12.8876901,1.07753771 C12.8775042,1.07207207 12.8667766,1.06757096 12.8562656,1.06264116 C12.8478135,1.05867589 12.8395781,1.05417478 12.8309093,1.05063818 C12.8286338,1.04956648 12.8260331,1.0488163 12.8235409,1.04795894 C12.8207235,1.04678008 12.8176894,1.04592272 12.814872,1.04463669 L12.7995933,1.03917106 C12.7901659,1.03584881 12.7809553,1.03199071 12.7712029,1.02888278 C12.7615588,1.02609638 12.7515897,1.02406016 12.7417289,1.02159527 C12.7307845,1.0187017 12.7200569,1.01537945 12.7088958,1.01323604 C12.7066202,1.0127002 12.7042363,1.0127002 12.7019607,1.01227152 L12.6955675,1.01119983 C12.6876572,1.00969946 12.6795302,1.00873493 12.6712948,1.00766324 C12.6623009,1.00627004 12.6535237,1.00444816 12.6445298,1.00348363 C12.6224612,1.001241 12.6002898,1.00016082 12.578105,1.00016082 L12.5758294,1.00016082 L7.43034559,1.01848736 C7.0712715,1.01910884 6.78069385,1.30750096 6.78132223,1.66262918 C6.78195061,2.0177574 7.07354708,2.3051419 7.43262117,2.30452043 L7.43489673,2.30452043 L11.0106748,2.29166011 L8.65958364,4.63374068 C7.85403396,4.00808558 6.84227481,3.63299261 5.74772849,3.63299261 L5.68444614,3.63331412 C3.07339888,3.66728683 0.977279276,5.79577874 1.01162946,8.37781165 C1.04554621,10.9264077 3.16908093,12.9997074 5.74545293,12.9997074 L5.80873528,12.9992787 C7.07351548,12.9828818 8.25615864,12.4803643 9.13875243,11.5842136 C10.0214546,10.6880629 10.4982394,9.50555549 10.481552,8.25488833 C10.468332,7.24878178 10.1282977,6.31747949 9.56428292,5.55775545 L11.9281606,3.20302889 L11.9281606,6.73179648 C11.9281606,7.08692472 12.2192476,7.37481303 12.5783217,7.37481303 C12.9373958,7.37481303 13.2284829,7.08692472 13.2284829,6.73179648 L13.2284829,1.64296359 L13.2284829,1.6422134 L13.2284829,1.64092736 L13.2284829,1.64092736 Z M8.05200804,10.5373827 C7.45223436,11.1465337 6.64841843,11.4879755 5.788797,11.4992283 L5.74545293,11.4994426 C3.99467727,11.4994426 2.55153619,10.0902719 2.52845547,8.35819965 C2.50515803,6.60319318 3.92987786,5.15672747 5.70438441,5.13357887 L5.74772849,5.1334717 C7.49861252,5.1334717 8.94186195,6.54253529 8.96461759,8.27482184 C8.97599542,9.12478254 8.65189007,9.92833888 8.05200804,10.5373827 L8.05200804,10.5373827 Z" id="形状"></path>
                </g>
            </g>
        </g>
    </g>
</svg>
