<?xml version="1.0" encoding="UTF-8"?>
<svg width="26Px" height="26Px" viewBox="0 0 26 26" version="1.1" xmlns="http://www.w3.org/2000/svg" xmlns:xlink="http://www.w3.org/1999/xlink">
    <!-- Generator: Sketch 61.1 (89650) - https://sketch.com -->
    <title>date_btn_large</title>
    <desc>Created with Sketch.</desc>
    <defs>
        <filter x="-30.8%" y="-30.8%" width="161.5%" height="161.5%" filterUnits="objectBoundingBox" id="filter-1">
            <feOffset dx="0" dy="2" in="SourceAlpha" result="shadowOffsetOuter1"></feOffset>
            <feGaussianBlur stdDeviation="1" in="shadowOffsetOuter1" result="shadowBlurOuter1"></feGaussianBlur>
            <feColorMatrix values="0 0 0 0 0.747474747   0 0 0 0 0.78956229   0 0 0 0 1  0 0 0 1 0" type="matrix" in="shadowBlurOuter1" result="shadowMatrixOuter1"></feColorMatrix>
            <feMerge>
                <feMergeNode in="shadowMatrixOuter1"></feMergeNode>
                <feMergeNode in="SourceGraphic"></feMergeNode>
            </feMerge>
        </filter>
        <linearGradient x1="93.5714286%" y1="100%" x2="6.25%" y2="0%" id="linearGradient-2">
            <stop stop-color="#849DED" offset="0%"></stop>
            <stop stop-color="#4D64D7" offset="100%"></stop>
        </linearGradient>
    </defs>
    <g id="数据页面" stroke="none" stroke-width="1" fill="none" fill-rule="evenodd">
        <g id="无数据按日" transform="translate(-325.000000, -1142.000000)" fill="url(#linearGradient-2)" fill-rule="nonzero">
            <g id="fangda" filter="url(#filter-1)" transform="translate(325.000000, 1142.000000)">
                <path d="M20.3333333,0 L5.66666667,0 C3.61333333,0 2,1.61333333 2,3.66666667 L2,18.3333333 C2,20.3866667 3.61333333,22 5.66666667,22 L20.3333333,22 C22.3866667,22 24,20.3866667 24,18.3333333 L24,3.66666667 C24,1.61333333 22.3866667,0 20.3333333,0 Z M22.5333333,18.3333333 C22.5333333,19.5066667 21.5066667,20.5333333 20.3333333,20.5333333 L5.66666667,20.5333333 C4.49333335,20.5333333 3.46666667,19.5066667 3.46666667,18.3333333 L3.46666667,3.66666667 C3.46666667,2.49333333 4.49333333,1.46666667 5.66666667,1.46666667 L20.3333333,1.46666667 C21.5066667,1.46666667 22.5333333,2.49333335 22.5333333,3.66666667 L22.5333333,18.3333333 Z" id="形状"></path>
                <path d="M10.6888889,12.3 L6.50000001,16.4888889 L6.50000001,13.8888889 C6.50000001,13.4555555 6.21111112,13.1666667 5.77777779,13.1666667 C5.34444446,13.1666667 5.05555556,13.4555555 5.05555556,13.8888889 L5.05555556,18.2222222 C5.05555556,18.6555555 5.34444444,18.9444444 5.77777779,18.9444444 L10.1111111,18.9444444 C10.5444445,18.9444444 10.8333333,18.6555556 10.8333333,18.2222222 C10.8333333,17.7888889 10.5444445,17.5 10.1111111,17.5 L7.51111112,17.5 L11.7,13.3111111 C11.9888889,13.0222222 11.9888889,12.5888889 11.7,12.3 C11.4111111,12.0111111 10.9777778,12.0111111 10.6888889,12.3 Z M20.2222222,3.05555556 L15.8888889,3.05555556 C15.4555555,3.05555556 15.1666667,3.34444444 15.1666667,3.77777779 C15.1666667,4.21111115 15.4555555,4.50000001 15.8888889,4.50000001 L18.4888889,4.50000001 L14.3,8.68888888 C14.0111111,8.97777777 14.0111111,9.4111111 14.3,9.7 C14.5888889,9.98888888 15.0222222,9.98888888 15.3111111,9.7 L19.5,5.51111112 L19.5,8.11111112 C19.5,8.54444445 19.7888889,8.83333334 20.2222222,8.83333334 C20.6555555,8.83333334 20.9444444,8.54444445 20.9444444,8.11111112 L20.9444444,3.77777779 C20.9444444,3.34444446 20.6555556,3.05555556 20.2222222,3.05555556 Z" id="形状"></path>
            </g>
        </g>
    </g>
</svg>
