<?xml version="1.0" encoding="UTF-8"?>
<svg width="14Px" height="14Px" viewBox="0 0 14 14" version="1.1" xmlns="http://www.w3.org/2000/svg" xmlns:xlink="http://www.w3.org/1999/xlink">
    <!-- Generator: Sketch 61.1 (89650) - https://sketch.com -->
    <title>date_icon_woman</title>
    <desc>Created with Sketch.</desc>
    <g id="组件" stroke="none" stroke-width="1" fill="none" fill-rule="evenodd">
        <g id="无数据女" transform="translate(-261.000000, -32.000000)" fill="#4D64D7" fill-rule="nonzero">
            <g id="nv" transform="translate(261.000000, 32.000000)">
                <path d="M11.6573555,2.34297817 C10.8059379,1.48676677 9.64735656,1.00677791 8.43988009,1.00999356 C7.23240363,1.00677791 6.07382227,1.48676677 5.22240469,2.34297817 C4.36636655,3.19434826 3.88650181,4.35279988 3.88976996,5.56011991 C3.88976996,6.55108765 4.2040769,7.4930075 4.7859785,8.27276899 L4.00321408,9.0555334 L2.13472271,7.18704203 C1.8736347,6.93412102 1.45792543,6.93742338 1.20088849,7.19446033 C0.943851537,7.45149728 0.940549177,7.86720654 1.19347018,8.12829456 L3.06196155,9.99678592 L2.33692016,10.7218273 C2.16436002,10.8891096 2.09537283,11.1364206 2.15642826,11.3688698 C2.21748368,11.6013189 2.39909965,11.7828062 2.63159202,11.8436968 C2.86408439,11.9045874 3.11134645,11.8354249 3.27850636,11.6627462 L4.00321408,10.9380385 L5.87170544,12.8065298 C6.13331147,13.0556428 6.54586107,13.0506343 6.80134222,12.7952437 C7.05682337,12.5398531 7.06197815,12.1273053 6.81295797,11.8656109 L4.9444666,9.99711958 L5.72723101,9.21435517 C6.51068666,9.79863955 7.46254529,10.1129988 8.43988009,10.11023 C9.65540046,10.11023 10.7978495,9.63710134 11.6573555,8.77759531 C12.5168615,7.91842294 12.9899902,6.77564027 12.9899902,5.56011991 C12.9899902,4.3449332 12.5168615,3.20215053 11.6573555,2.34297817 L11.6573555,2.34297817 Z M10.716103,7.83634278 C10.1137384,8.44202755 9.29410011,8.78156109 8.43988009,8.77927519 C7.58004041,8.77927519 6.77158423,8.44426979 6.16365722,7.83634278 C5.55806334,7.23394429 5.21864707,6.41429906 5.22105717,5.56011991 C5.22105717,4.70028022 5.55573021,3.89182405 6.16365722,3.2842307 C6.76600066,2.67851441 7.58565273,2.33897516 8.43988009,2.34129792 C9.29971978,2.34129792 10.108176,2.67630368 10.716103,3.2842307 C11.3217369,3.88649271 11.6612693,4.70600812 11.6590349,5.56011991 C11.6590349,6.41995959 11.32403,7.22841577 10.716103,7.83634278 L10.716103,7.83634278 Z" id="形状"></path>
            </g>
        </g>
    </g>
</svg>
