<?xml version="1.0" encoding="UTF-8"?>
<svg width="17Px" height="17Px" viewBox="0 0 17 17" version="1.1" xmlns="http://www.w3.org/2000/svg" xmlns:xlink="http://www.w3.org/1999/xlink">
    <!-- Generator: Sketch 61.1 (89650) - https://sketch.com -->
    <title>date_icon_birth2 </title>
    <desc>Created with Sketch.</desc>
    <g id="组件" stroke="none" stroke-width="1" fill="none" fill-rule="evenodd">
        <g id="个人数据2-BMI" transform="translate(-123.000000, -74.000000)" fill="#4D64D7" fill-rule="nonzero" stroke="#4D64D7" stroke-width="0.3">
            <g id="分组-6" transform="translate(123.000000, 74.000000)">
                <g id="分组">
                    <g id="icon_shengri" transform="translate(1.000000, 1.000000)">
                        <path d="M7.5,1.85928854 C7.75888348,1.85928854 7.96875,2.0651096 7.96875,2.31900274 L7.96875,2.31900274 L7.96875,4.61757373 L10.3125,4.61757373 L10.3125,2.77871694 C10.3125,2.52482379 10.5223665,2.31900274 10.78125,2.31900274 C11.0401335,2.31900274 11.25,2.52482379 11.25,2.77871694 L11.25,2.77871694 L11.25,4.61757373 L12.1875,4.61757373 C12.9641504,4.61757373 13.59375,5.2350369 13.59375,5.99671633 L13.59375,5.99671633 L13.59375,12.8924293 L14.53125,12.8924293 C14.7901335,12.8924293 15,13.0982504 15,13.3521435 C15,13.6060366 14.7901335,13.8118577 14.53125,13.8118577 L14.53125,13.8118577 L0.46875,13.8118577 C0.209866524,13.8118577 0,13.6060366 0,13.3521435 C0,13.0982504 0.209866524,12.8924293 0.46875,12.8924293 L0.46875,12.8924293 L1.40625,12.8924293 L1.40625,5.99671633 C1.40625,5.2350369 2.03584957,4.61757373 2.8125,4.61757373 L2.8125,4.61757373 L3.75,4.61757373 L3.75,2.77871694 C3.75,2.52482379 3.95986652,2.31900274 4.21875,2.31900274 C4.47763348,2.31900274 4.6875,2.52482379 4.6875,2.77871694 L4.6875,2.77871694 L4.6875,4.61757373 L7.03125,4.61757373 L7.03125,2.31900274 C7.03125,2.0651096 7.24111652,1.85928854 7.5,1.85928854 Z M9.375,8.52514442 C9.17578125,8.52514442 9.08671875,8.63317726 8.82890625,9.0101429 C8.57109375,9.38710854 8.221875,9.90428702 7.5,9.90428702 C6.778125,9.90428702 6.4078125,9.35492855 6.1734375,9.0101429 C5.9390625,8.66535725 5.82421875,8.52514442 5.625,8.52514442 C5.42578125,8.52514442 5.33203125,8.63317726 5.0765625,9.0101429 C4.82109375,9.38710854 4.46953125,9.90428702 3.75,9.90428702 C3.03046875,9.90428702 2.67890625,9.38710854 2.42109375,9.0101429 C2.3953125,8.96876862 2.36953125,8.93199149 2.34375,8.89751292 L2.34375,8.89751292 L2.34375,12.8924293 L12.65625,12.8924293 L12.65625,8.89521435 C12.6304687,8.92969292 12.6046875,8.96876862 12.5765625,9.0101429 C12.3210937,9.38710854 11.971875,9.90428702 11.25,9.90428702 C10.528125,9.90428702 10.1578125,9.35492855 9.9234375,9.0101429 C9.6890625,8.66535725 9.57421875,8.52514442 9.375,8.52514442 Z M12.1875,5.53700213 L2.8125,5.53700213 C2.55361652,5.53700213 2.34375,5.74282319 2.34375,5.99671633 L2.34375,5.99671633 L2.34375,7.69076315 C2.70858191,7.86633176 3.00845709,8.14917691 3.2015625,8.49986014 C3.4359375,8.84464579 3.553125,8.98485862 3.75,8.98485862 C3.946875,8.98485862 4.04296875,8.87682578 4.2984375,8.49986014 C4.55390625,8.1228945 4.9078125,7.60571602 5.625,7.60571602 C6.3421875,7.60571602 6.71953125,8.15507449 6.95390625,8.49986014 C7.18828125,8.84464579 7.303125,8.98485862 7.5,8.98485862 C7.696875,8.98485862 7.79296875,8.87682578 8.0484375,8.49986014 C8.30390625,8.1228945 8.6578125,7.60571602 9.375,7.60571602 C10.0921875,7.60571602 10.4671875,8.15507449 10.7015625,8.49986014 C10.9359375,8.84464579 11.053125,8.98485862 11.25,8.98485862 C11.446875,8.98485862 11.5617187,8.84464579 11.7960937,8.49986014 C11.99081,8.14957309 12.2912678,7.86695062 12.65625,7.69076315 L12.65625,7.69076315 L12.65625,5.99671633 C12.65625,5.74282319 12.4463835,5.53700213 12.1875,5.53700213 L12.1875,5.53700213 Z M4.22727273,0.531225296 C4.4532074,0.531225296 4.63636364,0.709603546 4.63636364,0.929644269 C4.63636364,1.14968499 4.4532074,1.32806324 4.22727273,1.32806324 C4.00133806,1.32806324 3.81818182,1.14968499 3.81818182,0.929644269 C3.81818182,0.709603546 4.00133806,0.531225296 4.22727273,0.531225296 Z M10.7727273,0.531225296 C10.9986619,0.531225296 11.1818182,0.709603546 11.1818182,0.929644269 C11.1818182,1.14968499 10.9986619,1.32806324 10.7727273,1.32806324 C10.5467926,1.32806324 10.3636364,1.14968499 10.3636364,0.929644269 C10.3636364,0.709603546 10.5467926,0.531225296 10.7727273,0.531225296 Z M7.5,8.43769499e-15 C7.72593467,8.43769499e-15 7.90909091,0.17837825 7.90909091,0.398418972 C7.90909091,0.618459695 7.72593467,0.796837945 7.5,0.796837945 C7.27406533,0.796837945 7.09090909,0.618459695 7.09090909,0.398418972 C7.09090909,0.17837825 7.27406533,8.43769499e-15 7.5,8.43769499e-15 Z" id="合并形状"></path>
                    </g>
                </g>
            </g>
        </g>
    </g>
</svg>
