<?xml version="1.0" encoding="UTF-8"?>
<svg width="22Px" height="22Px" viewBox="0 0 22 22" version="1.1" xmlns="http://www.w3.org/2000/svg" xmlns:xlink="http://www.w3.org/1999/xlink">
    <!-- Generator: Sketch 61.1 (89650) - https://sketch.com -->
    <title>data_icon_gender</title>
    <desc>Created with Sketch.</desc>
    <defs>
        <linearGradient x1="93.5714286%" y1="82.6432%" x2="6.25%" y2="17.3568%" id="linearGradient-1">
            <stop stop-color="#849DED" offset="0%"></stop>
            <stop stop-color="#4D64D7" offset="100%"></stop>
        </linearGradient>
    </defs>
    <g id="1.20-UI" stroke="none" stroke-width="1" fill="none" fill-rule="evenodd">
        <g id="填写信息" transform="translate(-50.000000, -362.000000)" fill="url(#linearGradient-1)" fill-rule="nonzero">
            <g id="编组-4" transform="translate(33.000000, 349.000000)">
                <g id="xingbie" transform="translate(17.000000, 13.000000)">
                    <path d="M5.77630598,3.15936568 C8.40327428,3.15936568 10.552612,5.30870337 10.552612,7.93567165 C10.552612,10.2914578 8.82412248,12.2631353 6.57274374,12.6451037 L6.572,13.5071555 L9.75656095,13.5080286 C10.2341916,13.5080286 10.552612,13.826449 10.552612,14.3040796 C10.552612,14.7817102 10.2341916,15.1001306 9.75656095,15.1001306 L6.572,15.0991555 L6.57235697,18.2843346 C6.57235697,18.7619652 6.25393657,19.0803856 5.77630598,19.0803856 C5.29867538,19.0803856 4.98025498,18.7619652 4.98025498,18.2843346 L4.98,15.0991555 L1.796051,15.1001306 C1.3184204,15.1001306 1,14.7817102 1,14.3040796 C1,13.826449 1.3184204,13.5080286 1.796051,13.5080286 L4.98,13.5071555 L4.98004832,12.6451343 C2.72858166,12.2632404 1,10.2915207 1,7.93567165 C1,5.30870336 3.14933769,3.15936568 5.77630598,3.15936568 Z M16.6822046,3.23897077 L20.0256188,6.58238496 C20.3440392,6.90080536 20.3440392,7.37843596 20.0256188,7.69685636 C19.9460137,7.85606656 19.7071984,7.93567166 19.4683831,7.93567166 C19.2295678,7.93567166 19.0703576,7.85606656 18.9111474,7.69685636 L16.921,5.70715547 L16.9214067,9.59464756 C19.1727854,9.97661601 20.9012749,11.9482934 20.9012749,14.3040796 C20.9012749,16.9310479 18.7519372,19.0803856 16.1249689,19.0803856 C13.4980006,19.0803856 11.348663,16.9310479 11.348663,14.3040796 C11.348663,11.9482934 13.0771524,9.97661601 15.3285312,9.59464756 L15.328,5.70615547 L13.3387904,7.69685636 C13.02037,8.01527676 12.5427394,8.01527676 12.224319,7.69685636 C11.9058986,7.37843596 11.9058986,6.90080536 12.224319,6.58238496 L15.5677332,3.23897077 C15.8861536,2.92055037 16.3637842,2.92055037 16.6822046,3.23897077 Z M16.1249689,11.1198756 C14.3736567,11.1198756 12.9407649,12.5527674 12.9407649,14.3040796 C12.9407649,16.0553918 14.3736567,17.4882836 16.1249689,17.4882836 C17.8762811,17.4882836 19.3091729,16.0553918 19.3091729,14.3040796 C19.3091729,12.5527674 17.8762811,11.1198756 16.1249689,11.1198756 Z M5.77630598,4.75146767 C4.02499378,4.75146767 2.592102,6.18435947 2.592102,7.93567165 C2.592102,9.68698383 4.0249938,11.1198756 5.77630598,11.1198756 C7.52761817,11.1198756 8.96050997,9.68698383 8.96050997,7.93567165 C8.96050997,6.18435947 7.52761817,4.75146767 5.77630598,4.75146767 Z" id="合并形状"></path>
                </g>
            </g>
        </g>
    </g>
</svg>
