<?xml version="1.0" encoding="UTF-8"?>
<svg width="335Px" height="236Px" viewBox="0 0 335 236" version="1.1" xmlns="http://www.w3.org/2000/svg" xmlns:xlink="http://www.w3.org/1999/xlink">
    <!-- Generator: Sketch 61.1 (89650) - https://sketch.com -->
    <title>date_pic_waman</title>
    <desc>Created with Sketch.</desc>
    <defs>
        <linearGradient x1="44.2380221%" y1="10.5044136%" x2="60.2373006%" y2="100%" id="linearGradient-1">
            <stop stop-color="#F5F7FF" offset="0%"></stop>
            <stop stop-color="#C9D2FF" offset="100%"></stop>
        </linearGradient>
    </defs>
    <g id="组件" stroke="none" stroke-width="1" fill="none" fill-rule="evenodd">
        <g id="无分数-女备份" transform="translate(0.000000, -200.000000)" fill="url(#linearGradient-1)" stroke="#BFC9FF" stroke-width="2">
            <g id="编组" transform="translate(0.000000, 200.000000)">
                <g id="分组">
                    <g id="Fill-1">
                        <path d="M188.309802,68.1807311 C186.702241,70.6671413 184.35811,71.5873188 181.741317,72.1263279 C181.741317,72.7316636 181.717146,73.2891434 181.745133,73.8445242 C181.954612,78.0671817 180.856331,81.9649226 178.988405,85.7371465 C177.877402,87.9804989 177.061112,90.3682587 176.17231,92.7136198 C176.082836,92.949961 176.342353,93.5599144 176.555648,93.6249817 C178.230633,94.1362847 179.953111,94.4985626 181.622584,95.024978 C182.907021,95.4292348 183.958234,95.1819791 184.706252,94.1362847 C186.166245,92.0931716 187.669915,90.0630721 188.921278,87.8948619 C190.964759,84.3539417 192.808091,80.7005181 194.768883,77.1125816 C195.047482,76.6033775 195.042394,76.2767817 194.67941,75.8108159 C192.980254,73.6304319 191.344281,71.4021919 189.639613,69.2264255 C189.305888,68.8003397 188.766077,68.5312549 188.309802,68.1807311 M161.366291,131.469379 C161.366291,132.748476 161.341696,134.027993 161.370531,135.306671 C161.493929,140.828995 160.791283,146.231679 159.135804,151.517662 C158.881376,152.330374 159.02216,153.256428 158.889433,154.116576 C158.513728,156.55555 158.217319,159.016773 157.649096,161.413348 C157.158474,163.481649 156.862065,165.482363 157.285264,167.601878 C157.953986,170.947596 157.941688,174.346208 157.691501,177.731806 C157.356928,182.257131 156.957476,186.779098 156.525372,191.296448 C156.028389,196.494275 156.45074,201.602687 157.763589,206.658206 C158.866959,210.908989 159.848203,215.191257 160.956237,219.441201 C161.86709,222.933845 163.294432,226.229189 165.09027,229.37047 C165.984585,230.933764 165.500323,232.23595 163.736288,232.530641 C161.222963,232.95085 158.731264,233.334957 156.129312,232.527283 C153.363255,231.669234 151.876547,229.960693 151.372355,227.266907 C151.173901,226.20778 151.020396,225.129342 150.98096,224.054682 C150.872828,221.120357 150.993257,218.16882 150.72738,215.250447 C150.444116,212.136452 150.048481,209.011123 148.800935,206.066723 C148.549051,205.472722 148.68093,204.724658 148.604177,204.051316 C148.408268,202.328502 148.31837,200.58176 147.963018,198.89085 C147.14588,195.005703 146.374115,191.096208 145.249967,187.29334 C144.115641,183.457728 143.200972,179.591471 142.844773,175.632441 C142.498327,171.77416 142.417758,167.907904 143.643253,164.105035 C144.549441,161.294548 145.21053,158.401782 145.875436,155.52161 C146.47207,152.93445 146.19856,150.378775 145.036247,147.977582 C143.784037,145.391262 143.252282,142.615197 142.778622,139.835354 C142.151457,136.155904 141.369514,132.466798 141.188446,128.755863 C140.919176,123.230601 139.28066,117.991634 138.368959,112.607 C137.640022,108.302484 137.439872,103.962286 139.028776,99.7879039 C139.58979,98.3131852 140.472231,96.8989161 141.463653,95.6571802 C143.883264,92.627563 146.649321,89.9375551 150.109119,88.0388495 C150.436484,87.8591798 150.748582,87.5934534 150.971631,87.2975022 C152.574528,85.1729501 154.164279,83.038323 155.732828,80.8881638 C156.430385,79.9323042 156.692446,78.955875 156.369747,77.6902112 C155.820606,75.5371135 155.564058,73.3113922 155.175631,71.1171551 C155.134922,70.8854316 155.084885,70.6272614 154.95131,70.4446532 C153.527785,68.5014499 152.08645,66.5712601 150.577691,64.5394814 C149.208868,66.4247538 147.249772,67.848678 146.285489,70.2498711 C144.937868,73.6069237 143.173833,76.8078148 141.478918,80.0187808 C139.736086,83.32294 137.741794,86.5003229 136.073593,89.8393245 C133.446623,95.0988608 129.521646,99.2417584 125.071698,102.972423 C121.8676,105.657813 118.626611,108.300385 115.417424,110.980318 C115.134585,111.216659 114.904752,111.560047 114.755487,111.899236 C114.082101,113.433985 113.33705,114.950682 112.829466,116.540423 C112.354958,118.025637 110.92168,118.53568 110.046871,119.596487 C109.918809,119.751809 109.378573,119.659875 109.066475,119.563744 C107.889745,119.203565 106.730401,118.788393 105.560456,118.405546 C104.957461,118.207825 104.649179,117.856882 104.396871,117.221741 C103.577189,115.156799 104.026254,113.737072 105.752973,112.182174 C108.202691,109.975763 110.593043,107.724015 113.202203,105.68468 C116.55811,103.061418 118.733046,99.5175598 120.672637,95.778919 C123.562516,90.210418 126.835309,84.8698624 131.049486,80.1430383 C131.659266,79.459202 131.991295,78.5218132 132.405164,77.6788769 C134.080149,74.2659924 135.666084,70.8073509 137.43648,67.4440014 C138.119619,66.1472732 138.419844,64.8379514 138.427477,63.44803 C138.441895,60.7664179 138.865094,58.1691834 139.759408,55.6399547 C140.730476,52.8941149 142.608579,51.0205966 145.338593,50.0105843 C146.155731,49.7083362 146.508538,49.3271678 146.592075,48.3981747 C147.155633,42.1382812 147.533459,35.8422859 148.538026,29.6478795 C149.12109,26.0532263 150.759183,22.626069 151.921496,19.1237694 C152.633894,16.9782278 154.00611,15.3880671 155.941459,14.1950268 C159.040818,12.2849869 162.330573,11.486968 165.928186,12.3412386 C167.183365,12.6397086 168.493246,12.9037558 169.618666,13.4855834 C170.532911,13.9582658 171.295347,14.8121166 171.975518,15.6197906 C174.35951,18.4495883 175.359836,21.9250213 175.911945,25.4189251 C177.056447,32.6657426 178.963386,39.7345695 180.583669,46.8705626 C180.657029,47.1929605 180.88135,47.7034239 181.097614,47.7370071 C183.267885,48.0761966 184.39797,49.6705552 185.185425,51.3627246 C186.35325,53.8730628 188.454402,55.3246931 190.615345,56.757433 C193.351719,58.5709214 195.530896,60.9439886 197.611269,63.4165458 C199.414317,65.560828 200.651685,67.9977031 201.439988,70.6948474 C202.03535,72.7325032 202.766407,74.7445518 203.621709,76.6881749 C204.080528,77.730511 204.163641,78.7237317 203.638247,79.5926949 C202.068426,82.1895097 200.488427,84.7972389 198.673931,87.2265578 C197.276696,89.0979772 195.489339,90.6793223 193.932663,92.4390778 C192.191527,94.4070486 190.566579,96.4766083 188.792792,98.4139345 C187.713168,99.5931218 186.574178,100.81009 185.226134,101.629098 C184.146086,102.284809 182.724257,102.437192 181.42837,102.682349 C180.325848,102.891404 179.186859,102.914492 178.063983,103.016921 C177.748492,103.045886 177.432153,103.080309 177.115814,103.083248 C176.611198,103.087445 175.831376,102.860759 175.650732,103.095841 C174.948935,104.009302 174.123315,105.005461 173.911716,106.080541 C173.129774,110.048387 175.322944,113.038124 177.812099,115.697907 C181.990232,120.162783 185.673503,124.965588 188.478149,130.366174 C190.489403,134.238308 192.179654,138.273739 194.017048,142.234448 C195.01271,144.380829 196.00498,146.52847 197.023116,148.663937 C197.337335,149.323005 197.735939,149.943034 198.08705,150.585311 C199.126389,152.488214 198.924118,154.489768 198.588273,156.513571 C198.087898,159.528496 196.918377,162.212626 195.090311,164.709951 C192.603276,168.107723 191.292548,172.087323 190.023375,176.045094 C187.753453,183.120637 185.325361,190.155881 183.381954,197.31958 C182.055535,202.209282 180.786363,207.16783 180.821983,212.338371 C180.846154,215.875093 180.06718,219.330796 179.177106,222.756694 C178.837868,224.062658 178.614819,225.441665 178.646623,226.780372 C178.662737,227.448676 179.22163,228.317639 179.801727,228.711401 C180.740142,229.34948 181.886765,229.703782 182.96978,230.113077 C183.544788,230.330107 184.044739,230.533705 183.860703,231.258681 C183.674122,231.992472 183.56175,232.875288 182.501633,232.808542 C181.7375,232.760686 180.977608,232.582695 180.226621,232.41478 C177.885035,231.890883 175.808902,230.768367 173.855318,229.44897 C172.476742,228.517878 171.727875,227.331974 172.167187,225.446282 C172.452571,224.219659 172.144289,222.822181 171.937778,221.526712 C171.691407,219.981469 171.206721,218.474427 170.939572,216.932122 C170.659701,215.312576 169.689906,214.193838 168.566606,213.092732 C167.851239,212.390845 167.213896,211.560082 166.733027,210.683563 C165.545696,208.52081 165.787827,207.478894 167.707487,205.897129 C168.246874,205.452992 168.823578,205.014732 169.454136,204.727177 C170.511285,204.245679 170.968407,203.422472 171.331391,202.381816 C172.69979,198.45385 174.010095,194.511192 174.424813,190.353182 C174.753025,187.05364 175.10456,183.746962 174.49054,180.431889 C174.077942,178.207007 174.627931,176.065243 175.191065,173.934395 C176.573034,168.699206 178.759419,163.809084 181.588236,159.185108 C182.018219,158.481962 182.27816,157.659595 182.517322,156.863675 C182.954939,155.404488 182.831541,154.100624 181.505971,153.025124 C179.54221,151.432445 177.711176,149.678986 175.732573,148.106037 C170.099535,143.628987 165.655948,138.170051 161.986247,132.053306 C161.861577,131.845091 161.725034,131.644431 161.59358,131.439994 C161.517675,131.449649 161.442195,131.459304 161.366291,131.469379"></path>
                    </g>
                </g>
            </g>
        </g>
    </g>
</svg>
