<?xml version="1.0" encoding="UTF-8"?>
<svg width="375Px" height="18Px" viewBox="0 0 375 18" version="1.1" xmlns="http://www.w3.org/2000/svg" xmlns:xlink="http://www.w3.org/1999/xlink">
    <!-- Generator: Sketch 61.1 (89650) - https://sketch.com -->
    <title>data_pic_logo</title>
    <desc>Created with Sketch.</desc>
    <defs>
        <polygon id="path-1" points="3.19174185e-05 0.476608696 70.7523193 0.476608696 70.7523193 17.2171958 3.19174185e-05 17.2171958"></polygon>
    </defs>
    <g id="数据页面" stroke="none" stroke-width="1" fill="none" fill-rule="evenodd">
        <g id="数据按年" transform="translate(0.000000, -1262.000000)">
            <g id="分组" transform="translate(0.000000, 1262.000000)">
                <g transform="translate(119.000000, 0.306235)">
                    <mask id="mask-2" fill="white">
                        <use xlink:href="#path-1"></use>
                    </mask>
                    <g id="Clip-2"></g>
                    <path d="M3.13129565,8.43010435 C3.13755652,8.44184348 3.14929565,8.4528 3.16651304,8.46532174 C3.14929565,8.4528 3.13755652,8.44184348 3.13129565,8.43010435 L3.13129565,8.43010435 Z M3.12346957,8.4074087 L3.12346957,8.4081913 L3.12346957,8.4074087 Z M70.7455565,2.31793043 C70.4919913,1.90627826 68.6763391,2.26393043 67.2504261,2.94871304 C67.2652957,2.93932174 66.7307739,3.25236522 64.9972957,4.24627826 C46.8384261,14.4616696 28.232687,16.9112348 6.12086087,9.31210435 C4.7192087,8.83314783 3.44277391,8.35966957 3.27764348,8.28610435 C3.25181739,8.27593043 3.22286087,8.27671304 3.19546957,8.28766957 C3.22286087,8.27593043 3.25181739,8.27436522 3.27764348,8.28453913 C3.4412087,8.35262609 4.71294783,8.8034087 6.10912174,9.25184348 C25.2352957,15.4602783 41.7209478,14.1110609 57.5640783,6.66375652 C52.3010348,5.01323478 50.2850348,-0.0619826087 40.3146,0.522626087 C46.1395565,1.20662609 49.8937304,3.99349565 52.8159913,6.12453913 C46.9972957,4.13123478 40.5118174,0.59306087 34.7150348,2.03932174 C5.66538261,9.28549565 2.97555652,3.5928 0.100252174,7.10123478 C-1.93453043,9.58210435 27.4399043,21.0794087 49.5360783,15.8844522 C54.5064261,14.7144522 55.2311217,12.0011478 57.9632087,9.42949565 C60.9050348,8.23601739 63.8124261,6.83749565 66.6846,5.23627826 C69.8322522,3.48323478 70.846513,2.48227826 70.7455565,2.31793043 L70.7455565,2.31793043 Z" id="Fill-1" fill="#DBDCDC" mask="url(#mask-2)"></path>
                </g>
                <path d="M204.321957,11.0589652 L202.190913,11.3485304 L202.190913,9.14157391 L203.994826,9.14157391 L203.994826,8.13983478 L202.190913,8.12887826 L202.190913,6.03774783 L201.189957,6.03774783 L201.189957,8.12261739 L199.832913,8.1140087 C200.246913,6.68966087 200.580304,5.34122609 200.919174,3.71496522 L204.320391,3.71496522 L204.320391,2.71322609 L201.121087,2.71322609 C201.150043,2.56296522 201.180565,2.41583478 201.209522,2.25931304 L200.225783,2.07070435 C200.182739,2.29218261 200.141261,2.50270435 200.099783,2.71322609 L198.738043,2.71322609 L198.738043,3.71496522 L199.895522,3.71496522 C199.577783,5.22618261 199.259261,6.49557391 198.871087,7.83461739 C198.781087,8.1414 198.84213,8.47792174 199.034652,8.73148696 C199.225609,8.98818261 199.531609,9.14157391 199.852478,9.14157391 L201.189957,9.14157391 L201.189957,11.4839217 L198.486043,11.8509652 L198.620652,12.843313 L201.189957,12.4950522 L201.189957,16.1412261 L202.190913,16.1412261 L202.190913,12.3596609 L204.456565,12.0520957 L204.321957,11.0589652 Z" id="Fill-3" fill="#231916"></path>
                <path d="M211.452617,4.1882087 C211.703052,3.94325217 211.779748,3.57464348 211.64827,3.2529913 C211.516791,2.92742609 211.205313,2.71612174 210.853139,2.71612174 L206.381313,2.71612174 L206.381313,3.71786087 L210.493922,3.71786087 C209.395139,4.75012174 207.411226,6.39907826 205.005487,7.45403478 L205.406965,8.37125217 C206.825835,7.74907826 208.097574,6.93594783 209.1494,6.14942609 L212.837835,8.54029565 L213.381748,7.6989913 L209.982096,5.49516522 C210.583139,5.00133913 211.087139,4.54194783 211.452617,4.1882087" id="Fill-5" fill="#231916"></path>
                <polygon id="Fill-7" fill="#231916" points="209.612235 10.5446348 211.923278 10.5446348 211.923278 9.54289565 206.300235 9.54289565 206.300235 10.5446348 208.611278 10.5446348 208.611278 14.9389826 205.225713 14.9389826 205.225713 15.9415043 212.9978 15.9415043 212.9978 14.9389826 209.612235 14.9389826"></polygon>
                <path d="M217.331339,2.06045217 C216.906383,4.05453913 216.484557,5.21436522 215.637774,7.22097391 L216.561252,7.61071304 C216.654383,7.39001739 216.739687,7.18262609 216.824209,6.97914783 L216.824209,16.1411478 L217.825165,16.1411478 L217.825165,4.21575652 C217.999687,3.62410435 218.155426,3.00193043 218.311165,2.2694087 L217.331339,2.06045217 Z" id="Fill-9" fill="#231916"></path>
                <path d="M221.646409,12.6478957 L221.050061,11.6508522 C221.407713,10.4143304 221.719974,9.21850435 222.034583,7.93893913 C222.111278,7.63293913 222.042409,7.3152 221.848322,7.06554783 C221.654235,6.81667826 221.360757,6.67346087 221.043017,6.67346087 L220.264322,6.67346087 L221.777887,3.69406957 C221.883539,3.48433043 221.871017,3.23233043 221.750496,3.0398087 C221.628409,2.84102609 221.407713,2.71737391 221.175278,2.71737391 L218.857974,2.71737391 L218.857974,3.71911304 L220.642322,3.71911304 L219.001974,6.94815652 C218.923713,7.10311304 218.929974,7.2878087 219.021539,7.43728696 C219.113887,7.5852 219.274322,7.6752 219.448061,7.6752 L221.062583,7.70024348 C220.390322,10.4307652 219.741539,12.7660696 218.594235,15.9724174 L219.537278,16.3105043 C219.973974,15.0888522 220.339452,13.9924174 220.661887,12.953113 L220.787104,13.161287 C221.811539,14.8759826 223.688235,15.941113 225.686235,15.941113 L230.964148,15.941113 L230.964148,14.9393739 L225.686235,14.9393739 C224.040409,14.9393739 222.491626,14.061287 221.646409,12.6478957" id="Fill-11" fill="#231916"></path>
                <path d="M226.802078,3.73116522 L228.523035,3.7382087 L228.523035,4.9982087 L226.802078,4.9982087 L226.802078,3.73116522 Z M226.802078,7.28107826 L228.523035,7.28107826 L228.523035,5.99994783 L226.802078,5.99994783 L226.802078,7.28107826 Z M225.801122,7.28107826 L222.916426,7.28107826 L222.916426,8.28281739 L225.801122,8.28281739 L225.801122,9.56394783 L223.272513,9.56394783 L223.272513,10.565687 L225.801122,10.565687 L225.801122,11.8460348 L222.896861,11.8460348 L222.896861,12.8477739 L225.801122,12.8477739 L225.801122,14.1844696 L226.802078,14.1844696 L226.802078,12.8477739 L229.822165,12.8477739 L229.822165,11.8460348 L226.802078,11.8460348 L226.802078,10.565687 L229.515383,10.565687 L229.515383,9.56394783 L226.802078,9.56394783 L226.802078,8.28281739 L229.524774,8.28281739 L229.524774,5.99994783 L230.535122,5.99994783 L230.535122,4.9982087 L229.524774,4.9982087 L229.524774,3.7382087 C229.524774,3.17473043 229.066165,2.71612174 228.50347,2.71612174 L226.802078,2.71612174 L226.802078,2.16516522 L225.801122,2.16516522 L225.801122,2.71612174 L223.390687,2.71612174 L223.390687,3.71786087 L225.801122,3.72725217 L225.801122,4.9982087 L222.558774,4.9982087 L222.558774,5.99994783 L225.801122,5.99994783 L225.801122,7.28107826 Z" id="Fill-13" fill="#231916"></path>
                <path d="M235.4582,8.73328696 L243.224809,8.73328696 L243.224809,7.73154783 L235.4582,7.73154783 L235.4582,6.48485217 L244.04107,6.48485217 L244.04107,5.48311304 L235.4582,5.48311304 L235.4582,3.71833043 L244.933243,3.71833043 C245.136722,3.71833043 245.301852,3.88267826 245.301852,4.08537391 L245.301852,10.1920696 L235.4582,10.1920696 L235.4582,8.73328696 Z M248.305504,9.52606957 L247.738113,8.69963478 C247.2662,9.02363478 246.786461,9.33041739 246.302809,9.63093913 L246.302809,4.08537391 C246.302809,3.33093913 245.688461,2.7165913 244.933243,2.7165913 L238.866461,2.7165913 L239.053504,2.45676522 L238.240374,1.87293913 L237.634635,2.7165913 L234.457243,2.7165913 L234.457243,10.1920696 L232.763678,10.1920696 L232.763678,11.1945913 L243.548809,11.1945913 C240.230548,12.9124174 236.694722,14.1528522 232.978896,14.8728522 L233.169852,15.8565913 C237.466374,15.023113 241.531243,13.5165913 245.301852,11.387113 L245.301852,14.5723304 C245.301852,14.7750261 245.136722,14.9393739 244.933243,14.9393739 L242.564287,14.9393739 L242.564287,15.941113 L244.933243,15.941113 C245.688461,15.941113 246.302809,15.3267652 246.302809,14.5723304 L246.302809,10.8072 C246.978983,10.3994609 247.648113,9.97606957 248.305504,9.52606957 L248.305504,9.52606957 Z" id="Fill-15" fill="#231916"></path>
            </g>
        </g>
    </g>
</svg>
