<?xml version="1.0" encoding="UTF-8"?>
<svg width="12Px" height="12Px" viewBox="0 0 12 12" version="1.1" xmlns="http://www.w3.org/2000/svg" xmlns:xlink="http://www.w3.org/1999/xlink">
    <!-- Generator: Sketch 61.1 (89650) - https://sketch.com -->
    <title>data_btn_prompt</title>
    <desc>Created with Sketch.</desc>
    <g id="组件" stroke="none" stroke-width="1" fill="none" fill-rule="evenodd">
        <g id="实际得分" transform="translate(-223.000000, -23.000000)" fill="#BFC9FF" fill-rule="nonzero">
            <g id="jingshi" transform="translate(223.000000, 23.000000)">
                <path d="M6,0 C2.6625,0 0,2.6625 0,6 C0,9.3375 2.6625,12 6,12 C9.3375,12 12,9.3375 12,6 C12,2.6625 9.3375,0 6,0 Z M5.4225,2.3475 C5.58,2.19 5.715,2.085 5.97,2.085 C6.255,2.0625 6.5175,2.1975 6.6225,2.4 C6.7425,2.5425 6.81,2.8575 6.78,3.045 C6.78,3.0975 6.7425,3.45 6.7275,3.5475 L6.5175,6.21 C6.5175,6.4725 6.465,6.735 6.36,6.9375 C6.3075,7.095 6.15,7.2 5.94,7.2 C5.7825,7.2 5.625,7.095 5.5725,6.9375 C5.4675,6.675 5.415,6.465 5.415,6.21 L5.2725,3.6 C5.22,3.1275 5.22,3.285 5.22,3.0225 C5.22,2.7675 5.2725,2.5575 5.4225,2.3475 Z M6.5775,9.705 C6.42,9.8625 6.21,9.915 6.0525,9.915 C5.8425,9.915 5.6325,9.8625 5.475,9.705 C5.3175,9.5475 5.2125,9.3375 5.2125,9.0825 C5.2125,8.8725 5.265,8.6625 5.4225,8.505 C5.58,8.3475 5.79,8.2425 6,8.2425 C6.21,8.2425 6.42,8.3475 6.5775,8.505 C6.735,8.6625 6.7875,8.8725 6.7875,9.0825 C6.78,9.3375 6.7275,9.5475 6.5775,9.705 Z" id="形状"></path>
            </g>
        </g>
    </g>
</svg>
