<?xml version="1.0" encoding="UTF-8"?>
<svg width="13Px" height="13Px" viewBox="0 0 13 13" version="1.1" xmlns="http://www.w3.org/2000/svg" xmlns:xlink="http://www.w3.org/1999/xlink">
    <!-- Generator: Sketch 61.1 (89650) - https://sketch.com -->
    <title>detail_icon_timer 2</title>
    <desc>Created with Sketch.</desc>
    <g id="1.20-UI" stroke="none" stroke-width="1" fill="none" fill-rule="evenodd">
        <g id="播放暂停" transform="translate(-246.000000, -328.000000)" fill="#FFFFFF" fill-rule="nonzero">
            <g id="编组-4" transform="translate(240.000000, 325.000000)">
                <g id="detail_icon_timer-2" transform="translate(6.000000, 3.000000)">
                    <path d="M6.42713568,2.14572863 C7.75464749,2.14572863 8.96526089,2.61332228 9.90456777,3.39410146 L10.7085427,2.44723618 C10.8894472,2.26633166 11.1306533,2.20603015 11.3718593,2.38693467 C11.5527638,2.56783919 11.6130653,2.80904523 11.4321608,3.05025125 L10.5754089,4.05907799 C11.374489,5.0034047 11.8542714,6.22816171 11.8542714,7.57286432 C11.8542714,10.5879397 9.44221106,13 6.42713568,13 C3.41206031,13 1,10.5879397 1,7.57286432 C1,4.55778894 3.41206031,2.14572863 6.42713568,2.14572863 Z M6.42713568,3.05025125 C3.95477388,3.05025125 1.90452261,5.10050251 1.90452261,7.57286432 C1.90452261,10.0452261 3.95477388,12.0954774 6.42713568,12.0954774 C8.89949749,12.0954774 10.9497488,10.0452261 10.9497488,7.57286432 C10.9497488,5.10050251 8.89949749,3.05025125 6.42713568,3.05025125 Z M6.42713568,3.95477386 C6.6683417,3.95477386 6.90954774,4.13567838 6.90954774,4.43718593 L6.90978305,6.46821269 C7.33463568,6.65528476 7.63316583,7.08090452 7.63316583,7.57286432 C7.63316583,8.2361809 7.09045226,8.77889448 6.42713568,8.77889448 C5.7638191,8.77889448 5.22110554,8.23618091 5.22110554,7.57286432 C5.22110554,7.08090451 5.51963569,6.65528475 5.94448832,6.46821269 L5.94472363,4.43718593 C5.94472363,4.1356784 6.18592966,3.95477386 6.42713568,3.95477386 Z M6.42713568,7.27135678 C6.24623116,7.27135678 6.12562815,7.39195979 6.12562815,7.57286432 C6.12562815,7.75376884 6.24623116,7.87437186 6.42713568,7.87437186 C6.60804021,7.87437186 6.72864322,7.75376885 6.72864322,7.57286432 C6.72864322,7.39195978 6.60804021,7.27135678 6.42713568,7.27135678 Z M7.63316583,1 C7.87437186,1 8.1155779,1.18090452 8.1155779,1.48241206 C8.1155779,1.78391959 7.87437186,1.90452261 7.63316583,1.90452261 L5.22110554,1.90452261 C4.9798995,1.90452261 4.73869347,1.72361809 4.73869347,1.42211054 C4.73869347,1.120603 4.9798995,1 5.22110554,1 L7.63316583,1 Z" id="detail_icon_timer"></path>
                </g>
            </g>
        </g>
    </g>
</svg>
