<?xml version="1.0" encoding="UTF-8"?>
<svg width="18Px" height="18Px" viewBox="0 0 18 18" version="1.1" xmlns="http://www.w3.org/2000/svg" xmlns:xlink="http://www.w3.org/1999/xlink">
    <!-- Generator: Sketch 61.1 (89650) - https://sketch.com -->
    <title>detail_btn_addphoto</title>
    <desc>Created with Sketch.</desc>
    <g id="Q&amp;A" stroke="none" stroke-width="1" fill="none" fill-rule="evenodd">
        <g id="提问输出" transform="translate(-283.000000, -570.000000)" fill="#5F5F5F" fill-rule="nonzero">
            <g id="编组-2" transform="translate(34.000000, 321.000000)">
                <g id="detail_btn_add" transform="translate(210.000000, 210.000000)">
                    <g id="编组-3" transform="translate(39.000000, 39.000000)">
                        <path d="M9,0 C9.62112382,0 10.1250151,0.503911322 10.1250151,1.12615967 L10.1250151,1.12615967 L10.125,7.875 L16.8750251,7.87500502 C17.4536161,7.87500502 17.9321662,8.31395028 17.9934014,8.87745666 L18.0000201,9 C18.0000201,9.62110374 17.4961288,10.124995 16.8750251,10.124995 L16.8750251,10.124995 L10.125,10.124 L10.1250151,16.875005 C10.1250151,17.4535773 9.68605231,17.9321436 9.1225436,17.993381 L9,18 C8.37891634,18 7.87500502,17.4961088 7.87500502,16.875005 L7.87500502,16.875005 L7.875,10.124 L1.12557733,10.124995 C0.544793456,10.124995 0.0676365616,9.68604972 0.00659690396,9.12254334 L-2.30926389e-14,9 C-2.30926389e-14,8.37889626 0.503308894,7.87500502 1.12557733,7.87500502 L1.12557733,7.87500502 L7.875,7.875 L7.87500502,1.12615967 C7.87500502,0.545394546 8.31395028,0.0677141187 8.87745666,0.0066045734 Z" id="形状结合"></path>
                    </g>
                </g>
            </g>
        </g>
    </g>
</svg>
