<?xml version="1.0" encoding="UTF-8"?>
<svg width="40Px" height="40Px" viewBox="0 0 40 40" version="1.1" xmlns="http://www.w3.org/2000/svg" xmlns:xlink="http://www.w3.org/1999/xlink">
    <!-- Generator: Sketch 61.1 (89650) - https://sketch.com -->
    <title>detail_btn_photo</title>
    <desc>Created with Sketch.</desc>
    <g id="Q&amp;A" stroke="none" stroke-width="1" fill="none" fill-rule="evenodd">
        <g id="提出问题" transform="translate(-291.000000, -359.000000)">
            <g id="detail_btn_photo" transform="translate(291.000000, 359.000000)">
                <g id="paizhao" transform="translate(12.000000, 13.600000)" fill="#5F5F5F" fill-rule="nonzero">
                    <path d="M7.54720553,2.66688 C9.68663639,2.66688 11.3870455,4.39168 11.3870455,6.56256 C11.3870455,8.73216 9.68663639,10.45824 7.54720553,10.45824 C5.40777468,10.45824 3.70736553,8.7328 3.70736553,6.56256 C3.70736553,4.39168 5.40777468,2.66688 7.54720553,2.66688 Z M7.54720553,9.62368 C9.19321695,9.62368 10.5640398,8.23168 10.5640398,6.56256 C10.5640398,4.89216 9.19321695,3.50144 7.54720553,3.50144 C5.90183409,3.50144 4.53037123,4.8928 4.53037123,6.56256 C4.53037123,8.23168 5.90183409,9.62304 7.54720553,9.62304 L7.54720553,9.62368 Z M11.9355027,4.11328 C11.9355027,3.62176 12.3284463,3.22368 12.8135461,3.22368 C13.2980059,3.22368 13.6909495,3.62176 13.6909495,4.11328 C13.6909495,4.60544 13.2980059,5.00416 12.8135461,5.00416 C12.5790337,5.00263777 12.3547413,4.90796768 12.1900567,4.74099555 C12.0253722,4.57402341 11.9337996,4.34844091 11.9355027,4.11392 L11.9355027,4.11328 Z M13.7146286,1.6704 C14.6470697,1.6704 15.36,2.3936 15.36,3.33952 L15.36,11.13088 C15.35936,12.0768 14.6464297,12.8 13.7139886,12.8 L1.64473147,12.8 C0.767968001,12.8 0,12.0768 0,11.13024 L0,3.33888 C0,2.3936 0.712930295,1.6704 1.64537144,1.6704 L3.29138286,1.6704 L3.67536686,0.50176 C3.7848023,0.22272 4.05935086,0 4.38829715,0 L10.9710629,0 C11.2449715,0 11.5745577,0.22272 11.6839932,0.50112 L12.0679772,1.66976 L13.7139886,1.66976 L13.7146286,1.6704 Z M14.5369943,11.13088 L14.5369943,3.33888 C14.5369943,2.89408 14.1530103,2.50432 13.7146286,2.50432 L11.4651223,2.50432 L11.3006491,1.94752 L10.9166651,0.83456 L4.44333486,0.83456 L4.05935086,1.94816 L3.89487771,2.50432 L1.64473147,2.50432 C1.20634974,2.50432 0.822365735,2.89408 0.822365735,3.33888 L0.822365735,11.13024 C0.822365735,11.57568 1.20634974,11.96544 1.64473147,11.96544 L13.7146286,11.96544 C14.1530103,11.96544 14.5369943,11.57568 14.5369943,11.13024 L14.5369943,11.13088 Z" id="形状"></path>
                </g>
                <circle id="椭圆形" stroke="#5F5F5F" cx="20" cy="20" r="19.5"></circle>
            </g>
        </g>
    </g>
</svg>
