<?xml version="1.0" encoding="UTF-8"?>
<svg width="22Px" height="22Px" viewBox="0 0 22 22" version="1.1" xmlns="http://www.w3.org/2000/svg" xmlns:xlink="http://www.w3.org/1999/xlink">
    <!-- Generator: Sketch 61.1 (89650) - https://sketch.com -->
    <title>icon_data</title>
    <desc>Created with Sketch.</desc>
    <g id="1.20-UI" stroke="none" stroke-width="1" fill="none" fill-rule="evenodd">
        <g id="iphone8数据菜单" transform="translate(-246.000000, -90.000000)" fill="#000000" fill-rule="nonzero">
            <g id="编组" transform="translate(219.000000, 69.000000)">
                <g id="编组-2" transform="translate(27.000000, 21.000000)">
                    <g id="icon_data">
                        <path d="M22,7 C22,8.10001265 21.1000121,9 20.0000149,9 C19.8200118,9 19.650012,8.97999149 19.4900154,8.93001622 L15.9300222,12.4799995 C15.980011,12.6400032 16.0000173,12.819997 16.0000173,13.0000184 C16.0000173,14.1000265 15.1000022,15 14,15 C12.9000077,15 12,14.0999988 12,13.0000184 C12,12.819997 12.019999,12.6400032 12.0700149,12.4799995 L9.51996303,9.92999091 C9.3599664,9.97999379 9.17996338,10.0000115 8.99996035,10.0000115 C8.81995733,10.0000115 8.63998156,9.97999379 8.47995768,9.92999091 L3.9300024,14.4899992 C3.97999113,14.6500029 4,14.8200016 4,15 C4,16.1000035 3.09998241,17 1.99998513,17 C0.899987858,17 0,16.1000035 0,15 C0,13.8999873 0.899987858,13.0000184 1.99998513,13.0000184 C2.17998816,13.0000184 2.34998798,13.0200085 2.50998461,13.0700114 L7.0699976,8.51999816 C7.02000887,8.35999448 7,8.18000069 7,8 C7,6.89999885 7.90001759,6 8.99998761,6 C10.1000121,6 11,6.89999885 11,8 C11,8.1800283 10.9799936,8.35999448 10.9300049,8.51999816 L13.4800023,11.0700068 C13.6399989,11.0200315 13.8200019,11.0000138 14,11.0000138 C14.180008,11.0000138 14.360011,11.0200039 14.5200076,11.0700068 L18.0699976,7.51000081 C18.0200089,7.34999712 18,7.17999839 18,7 C18,5.89999655 18.9000176,5 20.0000149,5 C21.1000121,5 22,5.89999655 22,7 L22,7 Z" id="路径"></path>
                    </g>
                </g>
            </g>
        </g>
    </g>
</svg>
