<?xml version="1.0" encoding="UTF-8"?>
<svg width="13Px" height="13Px" viewBox="0 0 13 13" version="1.1" xmlns="http://www.w3.org/2000/svg" xmlns:xlink="http://www.w3.org/1999/xlink">
    <!-- Generator: Sketch 61.1 (89650) - https://sketch.com -->
    <title>icon_up</title>
    <desc>Created with Sketch.</desc>
    <g id="1.20-UI" stroke="none" stroke-width="1" fill="none" fill-rule="evenodd">
        <g id="计划完成第一步" transform="translate(-156.000000, -464.000000)" fill="#4D64D7">
            <g id="编组-3" transform="translate(133.000000, 460.000000)">
                <g id="rise" transform="translate(29.500000, 10.500000) rotate(-180.000000) translate(-29.500000, -10.500000) translate(23.000000, 4.000000)">
                    <path d="M3,9.7185285 C3,9.30032152 3.39173107,8.96126696 3.87502345,8.96126696 C4.13319634,8.96126696 4.36294394,9.05969934 4.52311369,9.21373586 L4.52550592,9.21179044 L5.62496091,10.2692127 L5.62496091,0.757261538 C5.62496091,0.339185225 6.01670762,-8.52651283e-14 6.5,-8.52651283e-14 C6.9831673,-8.52651283e-14 7.37503909,0.339185225 7.37503909,0.757261538 L7.37503909,10.2693433 L8.4746348,9.21179044 L8.47702703,9.21373586 C8.63718115,9.05969934 8.86680366,8.96126696 9.12511727,8.96126696 C9.60828457,8.96126696 10,9.30032152 10,9.7185285 C10,9.91325911 9.91276971,10.0890292 9.77319187,10.2231759 L9.77542774,10.2251214 L7.15048247,12.7492442 L7.14809024,12.7475311 C6.9880612,12.9013353 6.75817288,13 6.5,13 C6.24182712,13 6.01222024,12.9013208 5.85206612,12.7475311 L5.84967389,12.7492297 L3.22457226,10.2251359 L3.22707393,10.2231905 C3.08737101,10.0890292 3,9.91325911 3,9.7185285 Z" id="路径"></path>
                </g>
            </g>
        </g>
    </g>
</svg>
