<?xml version="1.0" encoding="UTF-8"?>
<svg width="12Px" height="12Px" viewBox="0 0 12 12" version="1.1" xmlns="http://www.w3.org/2000/svg" xmlns:xlink="http://www.w3.org/1999/xlink">
    <!-- Generator: Sketch 61.1 (89650) - https://sketch.com -->
    <title>icon_sporttime</title>
    <desc>Created with Sketch.</desc>
<!--    <g id="1.20-UI" stroke="none" stroke-width="1" fill="none" fill-rule="evenodd">-->
<!--        <g id="训练有氧计时" transform="translate(-247.000000, -329.000000)" fill="#FFFFFF" fill-rule="nonzero">-->
<!--            <g id="编组-4" transform="translate(240.000000, 325.000000)">-->
<!--                <g id="jishi-2" transform="translate(7.000000, 4.000000)">-->
                    <path d="M6.2002923,1.63636364 C9.06392866,1.63636364 11.3821105,3.95454546 11.3821105,6.81818182 C11.3821105,9.68181818 9.06392866,12 6.2002923,12 C3.33665594,12 1.01847412,9.68181819 1.01847412,6.81818182 C1.01847412,3.95454545 3.33665594,1.63636364 6.2002923,1.63636364 Z M6.2002923,2.72727273 C3.93665594,2.72727273 2.10938321,4.55454546 2.10938321,6.81818182 C2.10938321,9.08181818 3.93665594,10.9090909 6.2002923,10.9090909 C8.46392866,10.9090909 10.2912014,9.08181818 10.2912014,6.81818182 C10.2912014,4.55454546 8.46392866,2.72727273 6.2002923,2.72727273 Z M4.04574685,4.36363636 C4.26392866,4.14545454 4.59120139,4.14545454 4.80938321,4.36363636 L4.80938321,4.36363636 L5.57301957,5.15454545 C5.76392866,5.1 5.98211048,5.04545455 6.2002923,5.04545455 C7.18211048,5.04545454 7.97301957,5.80909091 7.97301957,6.79090909 C7.97301957,7.77272727 7.18211048,8.56363636 6.2002923,8.56363636 C5.21847412,8.56363636 4.42756503,7.77272727 4.42756503,6.79090909 C4.42756503,6.43636364 4.53665594,6.08181818 4.72756503,5.80909091 L4.72756503,5.80909091 L4.04574685,5.12727273 C3.82756503,4.90909091 3.82756505,4.58181818 4.04574685,4.36363636 Z M6.2002923,6.13636364 C5.81847412,6.13636364 5.51847412,6.43636364 5.51847412,6.81818182 C5.51847412,7.2 5.81847412,7.5 6.2002923,7.5 C6.58211048,7.5 6.88211048,7.2 6.88211048,6.81818182 C6.88211048,6.43636364 6.58211048,6.13636364 6.2002923,6.13636364 Z M8.10938321,2.60236277e-13 C8.4093832,2.60236277e-13 8.65483775,0.245454563 8.65483775,0.545454551 C8.65483775,0.845454539 8.40938321,1.09090909 8.10938321,1.09090909 L8.10938321,1.09090909 L4.29120139,1.09090909 C3.99120141,1.09090909 3.74574685,0.845454551 3.74574685,0.545454551 C3.74574685,0.245454551 3.99120139,2.60236277e-13 4.29120139,2.60236277e-13 L4.29120139,2.60236277e-13 Z" id="形状结合"></path>
<!--                </g>-->
<!--            </g>-->
<!--        </g>-->
<!--    </g>-->
</svg>
