<?xml version="1.0" encoding="UTF-8"?>
<svg width="14Px" height="14Px" viewBox="0 0 14 14" version="1.1" xmlns="http://www.w3.org/2000/svg" xmlns:xlink="http://www.w3.org/1999/xlink">
    <!-- Generator: Sketch 61.1 (89650) - https://sketch.com -->
    <title>icon_calendar2x</title>
    <desc>Created with Sketch.</desc>
    <g id="1.20-UI" stroke="none" stroke-width="1" fill="none" fill-rule="evenodd">
        <g id="开始训练" transform="translate(-37.000000, -537.000000)" fill="#5F5F5F" fill-rule="nonzero">
            <g id="分组" transform="translate(15.000000, 494.000000)">
                <g id="分组-2" transform="translate(20.000000, 20.000000)">
                    <g id="rili" transform="translate(2.000000, 23.000000)">
                        <path d="M12.25,14 L1.75,14 C0.783501688,14 0,13.2164983 0,12.25 L0,2.91666666 C0,1.95016835 0.783501688,1.16666666 1.75,1.16666666 L3.5,1.16666666 L3.5,0.583333338 C3.50004932,0.26120211 3.7612021,8.93043122e-05 4.08333333,8.93043122e-05 C4.40546456,8.93043122e-05 4.66661735,0.26120211 4.66666666,0.583333338 L4.66666666,1.16666666 L9.33333334,1.16666666 L9.33333334,0.583333338 C9.33338265,0.26120211 9.59453544,8.93043122e-05 9.91666667,8.93043122e-05 C10.2387979,8.93043122e-05 10.4999507,0.26120211 10.5,0.583333338 L10.5,1.16666666 L12.25,1.16666666 C13.2164983,1.16666666 14,1.95016835 14,2.91666666 L14,12.25 C14,13.2164983 13.2164983,14 12.25,14 Z M1.16666666,5.27916666 L1.16666666,12.25 C1.16666666,12.5721661 1.42783389,12.8333333 1.75,12.8333333 L12.25,12.8333333 C12.5721661,12.8333333 12.8333333,12.5721661 12.8333333,12.25 L12.8333333,5.27916666 L1.16666666,5.27916666 Z M1.16666666,4.1125 L12.8333333,4.1125 L12.8333333,2.91666666 C12.8333333,2.59450056 12.5721661,2.33333334 12.25,2.33333334 L10.5,2.33333334 L10.5,2.91666666 C10.4999507,3.23879789 10.2387979,3.4999107 9.91666667,3.4999107 C9.59453544,3.4999107 9.33338265,3.23879789 9.33333334,2.91666666 L9.33333334,2.33333334 L4.66666666,2.33333334 L4.66666666,2.91666666 C4.66661735,3.23879789 4.40546456,3.4999107 4.08333333,3.4999107 C3.7612021,3.4999107 3.50004932,3.23879789 3.5,2.91666666 L3.5,2.33333334 L1.75,2.33333334 C1.4278339,2.33333334 1.16666666,2.59450056 1.16666666,2.91666666 L1.16666666,4.1125 Z M6.24166666,11.0483333 C6.09429632,11.0478244 5.95258011,10.9915547 5.845,10.8908333 L4.26416666,9.40333334 C4.03621386,9.17962789 4.02935667,8.81458884 4.24874709,8.58248013 C4.4681375,8.35037143 4.83298372,8.33666847 5.06916666,8.55166666 L6.23583334,9.65416666 L8.925,7 C9.15783512,6.80332031 9.50283712,6.81904109 9.71682018,7.03608105 C9.93080323,7.25312101 9.94162903,7.59831129 9.74166666,7.82833334 L6.65583334,10.8733333 C6.54670833,10.9846658 6.3975601,11.0476862 6.24166666,11.0483333 L6.24166666,11.0483333 Z" id="形状"></path>
                    </g>
                </g>
            </g>
        </g>
    </g>
</svg>
