<?xml version="1.0" encoding="UTF-8"?>
<svg width="11Px" height="11Px" viewBox="0 0 11 11" version="1.1" xmlns="http://www.w3.org/2000/svg" xmlns:xlink="http://www.w3.org/1999/xlink">
    <!-- Generator: Sketch 61.1 (89650) - https://sketch.com -->
    <title>icon_que</title>
    <desc>Created with Sketch.</desc>
    <g id="组件" stroke="none" stroke-width="1" fill="none" fill-rule="evenodd">
        <g id="问一问入口" transform="translate(-153.000000, -11.000000)" fill="#231916">
            <g id="问一问按钮" transform="translate(139.000000, 5.000000)">
                <g id="编组" transform="translate(14.000000, 6.000000)">
                    <path d="M9.31265862,1.53646906 C10.4007322,2.58335149 11,3.99067272 11,5.49995431 C11,6.69933007 10.6207619,7.83430982 9.90164049,8.79264773 L9.90164049,10.2992461 C9.90164049,10.6824919 9.58993179,10.9941865 9.20666872,10.9941865 L5.61150907,10.9941865 C5.56231544,10.9982112 5.53145762,11 5.50015259,11 C5.46884755,11 5.43798973,10.9982112 5.40713191,10.9955281 L5.1374614,10.981665 C2.30167245,10.7956321 0.049051587,8.43668087 0.000752390361,5.59341796 C-0.0484412359,2.62672936 2.32090269,0.119756748 5.28191177,0.00482775014 C6.80065318,-0.057779486 8.22547948,0.490481025 9.31265862,1.53646906 Z M5.31679453,0.898322449 C2.83743576,0.994469276 0.853590983,3.09404766 0.895181958,5.57866054 C0.935431289,7.97025697 2.83967184,9.95222318 5.23003486,10.0908535 L5.29532822,10.0997974 L9.00721092,10.0997974 L9.00721092,8.4836363 L9.10425653,8.36155219 C9.75897897,7.53781984 10.1055704,6.54817832 10.1055704,5.49995431 C10.1055704,4.23618252 9.60379544,3.05737771 8.69281893,2.1808764 C7.78184242,1.30482229 6.57525693,0.854944578 5.31679453,0.898322449 Z M5.45029014,7.82156611 C5.58916828,7.82156611 5.70870406,7.87066752 5.80116054,7.98620026 C5.89400387,8.09354942 5.94003868,8.23363286 5.94003868,8.40693196 C5.94003868,8.57974968 5.88742747,8.71983312 5.79458414,8.83536585 C5.70174081,8.94223363 5.58297872,9 5.45029014,9 C5.31760155,9 5.19845261,8.94223363 5.10560928,8.82718228 C5.0131528,8.71164955 4.96673114,8.57156611 4.96673114,8.40693196 C4.96673114,8.23363286 5.0131528,8.09354942 5.10560928,7.98620026 C5.19845261,7.87066752 5.31760155,7.82156611 5.45029014,7.82156611 Z M5.56943907,3 C5.9934236,3 6.3377176,3.14056483 6.60270793,3.43709884 C6.86769826,3.72544929 7,4.12114891 7,4.61553273 C7,5.01941592 6.91411992,5.35734917 6.74816248,5.62066752 C6.68858801,5.71164955 6.5032882,5.9258665 6.19226306,6.26379974 C6.06653772,6.39569961 5.97330754,6.54396662 5.91373308,6.69223363 C5.8410058,6.85734917 5.80812379,7.03835045 5.80812379,7.23620026 L5.80812379,7.3762837 L5.09941973,7.3762837 L5.09941973,7.23620026 C5.09941973,6.93148267 5.13887814,6.66768293 5.23172147,6.45346598 C5.31760155,6.22240051 5.56943907,5.88446727 5.98027079,5.43148267 L6.09284333,5.27503209 C6.21199226,5.08536585 6.27775629,4.88751605 6.27775629,4.6732991 C6.27775629,4.38494865 6.21199226,4.16206675 6.08588008,3.99743261 C5.95357834,3.83279846 5.76131528,3.75 5.52301741,3.75 C5.22514507,3.75 5.00618956,3.86553273 4.87427466,4.10478177 C4.75473888,4.30215019 4.69555126,4.58231707 4.69555126,4.94528241 L4,4.94528241 C4,4.34354942 4.13887814,3.8737163 4.41702128,3.52759949 C4.69555126,3.1732991 5.07930368,3 5.56943907,3 Z" id="形状结合"></path>
                </g>
            </g>
        </g>
    </g>
</svg>
