<?xml version="1.0" encoding="UTF-8"?>
<svg width="40Px" height="40Px" viewBox="0 0 40 40" version="1.1" xmlns="http://www.w3.org/2000/svg" xmlns:xlink="http://www.w3.org/1999/xlink">
    <!-- Generator: Sketch 61.1 (89650) - https://sketch.com -->
    <title>unlock_icon_unlock</title>
    <desc>Created with Sketch.</desc>
    <defs>
        <linearGradient x1="84.8360656%" y1="87.295082%" x2="20.0819672%" y2="12.704918%" id="linearGradient-1">
            <stop stop-color="#849DED" offset="0%"></stop>
            <stop stop-color="#4D64D7" offset="100%"></stop>
        </linearGradient>
        <linearGradient x1="50%" y1="33.0811265%" x2="79.5857988%" y2="100%" id="linearGradient-2">
            <stop stop-color="#849DED" offset="0%"></stop>
            <stop stop-color="#4D64D7" offset="100%"></stop>
        </linearGradient>
        <path d="M7.89473684,0 C9.58421053,0 11.0315789,0.584926884 12.2342105,1.75734612 C13.4368421,2.92976536 14.0368421,4.33820772 14.0368421,5.98780416 C14.0368421,6.21869635 13.95,6.42136838 13.7763158,6.58812385 C13.6026316,6.75487932 13.3947368,6.84210526 13.1605263,6.84210526 L12.2842105,6.84210526 C12.0473684,6.84210526 11.8394737,6.75744479 11.6684211,6.58812385 C11.4947368,6.41880291 11.4078947,6.21869635 11.4078947,5.98780416 C11.4078947,5.04371164 11.0657895,4.23815444 10.3789474,3.56856709 C9.69210526,2.89897973 8.86578947,2.56803426 7.89736842,2.56803426 C6.92894737,2.56803426 6.10263158,2.9015452 5.41578947,3.57113256 C4.72894737,4.24071991 4.38684211,5.04627711 4.38684211,5.99036962 L4.38684211,10.2644406 L14.4736842,10.2644406 C14.8394737,10.2644406 15.15,10.3875831 15.4052632,10.6389991 C15.6605263,10.8878495 15.7894737,11.1931403 15.7894737,11.547175 L15.7894737,19.2435814 C15.7894737,19.6001816 15.6631579,19.9029069 15.4052632,20.1517573 C15.15,20.4006078 14.8368421,20.5263158 14.4736842,20.5263158 L1.31578947,20.5263158 C0.95,20.5263158 0.639473684,20.4031733 0.384210526,20.1517573 C0.128947368,19.9029069 0,19.5976161 0,19.2435814 L0,11.5446096 C0,11.1880094 0.126315789,10.8852841 0.384210526,10.6364336 C0.639473684,10.3875831 0.952631579,10.2618752 1.31578947,10.2618752 L1.75526316,10.2618752 L1.75526316,5.98523869 C1.75526316,4.33820772 2.35526316,2.92719989 3.55789474,1.75478065 C4.76052632,0.582361415 6.20263158,0 7.89473684,0 Z M7.77733163,12.5608798 C6.90223887,12.5608798 6.19195046,13.2551868 6.19195046,14.10895 C6.19195046,14.7122793 6.54841448,15.2270168 7.06309526,15.4838504 L7.06309526,15.4838504 L7.06309526,17.4657816 C7.063715,17.5557559 7.13872623,17.6285603 7.23143442,17.6290509 L7.23143442,17.6290509 L8.32706203,17.6290509 C8.4192882,17.6282035 8.49384037,17.5554883 8.49420762,17.4657147 L8.49420762,17.4657147 L8.49423057,15.4836274 C9.00911794,15.2270391 9.36558195,14.7122793 9.36427721,14.108727 C9.36427721,13.2551645 8.65375568,12.5608798 7.77733163,12.5608798 Z" id="path-3"></path>
        <filter x="-22.2%" y="-12.2%" width="144.3%" height="134.1%" filterUnits="objectBoundingBox" id="filter-4">
            <feOffset dx="0" dy="1" in="SourceAlpha" result="shadowOffsetOuter1"></feOffset>
            <feGaussianBlur stdDeviation="1" in="shadowOffsetOuter1" result="shadowBlurOuter1"></feGaussianBlur>
            <feColorMatrix values="0 0 0 0 0   0 0 0 0 0   0 0 0 0 0  0 0 0 0.253623188 0" type="matrix" in="shadowBlurOuter1"></feColorMatrix>
        </filter>
    </defs>
    <g id="复购流程" stroke="none" stroke-width="1" fill="none" fill-rule="evenodd">
        <g id="扫码进入推新" transform="translate(-168.000000, -99.000000)">
            <g id="编组" transform="translate(33.000000, 99.000000)">
                <g id="分组" transform="translate(135.000000, 0.000000)">
                    <g id="分组-3" stroke="url(#linearGradient-1)" stroke-width="3.6">
                        <circle id="椭圆形" cx="20" cy="20" r="18.2"></circle>
                    </g>
                    <g id="jiesuo" transform="translate(12.368421, 8.947368)">
                        <g id="合并形状">
                            <use fill="black" fill-opacity="1" filter="url(#filter-4)" xlink:href="#path-3"></use>
                            <use fill="url(#linearGradient-2)" fill-rule="evenodd" xlink:href="#path-3"></use>
                        </g>
                    </g>
                </g>
            </g>
        </g>
    </g>
</svg>
