<?xml version="1.0" encoding="UTF-8"?>
<svg width="20Px" height="20Px" viewBox="0 0 20 20" version="1.1" xmlns="http://www.w3.org/2000/svg" xmlns:xlink="http://www.w3.org/1999/xlink">
    <!-- Generator: Sketch 61.1 (89650) - https://sketch.com -->
    <title>list_icon_finish</title>
    <desc>Created with Sketch.</desc>
    <g id="1.20-UI" stroke="none" stroke-width="1" fill="none" fill-rule="evenodd">
        <g id="单日计划列表长备份" transform="translate(-309.000000, -408.000000)" fill="#525252">
            <g id="编组-2" transform="translate(23.000000, 368.000000)">
                <g id="list_icon_finish" transform="translate(286.000000, 40.000000)">
                    <path d="M8.33726339,20 C7.89441189,20.002584 7.46876242,19.8251906 7.15434,19.506977 L0.48998291,12.7070527 C-0.163327637,12.0404524 -0.163327637,10.9596798 0.48998291,10.2930796 C1.14329346,9.62647929 2.20251914,9.62647929 2.85582968,10.2930796 L8.15399357,15.7160192 L17.0009276,3.68015315 C17.3580459,3.19420933 17.942129,2.93959232 18.533133,3.01222493 C19.1241371,3.08485755 19.6322622,3.47370364 19.8660805,4.03227178 C20.0998988,4.59083992 20.0238829,5.23425865 19.6666705,5.72013045 L9.67013481,19.3199791 C9.38083611,19.716221 8.93689053,19.9644272 8.45388965,20 L8.33726339,20 Z" id="路径"></path>
                </g>
            </g>
        </g>
    </g>
</svg>
