<?xml version="1.0" encoding="UTF-8"?>
<svg width="20Px" height="20Px" viewBox="0 0 20 20" version="1.1" xmlns="http://www.w3.org/2000/svg" xmlns:xlink="http://www.w3.org/1999/xlink">
    <!-- Generator: Sketch 61.1 (89650) - https://sketch.com -->
    <title>list_btn_question</title>
    <desc>Created with Sketch.</desc>
    <g id="1.20-UI" stroke="none" stroke-width="1" fill="none" fill-rule="evenodd">
        <g id="单日计划列表长备份" transform="translate(-333.000000, -159.000000)" fill="#231916">
            <g id="list_btn_question" transform="translate(333.000000, 159.000000)">
                <path d="M16.2381429,3.28330238 C18.0185463,4.99638272 18.999122,7.299272 18.999122,9.76900551 C18.999122,11.7316204 18.3785786,13.58886 17.2018878,15.1570493 L17.2018878,17.6223922 C17.2018878,18.2495215 16.6918421,18.7595672 16.0647127,18.7595672 L10.1819904,18.7595672 C10.1014954,18.7661532 10.0510031,18.7690803 9.99977898,18.7690803 C9.94855488,18.7690803 9.89806255,18.7661532 9.84757022,18.7617626 L9.40631116,18.7390776 C4.76613927,18.4346601 1.08019922,14.5745581 1.00116775,9.92194604 C0.920672733,5.06736469 4.7976055,0.965045866 9.64267381,0.776980234 C12.1277745,0.674532029 14.459203,1.57168559 16.2381429,3.28330238 Z M9.69975209,2.23906247 C5.64280319,2.39639364 2.39665865,5.83206736 2.46471353,9.89779753 C2.53057309,13.8113189 5.64646206,17.0545364 9.55778815,17.281386 L9.66462699,17.2960215 L15.738342,17.2960215 L15.738342,14.6513942 L15.8971367,14.4516202 C16.9684522,13.1036946 17.5355762,11.4842812 17.5355762,9.76900551 C17.5355762,7.70101532 16.714527,5.77206198 15.2239056,4.33778712 C13.7332843,2.90424402 11.758961,2.1680805 9.69975209,2.23906247 Z M10.2407518,12.7444673 C10.5034583,12.7444673 10.7295761,12.8191081 10.9044698,12.9947336 C11.0800953,13.1579189 11.1671763,13.3708648 11.1671763,13.6343031 C11.1671763,13.8970096 11.0676552,14.1099555 10.8920297,14.285581 C10.7164042,14.4480345 10.4917499,14.5358473 10.2407518,14.5358473 C9.98975369,14.5358473 9.76436764,14.4480345 9.58874215,14.2731408 C9.41384843,14.0975153 9.32603568,13.8845694 9.32603568,13.6343031 C9.32603568,13.3708648 9.41384843,13.1579189 9.58874215,12.9947336 C9.76436764,12.8191081 9.98975369,12.7444673 10.2407518,12.7444673 Z M10.4661378,5.41502999 C11.2681609,5.41502999 11.9194388,5.62870767 12.4207032,6.07947977 C12.9219677,6.51781173 13.172234,7.11932905 13.172234,7.87085981 C13.172234,8.48481726 13.0097804,8.99852183 12.6958498,9.3988016 C12.5831568,9.53710668 12.2326376,9.86274561 11.6442922,10.3764502 C11.406466,10.576956 11.2301087,10.802342 11.1174157,11.0277281 C10.9798424,11.2787262 10.9176417,11.5538728 10.9176417,11.8546314 L10.9176417,12.0675773 L9.57703378,12.0675773 L9.57703378,11.8546314 C9.57703378,11.3914192 9.65167461,10.9904076 9.82730011,10.6647687 C9.98975369,10.3135177 10.4661378,9.79981314 11.2432807,9.11121485 L11.4562266,8.87338867 C11.6816126,8.58507015 11.806014,8.28431149 11.806014,7.95867255 C11.806014,7.52034059 11.6816126,7.18152974 11.4430546,6.93126342 C11.1927883,6.68099709 10.8290972,6.55513215 10.3783251,6.55513215 C9.81485997,6.55513215 9.40067651,6.73075764 9.15114196,7.09444877 C8.92502413,7.39447565 8.81306288,7.82036748 8.81306288,8.37212424 L7.49733523,8.37212424 C7.49733523,7.45740812 7.76004169,6.74319778 8.2861864,6.21705307 C8.81306288,5.67846823 9.53898159,5.41502999 10.4661378,5.41502999 Z" id="形状结合"></path>
            </g>
        </g>
    </g>
</svg>
