<?xml version="1.0" encoding="UTF-8"?>
<svg width="12Px" height="12Px" viewBox="0 0 12 12" version="1.1" xmlns="http://www.w3.org/2000/svg" xmlns:xlink="http://www.w3.org/1999/xlink">
    <!-- Generator: Sketch 61.1 (89650) - https://sketch.com -->
    <title>list_icon_solve</title>
    <desc>Created with Sketch.</desc>
    <g id="Q&amp;A" stroke="none" stroke-width="1" fill="none" fill-rule="evenodd">
        <g id="问题列表备份" transform="translate(-281.000000, -668.000000)">
            <g id="编组-14" transform="translate(0.000000, 552.000000)">
                <g id="解决" transform="translate(281.000000, 116.000000)">
                    <g id="list_icon_solve">
                        <path d="M6.23773476,0.00460133062 C9.45112937,0.128867458 12.0522212,2.88715065 11.998585,6.10160736 C11.9460108,9.25021364 9.46652987,11.8008556 6.35137985,11.9819442 C6.33279304,11.9851305 6.31579938,11.9930963 6.29615046,11.9930963 L6.13205545,11.9930963 C6.08744709,11.9941584 6.0444319,12 5.99982354,12 C5.95521519,12 5.91166894,11.9941584 5.86759164,11.9930963 L1.59793495,11.9930963 C1.43543309,11.9930963 1.30426329,11.8613955 1.30426329,11.6988936 L1.30426329,9.72816028 C0.489629785,8.70429236 0,7.41011906 0,5.99964541 C0,2.60728633 2.81563679,-0.127630574 6.23773476,0.00460133062 Z" id="Fill-1" fill="#5F5F5F"></path>
                        <path d="M6.22051369,4.44829334 L5.36583305,6.54444069 L7.07519432,6.54444069 L6.22051369,4.44829334 Z M3,9 L5.48293342,3 L6.94896925,3 L9.43190267,9 L7.93899966,9 L7.35400473,7.61456573 L5.07789794,7.61456573 L4.49340994,9 L3,9 Z" id="Fill-3" fill="#FEFEFE"></path>
                    </g>
                </g>
            </g>
        </g>
    </g>
</svg>
