<?xml version="1.0" encoding="UTF-8"?>
<svg width="21Px" height="20Px" viewBox="0 0 21 20" version="1.1" xmlns="http://www.w3.org/2000/svg" xmlns:xlink="http://www.w3.org/1999/xlink">
    <!-- Generator: Sketch 61.1 (89650) - https://sketch.com -->
    <title>list_icon_unfinished</title>
    <desc>Created with Sketch.</desc>
    <g id="1.20-UI" stroke="none" stroke-width="1" fill="none" fill-rule="evenodd">
        <g id="单日计划列表长备份" transform="translate(-309.000000, -528.000000)" fill="#FA7272">
            <g id="编组-6" transform="translate(23.000000, 488.000000)">
                <g id="list_icon_unfinished" transform="translate(296.000000, 50.000000) scale(-1, 1) rotate(-270.000000) translate(-296.000000, -50.000000) translate(285.500000, 39.500000)">
                    <path d="M2.68388082,19.8829411 C2.26511148,19.8853483 1.86260873,19.7218905 1.56528452,19.4286752 C1.26702476,19.1345511 1.09925788,18.734177 1.09925788,18.3165069 C1.09925788,17.8988367 1.26702476,17.4984626 1.56528452,17.2043385 L8.37139155,10.4843357 L1.69132355,3.74866848 C1.24467819,3.36262275 1.05330482,2.76027126 1.19585666,2.18917664 C1.3384085,1.61808202 1.79083673,1.17458927 2.36719624,1.04097108 C2.94355574,0.90735289 3.5466133,1.10615096 3.92851613,1.55566056 L10.5613195,8.2286704 L17.3201619,1.53999621 C17.9379456,0.925762616 18.9395708,0.925762616 19.5573545,1.53999621 C20.1751382,2.15422981 20.1751382,3.15009923 19.5573545,3.76433283 L12.814267,10.4843357 L19.5573545,17.2513316 C20.0039998,17.6373773 20.1953732,18.2397288 20.0528213,18.8108234 C19.9102695,19.381918 19.4578413,19.8254107 18.8814818,19.9590289 C18.3051223,20.0926471 17.7020648,19.8938491 17.3201619,19.4443395 L10.5613195,12.6773436 L3.80247712,19.4286752 C3.50515291,19.7218905 3.10265016,19.8853483 2.68388082,19.8829411 L2.68388082,19.8829411 Z" id="路径"></path>
                </g>
            </g>
        </g>
    </g>
</svg>
