<?xml version="1.0" encoding="UTF-8"?>
<svg width="59Px" height="26Px" viewBox="0 0 59 26" version="1.1" xmlns="http://www.w3.org/2000/svg" xmlns:xlink="http://www.w3.org/1999/xlink">
    <!-- Generator: Sketch 61.1 (89650) - https://sketch.com -->
    <title>mdpi/list_pic_logo</title>
    <desc>Created with Sketch.</desc>
    <defs>
        <polygon id="path-1" points="0.0201408451 0.116267606 3.39025352 0.116267606 3.39025352 4.76056338 0.0201408451 4.76056338"></polygon>
        <polygon id="path-3" points="0.254726761 0.116267606 3.62483944 0.116267606 3.62483944 4.76056338 0.254726761 4.76056338"></polygon>
        <polygon id="path-5" points="0.241616901 0.295667606 18.6145352 0.295667606 18.6145352 16.9276113 0.241616901 16.9276113"></polygon>
    </defs>
    <g id="Q&amp;A" stroke="none" stroke-width="1" fill="none" fill-rule="evenodd">
        <g id="问题列表状态长" transform="translate(-158.000000, -1331.000000)">
            <g id="编组" transform="translate(158.000000, 1331.000000)">
                <polygon id="Fill-1" fill="#231916" points="1.62250986 21.1400141 1.62250986 25.624831 4.11081972 25.624831 4.11081972 25.1956479 2.13225634 25.1956479 2.13225634 21.1400141"></polygon>
                <polygon id="Fill-2" fill="#231916" points="7.02585915 25.624831 7.53340845 25.624831 7.53340845 21.1400141 7.02585915 21.1400141"></polygon>
                <g transform="translate(0.000000, 0.070859)">
                    <g transform="translate(10.619718, 20.873239)">
                        <mask id="mask-2" fill="white">
                            <use xlink:href="#path-1"></use>
                        </mask>
                        <g id="Clip-4"></g>
                        <path d="M0.0201408451,2.43832394 C0.0201408451,0.998070423 0.873014085,0.116267606 2.05509859,0.116267606 C2.67287324,0.116267606 3.07788732,0.398239437 3.33605634,0.661169014 L3.05408451,0.99184507 C2.82667606,0.752352113 2.53188732,0.562661972 2.0675493,0.562661972 C1.13521127,0.562661972 0.540873239,1.2738169 0.540873239,2.42587324 C0.540873239,3.58415493 1.09383099,4.31215493 2.0675493,4.31215493 C2.40371831,4.31215493 2.73439437,4.20961972 2.91859155,4.0305493 L2.91859155,2.80525352 L1.94450704,2.80525352 L1.94450704,2.38266197 L3.39025352,2.38266197 L3.39025352,4.24550704 C3.10315493,4.54542254 2.61867606,4.76074648 2.01884507,4.76074648 C0.842253521,4.76074648 0.0201408451,3.88956338 0.0201408451,2.43832394" id="Fill-3" fill="#231916" mask="url(#mask-2)"></path>
                    </g>
                    <polygon id="Fill-5" fill="#231916" points="17.2121099 21.0693014 17.7200254 21.0693014 17.7200254 22.9684 19.8831521 22.9684 19.8831521 21.0693014 20.3852085 21.0693014 20.3852085 25.5541183 19.8831521 25.5541183 19.8831521 23.4093014 17.7200254 23.4093014 17.7200254 25.5541183 17.2121099 25.5541183"></polygon>
                    <polygon id="Fill-7" fill="#231916" points="24.6898197 21.4973859 23.323538 21.4973859 23.323538 21.0693014 26.5779324 21.0693014 26.5779324 21.4973859 25.204693 21.4973859 25.204693 25.5541183 24.6898197 25.5541183"></polygon>
                    <polygon id="Fill-9" fill="#231916" points="29.5108056 21.0693014 32.0642986 21.0693014 32.0642986 21.4973859 30.0187211 21.4973859 30.0187211 22.973893 31.7409465 22.973893 31.7409465 23.4038085 30.0187211 23.4038085 30.0187211 25.1249352 32.1327775 25.1249352 32.1327775 25.5541183 29.5108056 25.5541183"></polygon>
                    <path d="M35.716493,23.2014113 L36.5008873,23.2014113 C37.2233944,23.2014113 37.6210845,22.9132141 37.6210845,22.3122845 C37.6210845,21.6996366 37.2233944,21.4795521 36.5008873,21.4795521 L35.716493,21.4795521 L35.716493,23.2014113 Z M37.6771127,25.5542282 L36.5547183,23.6170451 L35.716493,23.6170451 L35.716493,25.5542282 L35.2067465,25.5542282 L35.2067465,21.0694113 L36.5799859,21.0694113 C37.4929155,21.0694113 38.1286338,21.3934958 38.1286338,22.3122845 C38.1286338,23.0172141 37.718493,23.4273549 37.0879014,23.5683408 L38.2461831,25.5542282 L37.6771127,25.5542282 Z" id="Fill-11" fill="#231916"></path>
                    <g transform="translate(40.647887, 20.873239)">
                        <mask id="mask-4" fill="white">
                            <use xlink:href="#path-3"></use>
                        </mask>
                        <g id="Clip-14"></g>
                        <path d="M0.254726761,2.43832394 C0.254726761,0.998070423 1.10576901,0.116267606 2.28785352,0.116267606 C2.90745915,0.116267606 3.31247324,0.398239437 3.56881127,0.661169014 L3.28683944,0.99184507 C3.06089577,0.752352113 2.76647324,0.562661972 2.30030423,0.562661972 C1.36979718,0.562661972 0.775092958,1.2738169 0.775092958,2.42587324 C0.775092958,3.58415493 1.32621972,4.31215493 2.30030423,4.31215493 C2.63830423,4.31215493 2.96898028,4.20961972 3.15317746,4.0305493 L3.15317746,2.80525352 L2.17726197,2.80525352 L2.17726197,2.38266197 L3.62483944,2.38266197 L3.62483944,4.24550704 C3.33554366,4.54542254 2.85143099,4.76074648 2.2512338,4.76074648 C1.07500845,4.76074648 0.254726761,3.88956338 0.254726761,2.43832394" id="Fill-13" fill="#231916" mask="url(#mask-4)"></path>
                    </g>
                    <path d="M48.1975915,23.7961155 L46.8496197,21.0694113 L47.3879296,21.0694113 L47.9881268,22.3675803 C48.1419296,22.6989887 48.2770563,23.0117211 48.4414789,23.3478901 L48.4667465,23.3478901 C48.6260423,23.0117211 48.7794789,22.6989887 48.9204648,22.3675803 L49.5257887,21.0694113 L50.0479859,21.0694113 L48.7000141,23.7961155 L48.7000141,25.5542282 L48.1975915,25.5542282 L48.1975915,23.7961155 Z" id="Fill-15" fill="#231916"></path>
                    <path d="M52.7965155,21.0693014 L53.4219803,21.0693014 L54.3034169,23.5191606 C54.4140085,23.8384845 54.5187408,24.1574423 54.6289662,24.4756676 L54.6597268,24.4756676 C54.7699521,24.1574423 54.8673606,23.8384845 54.972093,23.5191606 L55.848769,21.0693014 L56.4720366,21.0693014 L56.4720366,25.5541183 L56.0003746,25.5541183 L56.0003746,22.9621746 C56.0003746,22.5816958 56.0384592,22.0558366 56.0618958,21.6636394 L56.0384592,21.6636394 L55.6825155,22.6798366 L54.8058394,25.0941746 L54.4572197,25.0941746 L53.5754169,22.6798366 L53.2194732,21.6636394 L53.1942056,21.6636394 C53.2194732,22.0558366 53.2557268,22.5816958 53.2557268,22.9621746 L53.2557268,25.5541183 L52.7965155,25.5541183 L52.7965155,21.0693014 Z" id="Fill-17" fill="#231916"></path>
                    <path d="M6.89922817,11.1566 L4.37942535,11.498262 L4.37942535,8.88874085 L6.51252394,8.88874085 L6.51252394,7.70482535 L4.37942535,7.69164225 L4.37942535,5.21944507 L3.19587606,5.21944507 L3.19587606,7.68468451 L1.5912,7.67443099 C2.08190423,5.98479718 2.47666479,4.39000845 2.87618592,2.47369859 L6.89739718,2.47369859 L6.89739718,1.2894169 L3.11531268,1.2894169 C3.14973521,1.10998028 3.18489014,0.936769014 3.22004507,0.752571831 L2.05627042,0.529191549 C2.00573521,0.790290141 1.95703099,1.03967042 1.90722817,1.2894169 L0.298157746,1.2894169 L0.298157746,2.47369859 L1.66590423,2.47369859 C1.29055211,4.25451549 0.9152,5.75629014 0.454157746,7.34375493 C0.347594366,7.70885352 0.4212,8.10727606 0.647876056,8.40536056 C0.874552113,8.70783944 1.23598873,8.88874085 1.61353803,8.88874085 L3.19587606,8.88874085 L3.19587606,11.6590225 L7.32394366e-05,12.0926 L0.159002817,13.2655296 L3.19587606,12.8535577 L3.19587606,17.1640648 L4.37942535,17.1640648 L4.37942535,12.692431 L7.05852394,12.3291634 L6.89922817,11.1566 Z" id="Fill-19" fill="#231916"></path>
                    <path d="M15.3274761,3.03302817 C15.6248282,2.743 15.7160113,2.30759155 15.5589127,1.9245493 C15.4021803,1.54040845 15.0337859,1.29285915 14.6207155,1.29285915 L9.33356056,1.29285915 L9.33356056,2.47714085 L14.1951944,2.47714085 C12.8966592,3.69694366 10.5529972,5.64694366 7.70618028,6.89384507 L8.18113803,7.97815493 C9.86015211,7.24246479 11.3637577,6.28119718 12.6058986,5.35142254 L16.9665746,8.17773239 L17.6096169,7.18387324 L13.5898704,4.57911268 C14.3010254,3.99429577 14.8971944,3.45159155 15.3274761,3.03302817" id="Fill-21" fill="#231916"></path>
                    <polygon id="Fill-23" fill="#231916" points="13.1524479 10.5475775 15.8857437 10.5475775 15.8857437 9.36402817 9.2378 9.36402817 9.2378 10.5475775 11.9692648 10.5475775 11.9692648 15.7435493 7.96746197 15.7435493 7.96746197 16.9274648 17.1560817 16.9274648 17.1560817 15.7435493 13.1524479 15.7435493"></polygon>
                    <path d="M22.2780817,0.517583099 C21.7767577,2.87479437 21.2772648,4.24656901 20.2749831,6.61806197 L21.3666169,7.07910423 C21.4768423,6.81690704 21.5790113,6.57192113 21.6782507,6.33096338 L21.6782507,17.1641746 L22.8618,17.1641746 L22.8618,3.06192113 C23.067969,2.3635831 23.2521662,1.62972394 23.4363634,0.7644 L22.2780817,0.517583099 Z" id="Fill-25" fill="#231916"></path>
                    <path d="M27.3794282,13.0340563 L26.6755972,11.8549014 C27.0981887,10.3941408 27.4669493,8.98098592 27.8393718,7.46859155 C27.9287239,7.10422535 27.8474282,6.72740845 27.6189211,6.43628169 C27.3893155,6.14112676 27.0425268,5.97230986 26.6668085,5.97230986 L25.7469211,5.97230986 L27.5387239,2.44216901 C27.6599352,2.19278873 27.6452873,1.90422535 27.4988085,1.66876056 C27.3515972,1.43366197 27.0981887,1.29340845 26.8220761,1.29340845 L24.0825549,1.29340845 L24.0825549,2.47805634 L26.1933155,2.47805634 L24.2543014,6.29566197 C24.1612873,6.47912676 24.1689775,6.69847887 24.277738,6.87388732 C24.3850338,7.04892958 24.5761887,7.15549296 24.7816254,7.15549296 L26.6898789,7.18442254 C25.8941324,10.4139155 25.1287803,13.1761408 23.7709211,16.9644507 L24.8856254,17.3636056 C25.4026958,15.9200563 25.8351746,14.6244507 26.2156535,13.395493 L26.363231,13.6412113 C27.5746113,15.6688451 29.7955972,16.9274648 32.1564704,16.9274648 L38.3942732,16.9274648 L38.3942732,15.7435493 L32.1564704,15.7435493 C30.2094,15.7435493 28.3787803,14.7053803 27.3794282,13.0340563" id="Fill-27" fill="#231916"></path>
                    <path d="M33.4746338,2.49266761 L35.5095915,2.50072394 L35.5095915,3.99187887 L33.4746338,3.99187887 L33.4746338,2.49266761 Z M33.4746338,6.69038592 L35.5095915,6.69038592 L35.5095915,5.17506197 L33.4746338,5.17506197 L33.4746338,6.69038592 Z M32.2910845,6.69038592 L28.8821549,6.69038592 L28.8821549,7.87393521 L32.2910845,7.87393521 L32.2910845,9.38925915 L29.3029155,9.38925915 L29.3029155,10.5728085 L32.2910845,10.5728085 L32.2910845,12.0870338 L28.8587183,12.0870338 L28.8587183,13.2709493 L32.2910845,13.2709493 L32.2910845,14.8510901 L33.4746338,14.8510901 L33.4746338,13.2709493 L37.0465211,13.2709493 L37.0465211,12.0870338 L33.4746338,12.0870338 L33.4746338,10.5728085 L36.6814225,10.5728085 L36.6814225,9.38925915 L33.4746338,9.38925915 L33.4746338,7.87393521 L36.6931408,7.87393521 L36.6931408,5.17506197 L37.8884085,5.17506197 L37.8884085,3.99187887 L36.6931408,3.99187887 L36.6931408,2.50072394 C36.6931408,1.83497746 36.151169,1.29300563 35.4850563,1.29300563 L33.4746338,1.29300563 L33.4746338,0.640442254 L32.2910845,0.640442254 L32.2910845,1.29300563 L29.4420704,1.29300563 L29.4420704,2.47728732 L32.2910845,2.48790704 L32.2910845,3.99187887 L28.4591972,3.99187887 L28.4591972,5.17506197 L32.2910845,5.17506197 L32.2910845,6.69038592 Z" id="Fill-29" fill="#231916"></path>
                    <g transform="translate(40.281690, 0.000000)">
                        <mask id="mask-6" fill="white">
                            <use xlink:href="#path-5"></use>
                        </mask>
                        <g id="Clip-32"></g>
                        <path d="M3.4264338,8.40620282 L12.6088282,8.40620282 L12.6088282,7.22301972 L3.4264338,7.22301972 L3.4264338,5.74797746 L13.5737577,5.74797746 L13.5737577,4.56442817 L3.4264338,4.56442817 L3.4264338,2.47747042 L14.629138,2.47747042 C14.868631,2.47747042 15.0638141,2.67155493 15.0638141,2.91104789 L15.0638141,10.1320901 L3.4264338,10.1320901 L3.4264338,8.40620282 Z M18.6148282,9.34330141 L17.9443211,8.36775211 C17.3866028,8.74932958 16.8182648,9.11186479 16.2473634,9.46854085 L16.2473634,2.91104789 C16.2473634,2.01935775 15.5219268,1.29282254 14.629138,1.29282254 L7.4571662,1.29282254 L7.6772507,0.985583099 L6.7159831,0.295667606 L6.0004338,1.29282254 L2.24288451,1.29282254 L2.24288451,10.1320901 L0.241616901,10.1320901 L0.241616901,11.3156394 L12.9918704,11.3156394 C9.06770141,13.346569 4.88829296,14.8131887 0.495391549,15.6649634 L0.720969014,16.826907 C5.79975775,15.842569 10.6049972,14.0613859 15.0638141,11.5430479 L15.0638141,15.3093859 C15.0638141,15.5485127 14.868631,15.7436958 14.629138,15.7436958 L11.8280958,15.7436958 L11.8280958,16.9276113 L14.629138,16.9276113 C15.5219268,16.9276113 16.2473634,16.2018085 16.2473634,15.3093859 L16.2473634,10.8575268 C17.0467718,10.3748789 17.8384901,9.87538592 18.6148282,9.34330141 L18.6148282,9.34330141 Z" id="Fill-31" fill="#231916" mask="url(#mask-6)"></path>
                    </g>
                </g>
            </g>
        </g>
    </g>
</svg>
