<?xml version="1.0" encoding="UTF-8"?>
<svg width="42Px" height="42Px" viewBox="0 0 42 42" version="1.1" xmlns="http://www.w3.org/2000/svg" xmlns:xlink="http://www.w3.org/1999/xlink">
    <!-- Generator: Sketch 61.1 (89650) - https://sketch.com -->
    <title>list_btn_add</title>
    <desc>Created with Sketch.</desc>
    <g id="Q&amp;A" stroke="none" stroke-width="1" fill="none" fill-rule="evenodd">
        <g id="问题列表备份" transform="translate(-310.000000, -631.000000)">
            <g id="list_btn_add" transform="translate(310.000000, 632.000000)">
                <g id="编组-5" transform="translate(1.000000, 0.000000)" fill="#FFFFFF" fill-opacity="0.75" stroke="#5F5F5F">
                    <circle id="椭圆形" cx="20" cy="20" r="20"></circle>
                </g>
                <g id="plus-0" transform="translate(14.600000, 13.600000)" fill="#5F5F5F" fill-rule="nonzero">
                    <path d="M6.4,0 C6.84168805,0 7.20001071,0.35833694 7.20001071,0.800824657 L7.20001071,0.800824657 L7.2,5.6 L12.0000178,5.60000357 C12.406939,5.60000357 12.7442749,5.90531992 12.7937649,6.29968005 L12.8000143,6.4 C12.8000143,6.84167377 12.4416916,7.19999643 12.0000178,7.19999643 L12.0000178,7.19999643 L7.2,7.199 L7.20001071,12 C7.20001071,12.4069113 6.89468219,12.7442585 6.50032019,12.7937504 L6.4,12.8 C5.95834051,12.8 5.60000357,12.4416773 5.60000357,12 L5.60000357,12 L5.6,7.199 L0.800410544,7.19999643 C0.391947162,7.19999643 0.0555634063,6.89468008 0.00622900238,6.50031995 L0,6.4 C0,5.95832623 0.357908547,5.60000357 0.800410544,5.60000357 L0.800410544,5.60000357 L5.6,5.6 L5.60000357,0.800824657 C5.60000357,0.392374457 5.90531992,0.0556266937 6.29968005,0.00623621052 Z" id="形状结合"></path>
                </g>
            </g>
        </g>
    </g>
</svg>
