<?xml version="1.0" encoding="UTF-8"?>
<svg width="31Px" height="31Px" viewBox="0 0 31 31" version="1.1" xmlns="http://www.w3.org/2000/svg" xmlns:xlink="http://www.w3.org/1999/xlink">
    <!-- Generator: Sketch 61.1 (89650) - https://sketch.com -->
    <title>msg_icon_submit</title>
    <desc>Created with Sketch.</desc>
    <g id="Q&amp;A" stroke="none" stroke-width="1" fill="none" fill-rule="evenodd">
        <g id="提交问题成功提示" transform="translate(-172.000000, -323.000000)" fill="#5F5F5F" fill-rule="nonzero">
            <g id="msg_icon_submit" transform="translate(172.000000, 323.000000)">
                <path d="M22.8007762,9.31258644 L7.91589678,9.31258644 C7.4606273,9.31258644 7.08876596,8.94434283 7.08876596,8.49350252 C7.08876596,8.04266221 7.4606273,7.6744186 7.91589678,7.6744186 L22.8007762,7.6744186 C23.2560456,7.6744186 23.627907,8.04266221 23.627907,8.49350252 C23.627907,8.94434283 23.259521,9.31258644 22.8007762,9.31258644 Z M18.5990906,14.7708515 L7.71085175,14.7708515 C7.25558226,14.7708515 6.88372093,14.4026079 6.88372093,13.9517676 C6.88372093,13.5009273 7.25558226,13.1326837 7.71085175,13.1326837 L18.5990906,13.1326837 C19.0543601,13.1326837 19.4262214,13.5009273 19.4262214,13.9517676 C19.4262214,14.4060494 19.0543601,14.7708515 18.5990906,14.7708515 Z M16.39225,20.2325581 L7.71085175,20.2325581 C7.25558226,20.2325581 6.88372093,19.8643145 6.88372093,19.4134742 C6.88372093,18.9626339 7.25558226,18.5943903 7.71085175,18.5943903 L16.3957253,18.5943903 C16.8509948,18.5943903 17.2228561,18.9626339 17.2228561,19.4134742 C17.2193808,19.8643145 16.8509948,20.2325581 16.39225,20.2325581 L16.39225,20.2325581 Z" id="形状"></path>
                <path d="M23.627907,30 C23.2438929,30 22.9302326,29.6184779 22.9302326,29.1513807 L22.9302326,18.2904798 C22.9302326,17.8233826 23.2438929,17.4418605 23.627907,17.4418605 C24.011921,17.4418605 24.3255814,17.8233826 24.3255814,18.2904798 L24.3255814,29.1513807 C24.3255814,29.6220435 24.011921,30 23.627907,30 L23.627907,30 Z" id="路径"></path>
                <path d="M27.0069647,22.3248987 C26.814132,22.3248987 26.6212992,22.253581 26.4690628,22.1073796 L23.6273171,19.4080032 L20.7855713,22.1073796 C20.4540343,22.4211776 19.9465797,22.3926505 19.648873,22.0467595 C19.3511663,21.6973026 19.3782306,21.1624196 19.7063846,20.8486215 L23.0386698,17.6821139 C23.3735898,17.3611841 23.8810444,17.3611841 24.2193475,17.6856798 L27.5482496,20.8486215 C27.8797866,21.1624196 27.9034678,21.7008685 27.6057611,22.0467595 C27.4467587,22.2286197 27.2268617,22.3248987 27.0069647,22.3248987 Z M23.166554,18.9698255 L23.176554,18.9798255 L23.166554,18.9698255 Z M24.1542499,18.9662596 L24.1442499,18.9762596 L24.1542499,18.9662596 Z" id="形状"></path>
                <path d="M18.6667807,29.3023256 L5.09379109,29.3023256 C3.38919371,29.3023256 2,27.9398319 2,26.2602361 L2,3.04208946 C2,1.36597831 3.38564985,0 5.09379109,0 L25.4178368,0 C27.1224342,0 28.5116279,1.36249367 28.5116279,3.04208946 L28.5116279,16.736719 C28.5116279,17.1932066 28.1324347,17.5660629 27.6681889,17.5660629 C27.203943,17.5660629 26.8247498,17.1932066 26.8247498,16.736719 L26.8247498,3.04208946 C26.8247498,2.27895361 26.1939425,1.65868795 25.4178368,1.65868795 L5.09379109,1.65868795 C4.31768542,1.65868795 3.68687808,2.27895361 3.68687808,3.04208946 L3.68687808,26.2602361 C3.68687808,27.023372 4.31768542,27.6436376 5.09379109,27.6436376 L18.6632368,27.6436376 C19.1274826,27.6436376 19.5066758,28.016494 19.5066758,28.4729816 C19.5102197,28.9294693 19.1310265,29.3023256 18.6667807,29.3023256 L18.6667807,29.3023256 Z" id="路径"></path>
            </g>
        </g>
    </g>
</svg>
