<?xml version="1.0" encoding="UTF-8"?>
<svg width="18Px" height="18Px" viewBox="0 0 18 18" version="1.1" xmlns="http://www.w3.org/2000/svg" xmlns:xlink="http://www.w3.org/1999/xlink">
    <!-- Generator: Sketch 61.1 (89650) - https://sketch.com -->
    <title>pic_icon_shot</title>
    <desc>Created with Sketch.</desc>
    <g id="Q&amp;A" stroke="none" stroke-width="1" fill="none" fill-rule="evenodd">
        <g id="相册" transform="translate(-37.000000, -158.000000)" fill="#5F5F5F" fill-rule="nonzero">
            <g id="添加照片" transform="translate(0.000000, 121.000000)">
                <g id="pic_icon_shot" transform="translate(37.000000, 37.000000)">
                    <g transform="translate(0.000000, 2.000000)" id="形状">
                        <path d="M8.84438148,3.12525 C11.351527,3.12525 13.344194,5.1465 13.344194,7.6905 C13.344194,10.233 11.351527,12.25575 8.84438148,12.25575 C6.33723595,12.25575 4.34456898,10.23375 4.34456898,7.6905 C4.34456898,5.1465 6.33723595,3.12525 8.84438148,3.12525 Z M8.84438148,11.27775 C10.7733011,11.27775 12.3797342,9.6465 12.3797342,7.6905 C12.3797342,5.733 10.7733011,4.10325 8.84438148,4.10325 C6.91621182,4.10325 5.30902879,5.73375 5.30902879,7.6905 C5.30902879,9.6465 6.91621182,11.277 8.84438148,11.277 L8.84438148,11.27775 Z M13.9869172,4.82025 C13.9869172,4.24425 14.447398,3.77775 15.0158743,3.77775 C15.5836007,3.77775 16.0440815,4.24425 16.0440815,4.82025 C16.0440815,5.397 15.5836007,5.86425 15.0158743,5.86425 C14.7410551,5.86246613 14.4782125,5.75152463 14.2852227,5.55585416 C14.092233,5.36018368 13.9849214,5.0958292 13.9869172,4.821 L13.9869172,4.82025 Z M16.0718303,1.9575 C17.1645348,1.9575 18,2.805 18,3.9135 L18,13.044 C17.99925,14.1525 17.1637848,15 16.0710804,15 L1.92741969,15 C0.899962502,15 0,14.1525 0,13.04325 L0,3.91275 C0,2.805 0.835465189,1.9575 1.92816966,1.9575 L3.85708929,1.9575 L4.30707054,0.588 C4.4353152,0.261 4.75705179,0 5.14253573,0 L12.8567143,0 C13.1777009,0 13.5639348,0.261 13.6921795,0.58725 L14.1421607,1.95675 L16.0710804,1.95675 L16.0718303,1.9575 Z M17.0355402,13.044 L17.0355402,3.91275 C17.0355402,3.3915 16.5855589,2.93475 16.0718303,2.93475 L13.4356902,2.93475 L13.2429482,2.28225 L12.792967,0.978 L5.20703304,0.978 L4.75705179,2.283 L4.56430982,2.93475 L1.92741969,2.93475 C1.4136911,2.93475 0.963709845,3.3915 0.963709845,3.91275 L0.963709845,13.04325 C0.963709845,13.56525 1.4136911,14.022 1.92741969,14.022 L16.0718303,14.022 C16.5855589,14.022 17.0355402,13.56525 17.0355402,13.04325 L17.0355402,13.044 Z"></path>
                    </g>
                </g>
            </g>
        </g>
    </g>
</svg>
