<?xml version="1.0" encoding="UTF-8"?>
<svg width="10Px" height="10Px" viewBox="0 0 10 10" version="1.1" xmlns="http://www.w3.org/2000/svg" xmlns:xlink="http://www.w3.org/1999/xlink">
    <!-- Generator: Sketch 61.1 (89650) - https://sketch.com -->
    <title>question_icon_time</title>
    <desc>Created with Sketch.</desc>
    <defs>
        <rect id="path-1" x="27" y="900" width="321" height="209"></rect>
        <filter x="-12.6%" y="-12.2%" width="125.2%" height="138.8%" filterUnits="objectBoundingBox" id="filter-2">
            <feOffset dx="0" dy="15" in="SourceAlpha" result="shadowOffsetOuter1"></feOffset>
            <feGaussianBlur stdDeviation="11" in="shadowOffsetOuter1" result="shadowBlurOuter1"></feGaussianBlur>
            <feComposite in="shadowBlurOuter1" in2="SourceAlpha" operator="out" result="shadowBlurOuter1"></feComposite>
            <feColorMatrix values="0 0 0 0 0   0 0 0 0 0   0 0 0 0 0  0 0 0 0.122732736 0" type="matrix" in="shadowBlurOuter1"></feColorMatrix>
        </filter>
    </defs>
    <g id="Q&amp;A" stroke="none" stroke-width="1" fill="none" fill-rule="evenodd">
        <g id="追问" transform="translate(-52.000000, -983.000000)">
            <g id="矩形备份-2">
                <use fill="black" fill-opacity="1" filter="url(#filter-2)" xlink:href="#path-1"></use>
                <use fill-opacity="0.7" fill="#FFFFFF" fill-rule="evenodd" xlink:href="#path-1"></use>
            </g>
            <g id="编组-3备份-5" transform="translate(52.000000, 981.000000)" fill="#5F5F5F" fill-rule="nonzero">
                <g id="question_icon_time" transform="translate(0.000000, 2.000000)">
                    <path d="M4.98046875,0.00144264915 C2.2347745,0.00144264915 0.00887784091,2.22733931 0.00887784091,4.97303356 C0.00887784091,7.71872781 2.2347745,9.94462447 4.98046875,9.94462447 C7.726163,9.94462447 9.95205966,7.71872781 9.95205966,4.97303356 C9.95205966,2.22733931 7.726163,0.00144264915 4.98046875,0.00144264915 Z M4.98046875,9.15960138 C2.67200817,9.15960138 0.793900923,7.28149414 0.793900923,4.97303356 C0.793900923,2.66457298 2.67200817,0.786354759 4.98046875,0.786354759 C7.28892933,0.786354759 9.16703658,2.664462 9.16703658,4.97303356 C9.16703658,7.28160511 7.28892933,9.15960138 4.98046875,9.15960138 Z" id="形状"></path>
                    <path d="M5.37298029,4.78992809 L5.37298029,2.09472656 C5.37298029,1.87888406 5.19631126,1.70221502 4.98046875,1.70221502 C4.76462624,1.70221502 4.58795721,1.87888406 4.58795721,2.09472656 L4.58795721,4.97303356 C4.58795721,4.98002486 4.5896218,4.98657227 4.5900657,4.99345259 C4.59062056,5.00421697 4.59184126,5.01475941 4.59328391,5.02552379 C4.59528143,5.0402832 4.59772283,5.05482067 4.60127397,5.06902521 C4.6040483,5.07990057 4.60759943,5.090443 4.61126154,5.10109641 C4.61570046,5.11374734 4.62025036,5.12628729 4.62590998,5.13838335 C4.6315696,5.15059038 4.63822798,5.16213157 4.64510831,5.17367276 C4.65087891,5.18321644 4.65653853,5.19276012 4.66308594,5.20174893 C4.67174183,5.21373402 4.68139648,5.22505327 4.69149503,5.23615057 C4.69870827,5.24402965 4.70592152,5.25168679 4.71368963,5.25901101 C4.71879439,5.26378285 4.72267844,5.2693315 4.72811612,5.27377042 L6.93303888,7.12391246 C7.0061701,7.18528054 7.09572532,7.21524325 7.18483665,7.21524325 C7.29703036,7.21524325 7.40866921,7.16763583 7.4860174,7.07552823 C7.62473366,6.91017844 7.60298295,6.66137695 7.43763317,6.52254972 L5.37298029,4.78992809 Z" id="路径"></path>
                </g>
            </g>
        </g>
    </g>
</svg>
