<?xml version="1.0" encoding="UTF-8"?>
<svg width="16Px" height="16Px" viewBox="0 0 16 16" version="1.1" xmlns="http://www.w3.org/2000/svg" xmlns:xlink="http://www.w3.org/1999/xlink">
    <!-- Generator: Sketch 61.1 (89650) - https://sketch.com -->
    <title>question_cion_q</title>
    <desc>Created with Sketch.</desc>
    <g id="Q&amp;A" stroke="none" stroke-width="1" fill="none" fill-rule="evenodd">
        <g id="问题详情" transform="translate(-48.000000, -109.000000)">
            <g id="question_cion_q" transform="translate(48.000000, 109.000000)">
                <path d="M15.7186087,7.85947826 C15.7186087,3.41495652 12.0302609,-0.167652174 7.54747826,0.00626086957 C3.33808696,0.169043478 -0.0692173913,3.78226087 0.00104347826,7.99304348 C0.0699130435,12.1175652 3.31791304,15.4587826 7.3986087,15.696 C7.42295652,15.7001739 7.44521739,15.709913 7.47095652,15.709913 L7.68591304,15.709913 C7.74434783,15.7113043 7.80069565,15.7189565 7.85913043,15.7189565 C7.91756522,15.7189565 7.9746087,15.7113043 8.03234783,15.709913 L13.6253913,15.709913 C13.8382609,15.709913 14.010087,15.538087 14.010087,15.3252174 L14.010087,12.7436522 C15.0772174,11.4017391 15.7186087,9.70713043 15.7186087,7.85947826" id="Fill-1" fill="#231916"></path>
                <path d="M7.75053913,5.28709565 C7.02636522,5.28709565 6.48932174,5.50761739 6.14010435,5.94796522 C5.7901913,6.38831304 5.61488696,7.05683478 5.61488696,7.95353043 C5.61488696,8.73544348 5.73036522,9.36918261 5.96062609,9.85474783 C6.26462609,10.488487 6.86636522,10.8057043 7.76306087,10.8057043 C8.60271304,10.8057043 9.18288696,10.5135304 9.50358261,9.92848696 C9.75053913,9.48466087 9.87436522,8.8384 9.87436522,7.9904 C9.87436522,7.21683478 9.7261913,6.58796522 9.42914783,6.10170435 C9.09245217,5.56674783 8.53245217,5.29544348 7.75053913,5.28709565 L7.75053913,5.28709565 Z M12.2931478,10.7187478 L12.2931478,12.1879652 L9.20723478,12.1879652 L8.5408,12.1879652 C7.84932174,12.1879652 7.37627826,12.1775304 7.12097391,12.1566609 C6.86636522,12.136487 6.56097391,12.0850087 6.20758261,12.0029217 C5.28584348,11.7886609 4.6061913,11.2620522 4.17071304,10.4224 C3.84166957,9.78031304 3.6768,9.01161739 3.6768,8.11422609 C3.6768,6.5504 4.06775652,5.43109565 4.84966957,4.75631304 C5.51610435,4.18866087 6.47888696,3.90483478 7.73801739,3.90483478 C8.56932174,3.90483478 9.2941913,4.04466087 9.91053913,4.32431304 C10.2973217,4.50518261 10.6145391,4.7277913 10.8614957,4.99074783 C11.1084522,5.2544 11.3060174,5.59596522 11.4541913,6.01544348 C11.6928,6.66587826 11.8124522,7.33231304 11.8124522,8.01544348 C11.8124522,9.06935652 11.5070609,9.97022609 10.8983652,10.7187478 L12.2931478,10.7187478 Z" id="Fill-3" fill="#FEFEFE"></path>
            </g>
        </g>
    </g>
</svg>
