<?xml version="1.0" encoding="UTF-8"?>
<svg width="16Px" height="16Px" viewBox="0 0 16 16" version="1.1" xmlns="http://www.w3.org/2000/svg" xmlns:xlink="http://www.w3.org/1999/xlink">
    <!-- Generator: Sketch 61.1 (89650) - https://sketch.com -->
    <title>question_icon_a</title>
    <desc>Created with Sketch.</desc>
    <g id="Q&amp;A" stroke="none" stroke-width="1" fill="none" fill-rule="evenodd">
        <g id="问题详情" transform="translate(-48.000000, -542.000000)" fill="#FA7272">
            <g id="question_icon_a" transform="translate(48.000000, 542.000000)">
                <path d="M12.8900367,12.1423138 L13.0289167,11.9675938 C13.9665167,10.7880738 14.4618767,9.37175375 14.4618767,7.87159375 C14.4618767,6.06295375 13.7437967,4.37527375 12.4394767,3.12087375 C11.1364367,1.86711375 9.41163673,1.22327375 7.60875673,1.28599375 C4.06059673,1.42359375 1.22219673,4.42839375 1.28107673,7.98423375 C1.33867673,11.4069538 4.06379673,14.2434338 7.48459673,14.4424738 L12.8900367,14.4539938 L12.8900367,12.1423138 Z M7.71179673,15.7339938 L7.51403673,15.7339938 C7.44363673,15.7339938 7.38411673,15.7243938 7.35083673,15.7160738 C3.29323673,15.4498338 0.0701967306,12.0744738 0.00107673057,8.00535375 C-0.0693232694,3.75895375 3.32139673,0.171113751 7.55883673,0.00727375114 C9.73931673,-0.0848862489 11.7713167,0.701673751 13.3271567,2.19863375 C14.8842767,3.69687375 15.7418767,5.71159375 15.7418767,7.87159375 C15.7418767,9.58871375 15.1991567,11.2123938 14.1700367,12.5832738 L14.1700367,14.7407138 C14.1700367,15.2885538 13.7239567,15.7339938 13.1754767,15.7339938 L8.00427673,15.7365538 C7.96011673,15.7397538 7.91659673,15.7423138 7.87115673,15.7423138 C7.82635673,15.7423138 7.78219673,15.7397538 7.71179673,15.7339938 L7.71179673,15.7339938 Z" id="Fill-1"></path>
                <path d="M7.97253273,5.89354575 L6.89349273,8.53994575 L9.05157273,8.53994575 L7.97253273,5.89354575 Z M3.90661273,11.6401058 L7.04133273,4.06570575 L8.89221273,4.06570575 L12.0269327,11.6401058 L10.1421327,11.6401058 L9.40357273,9.89162575 L6.52997273,9.89162575 L5.79205273,11.6401058 L3.90661273,11.6401058 Z" id="Fill-3"></path>
            </g>
        </g>
    </g>
</svg>
