<?xml version="1.0" encoding="UTF-8"?>
<svg width="16Px" height="16Px" viewBox="0 0 16 16" version="1.1" xmlns="http://www.w3.org/2000/svg" xmlns:xlink="http://www.w3.org/1999/xlink">
    <!-- Generator: Sketch 61.1 (89650) - https://sketch.com -->
    <title>question_icon_newa</title>
    <desc>Created with Sketch.</desc>
    <g id="Q&amp;A" stroke="none" stroke-width="1" fill="none" fill-rule="evenodd">
        <g id="追问" transform="translate(-44.000000, -924.000000)">
            <g id="question_icon_newa" transform="translate(44.000000, 924.000000)">
                <path d="M0,7.53177637 C0,3.27310971 3.53466667,-0.160223626 7.83066667,0.00577637359 C11.8646667,0.161776374 15.13,3.62444304 15.0626667,7.65977637 C14.9966667,11.612443 11.884,14.814443 7.97333333,15.0417764 C7.95,15.0457764 7.92866667,15.0557764 7.904,15.0557764 L7.698,15.0557764 C7.642,15.0571097 7.588,15.064443 7.532,15.064443 C7.476,15.064443 7.42133333,15.0571097 7.366,15.0557764 L2.006,15.0557764 C1.802,15.0557764 1.63733333,14.890443 1.63733333,14.686443 L1.63733333,12.212443 C0.614666667,10.9271097 0,9.30244304 0,7.53177637" id="Fill-1" fill="#FA7272" transform="translate(7.531845, 7.532222) scale(-1, 1) translate(-7.531845, -7.532222) "></path>
                <path d="M7.63833333,5.13846667 L6.51433333,7.89513333 L8.76233333,7.89513333 L7.63833333,5.13846667 Z M3.403,11.1244667 L6.66833333,3.2338 L8.59633333,3.2338 L11.8616667,11.1244667 L9.89833333,11.1244667 L9.129,9.30246667 L6.13566667,9.30246667 L5.367,11.1244667 L3.403,11.1244667 Z" id="Fill-3" fill="#FEFEFE"></path>
            </g>
        </g>
    </g>
</svg>
