<?xml version="1.0" encoding="UTF-8"?>
<svg width="24Px" height="24Px" viewBox="0 0 24 24" version="1.1" xmlns="http://www.w3.org/2000/svg" xmlns:xlink="http://www.w3.org/1999/xlink">
    <!-- Generator: Sketch 61.1 (89650) - https://sketch.com -->
    <title>set_btn_return</title>
    <desc>Created with Sketch.</desc>
    <defs>
        <filter x="-33.3%" y="-33.3%" width="166.7%" height="166.7%" filterUnits="objectBoundingBox" id="filter-1">
            <feOffset dx="0" dy="2" in="SourceAlpha" result="shadowOffsetOuter1"></feOffset>
            <feGaussianBlur stdDeviation="1" in="shadowOffsetOuter1" result="shadowBlurOuter1"></feGaussianBlur>
            <feColorMatrix values="0 0 0 0 0.747474747   0 0 0 0 0.78956229   0 0 0 0 1  0 0 0 1 0" type="matrix" in="shadowBlurOuter1" result="shadowMatrixOuter1"></feColorMatrix>
            <feMerge>
                <feMergeNode in="shadowMatrixOuter1"></feMergeNode>
                <feMergeNode in="SourceGraphic"></feMergeNode>
            </feMerge>
        </filter>
    </defs>
    <g id="计时器" stroke="none" stroke-width="1" fill="none" fill-rule="evenodd">
        <g id="设置默认时间" transform="translate(-89.000000, -247.000000)" fill="#4D64D7">
            <g id="编组" transform="translate(38.000000, 206.000000)">
                <g id="web-icon-" filter="url(#filter-1)" transform="translate(51.000000, 41.000000)">
                    <path d="M21.1616848,18.1201087 C21.1616848,18.1201087 20.9703804,18.6125 20.7160326,18.1201087 C20.7160326,18.1201087 17.8692935,9.5298913 10.93125,11.6929348 L10.93125,14.3592391 C10.93125,14.3592391 10.8203804,15.9266304 9.45298913,14.9059783 L2.63125,9.01684783 C2.63125,9.01684783 1.18451087,8.2298913 2.71929348,7.15271739 L9.6138587,1.22880435 C9.6138587,1.22880435 10.6508152,0.489673913 10.8997283,1.70163043 L10.907337,4.57880435 C10.907337,4.58097826 23.8388587,5.20054348 21.1616848,18.1201087 L21.1616848,18.1201087 Z" id="路径"></path>
                </g>
            </g>
        </g>
    </g>
</svg>
