<?xml version="1.0" encoding="UTF-8"?>
<svg width="24Px" height="24Px" viewBox="0 0 24 24" version="1.1" xmlns="http://www.w3.org/2000/svg" xmlns:xlink="http://www.w3.org/1999/xlink">
    <!-- Generator: Sketch 61.1 (89650) - https://sketch.com -->
    <title>tab_icon_question</title>
    <desc>Created with Sketch.</desc>
    <g id="组件" stroke="none" stroke-width="1" fill="none" fill-rule="evenodd">
        <g id="测试2" transform="translate(-269.000000, -10.000000)" fill="#A5A5A5">
            <g id="tab_icon_question" transform="translate(269.000000, 10.000000)">
                <path d="M19.6244743,4.07293813 C21.8005229,6.16670298 22.9990043,8.98134544 22.9990043,11.9999086 C22.9990043,14.3986601 22.2405624,16.6686196 20.8023847,18.5852955 L20.8023847,21.5984923 C20.8023847,22.3649837 20.1789955,22.9883729 19.4125041,22.9883729 L12.2225102,22.9883729 C12.1241274,22.9964224 12.0624146,23 11.9998073,23 C11.9372001,23 11.8754872,22.9964224 11.8137744,22.9910561 L11.2744578,22.96333 C5.60313657,22.5912642 1.09809873,17.8733617 1.00150471,12.1868359 C0.903121913,6.25345872 5.6415953,1.2395135 11.5633454,1.0096555 C14.6006908,0.884441028 17.4502144,1.98096205 19.6244743,4.07293813 Z M11.6331078,2.7966449 C6.6746147,2.98893855 2.7071047,7.18809532 2.79028289,12.1573211 C2.87077791,16.9405139 6.67908664,20.9044464 11.4595963,21.181707 L11.5901771,21.1995948 L19.0136066,21.1995948 L19.0136066,17.9672726 L19.207689,17.7231044 C20.5170746,16.0756397 21.2102261,14.0963566 21.2102261,11.9999086 C21.2102261,9.47236505 20.2067216,7.11475541 18.384851,5.3617528 C16.5629804,3.60964458 14.1499187,2.70988916 11.6331078,2.7966449 Z M12.2943297,15.6365841 C12.6154153,15.6365841 12.8917816,15.7278118 13.1055406,15.9424651 C13.3201939,16.1419139 13.4266262,16.4021811 13.4266262,16.7241612 C13.4266262,17.0452469 13.3049893,17.3055141 13.0903359,17.5201675 C12.8756826,17.7187219 12.6011051,17.8260486 12.2943297,17.8260486 C11.9875542,17.8260486 11.7120824,17.7187219 11.497429,17.5049629 C11.28367,17.2903095 11.1763433,17.0300423 11.1763433,16.7241612 C11.1763433,16.4021811 11.28367,16.1419139 11.497429,15.9424651 C11.7120824,15.7278118 11.9875542,15.6365841 12.2943297,15.6365841 Z M12.5698015,6.67838298 C13.5500519,6.67838298 14.3460582,6.93954459 14.9587147,7.49048827 C15.5713713,8.02622733 15.8772523,8.76141516 15.8772523,9.67995276 C15.8772523,10.4303452 15.678698,11.0582063 15.295005,11.5474372 C15.1572691,11.7164767 14.7288567,12.1144799 14.0097679,12.742341 C13.7190915,12.9874036 13.5035437,13.2628754 13.3658078,13.5383473 C13.1976626,13.8451227 13.1216396,14.181413 13.1216396,14.5490069 L13.1216396,14.8092742 L11.4831187,14.8092742 L11.4831187,14.5490069 C11.4831187,13.9828587 11.5743464,13.4927334 11.7889998,13.0947303 C11.9875542,12.6654235 12.5698015,12.0375624 13.5196427,11.1959423 L13.7799099,10.9052658 C14.0553818,10.5528765 14.2074279,10.1852826 14.2074279,9.78727945 C14.2074279,9.25154038 14.0553818,8.83743823 13.7638109,8.53155717 C13.4579299,8.2256761 13.0134185,8.07184118 12.4624748,8.07184118 C11.7737952,8.07184118 11.267571,8.28649456 10.9625843,8.73100593 C10.6862181,9.09770546 10.5493765,9.61823991 10.5493765,10.2926093 L8.94126496,10.2926093 C8.94126496,9.17462292 9.26235064,8.30169917 9.9054164,7.65863342 C10.5493765,7.00036305 11.4366105,6.67838298 12.5698015,6.67838298 Z"></path>
            </g>
        </g>
    </g>
</svg>
