<?xml version="1.0" encoding="UTF-8"?>
<svg width="24Px" height="24Px" viewBox="0 0 24 24" version="1.1" xmlns="http://www.w3.org/2000/svg" xmlns:xlink="http://www.w3.org/1999/xlink">
    <!-- Generator: Sketch 61.1 (89650) - https://sketch.com -->
    <title>tab_icon_calendar_selected</title>
    <desc>Created with Sketch.</desc>
    <g id="组件" stroke="none" stroke-width="1" fill="none" fill-rule="evenodd">
        <g id="测试2" transform="translate(-85.000000, -10.000000)" fill="#525252" fill-rule="nonzero">
            <g id="tab_icon_calendar_selected" transform="translate(85.000000, 10.000000)">
                <path d="M16.9146719,1.02440873 C17.4177469,1.02424952 17.8358663,1.4119793 17.8735969,1.91363747 L17.8760003,1.98573711 L17.8760003,3.18739759 L19.798657,3.18739759 C20.3085773,3.18739759 20.7976126,3.38996263 21.1581806,3.75053072 C21.5187487,4.1110988 21.7213138,4.60013407 21.7213138,5.11005435 L21.7213138,20.9719726 C21.7213138,21.4818929 21.5187487,21.9709282 21.1581806,22.3314963 C20.7976126,22.6920644 20.3085773,22.8946294 19.798657,22.8946294 L3.93673872,22.8946294 C2.87488471,22.8946294 2.01408196,22.0338266 2.01408196,20.9719726 L2.01408196,5.11005435 C2.01408196,4.04820034 2.87488471,3.18739759 3.93673872,3.18739759 L6.09972757,3.18739759 L6.09972757,1.98573711 C6.09740694,1.46718251 6.50678215,1.04024019 7.0249768,1.02078356 C7.54317146,1.00132694 7.98340965,1.39636888 8.01998102,1.91363747 L8.02238433,1.98573711 L8.02238433,3.18739759 L15.9533435,3.18739759 L15.9533435,1.98573711 C15.9533435,1.45481011 16.3837449,1.02440873 16.9146719,1.02440873 L16.9146719,1.02440873 Z M19.798657,8.95536788 L3.93673872,8.95536788 L3.93673872,20.9719726 L19.798657,20.9719726 L19.798657,8.95536788 Z M11.7465705,11.3615728 C12.2849144,11.3615728 12.7271254,11.4673189 13.0736843,11.6797725 C13.4154888,11.8867556 13.7014655,12.1742175 13.9066754,12.5170895 C14.1152836,12.8636484 14.2599635,13.2558704 14.3407151,13.6932748 C14.4214667,14.1306792 14.4618425,14.5714483 14.4618425,15.015582 C14.4618425,15.4529864 14.4113728,15.8903908 14.3104333,16.3277952 C14.2167486,16.7476416 14.0529498,17.1486884 13.8259238,17.5140744 C13.6093052,17.8619197 13.3157835,18.1554415 12.9679382,18.37206 C12.6180147,18.5902816 12.1907042,18.699873 11.6860068,18.699873 C11.3831883,18.699873 11.1005578,18.6575745 10.8381152,18.5734583 C10.5836152,18.4937344 10.3470589,18.3652528 10.1416327,18.1951756 C9.93780685,18.0245244 9.7697184,17.8152714 9.64702931,17.5794448 C9.51412417,17.3208413 9.42865606,17.040506 9.3946806,16.751741 L10.7573636,16.751741 C10.8044687,16.9872665 10.9121374,17.1925101 11.0803699,17.3674719 C11.2486024,17.5424336 11.4572107,17.6299145 11.7061947,17.6299145 C11.9686374,17.6299145 12.1839749,17.5544502 12.3522074,17.403041 C12.5204398,17.2511511 12.6550258,17.0665761 12.7559653,16.8473932 C12.8569048,16.6291717 12.9290044,16.3950882 12.9727448,16.1461042 C13.0164853,15.8971201 13.0453251,15.6750533 13.0587837,15.4799036 L13.0385958,15.4597157 C12.8434462,15.7423462 12.61465,15.9442252 12.3522074,16.0653526 C12.0897647,16.1864799 11.7869463,16.2470436 11.443752,16.2470436 C11.1409336,16.2470436 10.8448445,16.1811927 10.5554846,16.0499713 C10.2760499,15.9259634 10.0252026,15.7456413 9.81862642,15.5202794 C9.6308797,15.3061513 9.48992014,15.0551745 9.40477454,14.7834212 C9.31808372,14.5125951 9.27381964,14.229986 9.27355323,13.9456235 C9.27355323,13.5822414 9.33267493,13.2438538 9.44995698,12.9314221 C9.56190124,12.6279163 9.73350982,12.3499104 9.95465438,12.1138123 C10.1759511,11.8797422 10.4420694,11.6925767 10.7371757,11.5634518 C11.0399941,11.4288658 11.3764591,11.3615728 11.7465705,11.3615728 L11.7465705,11.3615728 Z M11.7869463,12.5425647 C11.6187138,12.5425647 11.4673046,12.5795759 11.3327186,12.6535982 C11.1981327,12.7276204 11.0837346,12.8251953 10.9895244,12.9463227 C10.8939797,13.0700398 10.8221158,13.2103454 10.7775515,13.3601745 C10.7306006,13.5139336 10.7067873,13.6738225 10.7068935,13.8345901 C10.7068935,14.0028225 10.7290044,14.1662484 10.7722642,14.3239062 C10.8160046,14.4825254 10.8818556,14.62336 10.9693365,14.7483327 C11.0568174,14.8728247 11.1692928,14.9732835 11.3072434,15.0511511 C11.4456747,15.1280574 11.6052552,15.1669912 11.7869463,15.1669912 C11.9820959,15.1669912 12.1503284,15.1319027 12.2916437,15.0612451 C12.432959,14.9901068 12.5507217,14.8944546 12.6449319,14.7733272 C12.739142,14.6521999 12.8097997,14.5123266 12.8569048,14.3546687 C12.9040099,14.1960495 12.9275624,14.0297397 12.9275624,13.854778 C12.9275624,13.6932748 12.9025679,13.5332136 12.8520981,13.3750751 C12.8040222,13.2217648 12.7288062,13.0783335 12.6300313,12.9516099 C12.5332655,12.8277028 12.4109731,12.7260656 12.2714558,12.6535982 C12.1214582,12.5775345 11.955098,12.5394103 11.7869463,12.5425647 L11.7869463,12.5425647 Z M19.798657,5.11005435 L3.93673872,5.11005435 L3.93673872,7.0327111 L19.798657,7.0327111 L19.798657,5.11005435 Z" id="形状"></path>
            </g>
        </g>
    </g>
</svg>
