<?xml version="1.0" encoding="UTF-8"?>
<svg width="66Px" height="66Px" viewBox="0 0 66 66" version="1.1" xmlns="http://www.w3.org/2000/svg" xmlns:xlink="http://www.w3.org/1999/xlink">
    <!-- Generator: Sketch 61.1 (89650) - https://sketch.com -->
    <title>timing_btn_reset_disable</title>
    <desc>Created with Sketch.</desc>
<!--    <defs>-->
        <linearGradient x1="86.8852459%" y1="83.6065574%" x2="15.5737705%" y2="13.1147541%" id="linearGradient-1">
            <stop stop-color="#849DED" offset="0%"></stop>
            <stop stop-color="#4D64D7" offset="100%"></stop>
        </linearGradient>
        <linearGradient x1="86.8050907%" y1="83.6065574%" x2="15.648582%" y2="13.1147541%" id="linearGradient-2">
            <stop stop-color="#849DED" offset="0%"></stop>
            <stop stop-color="#4D64D7" offset="100%"></stop>
        </linearGradient>
<!--    </defs>-->
<!--    <g id="计时器" stroke="none" stroke-width="1" fill="none" fill-rule="evenodd">-->
<!--        <g id="自定义计时未开始" transform="translate(-91.000000, -503.000000)" fill-rule="nonzero">-->
<!--            <g id="编组" transform="translate(38.000000, 206.000000)">-->
<!--                <g id="bofang-2-copy" transform="translate(53.000000, 297.000000)">-->
                    <path d="M32.9339597,1 C16.4271141,1 3,14.4271141 3,30.9339597 C3,47.4408054 16.4271141,60.8679195 32.9339597,60.8679195 C49.4408054,60.8679195 62.8679195,47.4408054 62.8679195,30.9339597 C62.8679195,14.4271141 49.4408054,1 32.9339597,1 Z M32.9339597,56.5726174 C18.7981208,56.5726174 7.29530201,45.0697987 7.29530201,30.9339597 C7.29530201,16.7981208 18.7981208,5.29530201 32.9339597,5.29530201 C47.0697987,5.29530201 58.5726174,16.7981208 58.5726174,30.9339597 C58.5726174,45.0697987 47.0697987,56.5726174 32.9339597,56.5726174 Z" id="形状" fill="url(#linearGradient-1)"></path>
                    <g id="shuaxin" transform="translate(22.000000, 20.000000)" fill="url(#linearGradient-2)">
                        <path d="M15.9053765,5.08994582 C12.7877528,2.22816071 7.94213369,2.43755962 5.08280517,5.5578619 C2.82530461,8.02153056 2.422364,11.6666227 4.08836843,14.5646002 C6.20638955,18.2277886 10.8866996,19.484182 14.5493264,17.3669264 C16.2747388,16.3690501 17.5455514,14.7378067 18.0879715,12.8170241 C18.3178543,12.002695 19.1650627,11.5296086 19.9786928,11.7596889 C20.7923228,11.9897692 21.2650032,12.8377055 21.0351204,13.6520346 C19.423358,19.3523383 13.5006477,22.6665284 7.80265425,21.0533813 C2.10724379,19.4402341 -1.20410143,13.5124353 0.407660983,7.80954648 C2.0194234,2.10665763 7.94213369,-1.20494736 13.6401271,0.408199803 C15.2983827,0.878701059 16.8197417,1.73956325 18.0724738,2.9235719 L20.131087,0.863190029 C20.4307095,0.563310108 20.9137216,0.563310108 21.2133441,0.860604857 C21.3579895,1.00537447 21.438061,1.19926235 21.438061,1.40349092 L21.438061,7.98275299 C21.438061,8.40672115 21.0945283,8.74796382 20.673507,8.74796382 L14.0973097,8.74796382 C13.6737055,8.74796382 13.3327558,8.40413598 13.3327558,7.98016782 C13.3327558,7.77852442 13.4128273,7.58463654 13.5548897,7.43986692 L15.9053765,5.08994582 Z" id="路径"></path>
                    </g>
<!--                </g>-->
<!--            </g>-->
<!--        </g>-->
<!--    </g>-->
</svg>
