<?xml version="1.0" encoding="UTF-8"?>
<svg width="24Px" height="24px" viewBox="0 0 24 24" version="1.1" xmlns="http://www.w3.org/2000/svg" xmlns:xlink="http://www.w3.org/1999/xlink">
    <!-- Generator: Sketch 61.1 (89650) - https://sketch.com -->
    <title>timing_btn_narrow</title>
    <desc>Created with Sketch.</desc>
    <defs>
        <filter x="-33.3%" y="-33.3%" width="166.7%" height="166.7%" filterUnits="objectBoundingBox" id="filter-1">
            <feOffset dx="0" dy="2" in="SourceAlpha" result="shadowOffsetOuter1"></feOffset>
            <feGaussianBlur stdDeviation="1" in="shadowOffsetOuter1" result="shadowBlurOuter1"></feGaussianBlur>
            <feColorMatrix values="0 0 0 0 0.747474747   0 0 0 0 0.78956229   0 0 0 0 1  0 0 0 1 0" type="matrix" in="shadowBlurOuter1" result="shadowMatrixOuter1"></feColorMatrix>
            <feMerge>
                <feMergeNode in="shadowMatrixOuter1"></feMergeNode>
                <feMergeNode in="SourceGraphic"></feMergeNode>
            </feMerge>
        </filter>
        <linearGradient x1="93.5714286%" y1="100%" x2="6.25%" y2="0%" id="linearGradient-2">
            <stop stop-color="#849DED" offset="0%"></stop>
            <stop stop-color="#4D64D7" offset="100%"></stop>
        </linearGradient>
    </defs>
    <g id="组件" stroke="none" stroke-width="1" fill="none" fill-rule="evenodd">
        <g id="计时器icon" transform="translate(-174.000000, 0.000000)" fill="url(#linearGradient-2)" fill-rule="nonzero">
            <g id="suoxiao" filter="url(#filter-1)" transform="translate(174.000000, 0.000000)">
                <path d="M17.4466667,0.0144444531 C18.6504548,0.0144444531 19.804939,0.492647445 20.6561458,1.34385423 C21.5073526,2.19506101 21.9855555,3.34954516 21.9855555,4.55333334 L21.9855555,15.4466667 C21.9855555,17.9534258 19.9534258,19.9855555 17.4466667,19.9855555 L6.55333334,19.9855555 C5.34954516,19.9855555 4.19506101,19.5073526 3.34385423,18.6561458 C2.49264744,17.804939 2.01444445,16.6504548 2.01444445,15.4466667 L2.01444445,4.55333334 C2.01444445,3.34954516 2.49264744,2.19506101 3.34385423,1.34385423 C4.19506101,0.492647445 5.34954516,0.0144444531 6.55333334,0.0144444531 L17.4466667,0.0144444531 Z M17.4466667,1.83 L6.55333334,1.83 C5.04927787,1.83 3.83,3.04927787 3.83,4.55333334 L3.83,15.4466667 C3.83,16.9507221 5.04927787,18.17 6.55333334,18.17 L17.4466667,18.17 C18.9507221,18.17 20.17,16.9507221 20.17,15.4466667 L20.17,4.55333334 C20.17,3.04927787 18.9507221,1.83 17.4466667,1.83 Z M8.44388889,10.8322222 C9.16635431,10.8320748 9.85927175,11.1190078 10.370132,11.629868 C10.8809922,12.1407282 11.1679252,12.8336457 11.1677778,13.5561111 L11.1677778,15.4466667 C11.1677778,15.9481719 10.7612275,16.3547222 10.2597222,16.3547222 C9.75821698,16.3547222 9.35166666,15.9481719 9.35166666,15.4466667 L9.35166666,13.5561111 C9.35166666,13.0544445 8.94555555,12.6483333 8.44388889,12.6483333 L6.55333334,12.6483333 C6.31247941,12.6483334 6.08149835,12.5526165 5.91124101,12.382255 C5.74098367,12.2118935 5.64540814,11.9808539 5.64555538,11.74 C5.64555538,11.2388889 6.05166666,10.8322222 6.55333334,10.8322222 L8.44388889,10.8322222 Z M13.74,3.64555555 C14.2416667,3.64555555 14.6483333,4.05166666 14.6483333,4.55333334 L14.6483333,6.44388889 C14.6483333,6.94555555 15.0544445,7.35166666 15.5561111,7.35166666 L17.4466667,7.35166666 C17.9481719,7.35166666 18.3547222,7.75821698 18.3547222,8.25972222 C18.3547222,8.76122745 17.9481719,9.16777783 17.4466667,9.16777783 L15.5561111,9.16777783 C14.8336457,9.16792517 14.1407282,8.88099217 13.629868,8.37013196 C13.1190078,7.85927175 12.8320748,7.16635431 12.8322222,6.44388889 L12.8322222,4.55333334 C12.8322222,4.05166668 13.2388889,3.64555555 13.74,3.64555555 Z" id="合并形状"></path>
            </g>
        </g>
    </g>
</svg>
