<?xml version="1.0" encoding="UTF-8"?>
<svg width="24Px" height="24Px" viewBox="0 0 24 24" version="1.1" xmlns="http://www.w3.org/2000/svg" xmlns:xlink="http://www.w3.org/1999/xlink">
    <!-- Generator: Sketch 61.1 (89650) - https://sketch.com -->
    <title>timing_btn_setup</title>
    <desc>Created with Sketch.</desc>
    <defs>
        <filter x="-33.3%" y="-33.3%" width="166.7%" height="166.7%" filterUnits="objectBoundingBox" id="filter-1">
            <feOffset dx="0" dy="2" in="SourceAlpha" result="shadowOffsetOuter1"></feOffset>
            <feGaussianBlur stdDeviation="1" in="shadowOffsetOuter1" result="shadowBlurOuter1"></feGaussianBlur>
            <feColorMatrix values="0 0 0 0 0.747474747   0 0 0 0 0.78956229   0 0 0 0 1  0 0 0 1 0" type="matrix" in="shadowBlurOuter1" result="shadowMatrixOuter1"></feColorMatrix>
            <feMerge>
                <feMergeNode in="shadowMatrixOuter1"></feMergeNode>
                <feMergeNode in="SourceGraphic"></feMergeNode>
            </feMerge>
        </filter>
        <linearGradient x1="93.5714286%" y1="92.3814837%" x2="6.25%" y2="7.61851633%" id="linearGradient-2">
            <stop stop-color="#849DED" offset="0%"></stop>
            <stop stop-color="#4D64D7" offset="100%"></stop>
        </linearGradient>
        <linearGradient x1="93.5714286%" y1="100%" x2="6.25%" y2="0%" id="linearGradient-3">
            <stop stop-color="#849DED" offset="0%"></stop>
            <stop stop-color="#4D64D7" offset="100%"></stop>
        </linearGradient>
    </defs>
    <g id="组件" stroke="none" stroke-width="1" fill="none" fill-rule="evenodd">
        <g id="计时器icon" transform="translate(1.000000, 0.000000)" fill-rule="nonzero">
            <g id="分组-6" transform="translate(-1.000000, 0.000000)">
                <g id="shezhi" filter="url(#filter-1)">
                    <path d="M22.0949925,7.70313069 L18.9231152,2.26562667 C18.1074896,0.860938139 16.6121759,0 15.0262373,0 L8.68248259,0 C7.09654393,0 5.55591779,0.860938139 4.78560471,2.26562667 L1.61372736,7.70313069 C0.798101768,9.10781922 0.798101768,10.875008 1.61372736,12.2796966 L4.78560471,17.7172006 C5.60123031,19.1218891 7.09654393,19.9828273 8.68248259,19.9828273 L15.0262373,19.9828273 C16.6121759,19.9828273 18.1528021,19.1218891 18.9231152,17.7172006 L22.0949925,12.2796966 C22.9106181,10.8296955 22.9106181,9.10781922 22.0949925,7.70313069 Z M20.5543664,11.3281334 L17.382489,16.7656374 C16.8840511,17.581263 15.9778005,18.1250134 15.0262373,18.1250134 L8.68248259,18.1250134 C7.73091939,18.1250134 6.82466872,17.6265755 6.32623086,16.7656374 L3.1543535,11.3281334 C2.65591564,10.4671952 2.65591564,9.42500695 3.1543535,8.60938135 L6.32623086,3.17187735 C6.82466872,2.35625176 7.73091939,1.81250135 8.68248259,1.81250135 L15.0262373,1.81250135 C15.9778005,1.81250135 16.8840511,2.31093921 17.382489,3.17187735 L20.5543664,8.60938135 C21.0528042,9.42500695 21.0528042,10.5125078 20.5543664,11.3281334 Z" id="形状" fill="url(#linearGradient-2)"></path>
                    <path d="M11.8543599,5.89062934 C9.58873326,5.89062934 7.77623193,7.70313069 7.77623193,9.96875736 C7.77623193,12.234384 9.58873328,14.0468854 11.8543599,14.0468854 C14.1199866,14.0468854 15.9324879,12.234384 15.9324879,9.96875736 C15.9324879,7.70313069 14.1199866,5.89062934 11.8543599,5.89062934 Z M11.8543599,12.234384 C10.585609,12.234384 9.58873326,11.2375083 9.58873326,9.96875736 C9.58873326,8.7000064 10.585609,7.70313069 11.8543599,7.70313069 C13.1231109,7.70313069 14.1199866,8.70000642 14.1199866,9.96875736 C14.1199866,11.2375083 13.1231109,12.234384 11.8543599,12.234384 Z" id="形状" fill="url(#linearGradient-3)"></path>
                </g>
            </g>
        </g>
    </g>
</svg>
