<?xml version="1.0" encoding="UTF-8"?>
<svg width="16Px" height="16Px" viewBox="0 0 16 16" version="1.1" xmlns="http://www.w3.org/2000/svg" xmlns:xlink="http://www.w3.org/1999/xlink">
    <!-- Generator: Sketch 61.1 (89650) - https://sketch.com -->
    <title>train_btn_large</title>
    <desc>Created with Sketch.</desc>
    <g id="1.20-UI" stroke="none" stroke-width="1" fill="none" fill-rule="evenodd">
        <g id="训练第一组提示弹窗" transform="translate(-303.000000, -280.000000)" fill="#FFFFFF" fill-rule="nonzero">
            <g id="train_btn_large" transform="translate(303.000000, 280.000000)">
                <path d="M0.721373447,15.9997754 C0.691102503,16 0.655526965,15.997324 0.620734309,15.9921601 C0.608330499,15.9903233 0.596553913,15.9883028 0.584823129,15.9859922 C0.563879435,15.9817071 0.542885183,15.9765008 0.522265208,15.9703999 C0.506260939,15.9661129 0.490814732,15.9610492 0.475518237,15.9554563 C0.459262403,15.9487814 0.442667329,15.9419073 0.426390005,15.9344489 C0.40828794,15.9272345 0.391242639,15.9187012 0.374483765,15.9094588 C0.364920325,15.9027724 0.354523467,15.8966371 0.344294527,15.8902551 C0.296788819,15.8624749 0.252727826,15.8279246 0.212218176,15.7876364 C0.171929923,15.7471267 0.137379695,15.7030657 0.108567489,15.656465 C0.103362896,15.6454765 0.097227606,15.6350797 0.0913475504,15.6245234 C0.081153311,15.6086119 0.0726200702,15.5915666 0.0647960593,15.5742788 C0.0580927232,15.5573327 0.0512186191,15.5407376 0.0449560207,15.523852 C0.038805388,15.5090398 0.0337416467,15.4935936 0.0292070488,15.478026 C0.0234991671,15.4571148 0.0182929108,15.4361206 0.0140268118,15.4147975 C0.0115517189,15.4033006 0.00953122514,15.3915241 0.00780089239,15.3797132 C0.00267603591,15.344473 0,15.3088975 0,15.2727273 L0,10.1818182 C0,9.78181818 0.327272728,9.45454545 0.727272716,9.45454545 C1.12727271,9.45454545 1.45454545,9.78181818 1.45454545,10.1818182 L1.454,13.517 L5.09076363,9.88072727 C5.37367274,9.59781819 5.8368,9.59781819 6.11985454,9.88072727 C6.40203636,10.1636364 6.40203636,10.6261818 6.11985454,10.9090909 L2.482,14.545 L5.81818182,14.5454546 C6.21818182,14.5454546 6.54545455,14.8727273 6.54545455,15.2727273 C6.54545455,15.6727273 6.21818182,16 5.81818182,16 L0.721373447,15.9997754 L0.721373447,15.9997754 Z M15.2727273,9.45454545 C15.6727273,9.45454545 16,9.78181818 16,10.1818182 L16,15.2727273 L16,15.2727273 C16,15.639394 15.725,15.9449495 15.3710648,15.9933291 L15.2727273,16 L15.2727273,16 L10.1818182,16 C9.78181818,16 9.45454545,15.6727273 9.45454545,15.2727273 C9.45454545,14.8727273 9.78181818,14.5454546 10.1818182,14.5454546 L14.545,14.545 L14.5454546,10.1818182 C14.5454546,9.78181818 14.8727273,9.45454545 15.2727273,9.45454545 Z M15.2796688,0.000206168686 C15.3085429,0 15.3437754,0.00262382197 15.3782422,0.00768873913 C15.3935156,0.00982215311 15.4086668,0.0124811592 15.4237357,0.0156183461 C15.4413631,0.0196368889 15.4586584,0.0240137397 15.4756997,0.029001232 C15.4944952,0.033813448 15.5129923,0.0399125227 15.5312634,0.046768277 C15.5438574,0.052568758 15.556786,0.0579527592 15.5695227,0.0636935519 C15.5910127,0.0719075165 15.6114125,0.0821190977 15.6313837,0.0933452364 C15.6364483,0.0980988741 15.6424807,0.101648153 15.6484573,0.105281059 C15.6989741,0.133613524 15.7456389,0.169784379 15.7882182,0.212363625 C15.8293937,0.253645257 15.8645609,0.298751737 15.8937199,0.346566834 C15.8970914,0.355357068 15.9018556,0.363420596 15.9064667,0.371580733 C15.9187126,0.390274212 15.9285769,0.410083835 15.9374866,0.430223354 C15.9420472,0.443213996 15.9474312,0.456142579 15.9524455,0.469250135 C15.9600848,0.487071192 15.9660579,0.505166693 15.9713071,0.523431445 C15.9764806,0.542926046 15.9814495,0.562908228 15.9855675,0.583189747 C15.9881949,0.595291999 15.990324,0.607665133 15.9921346,0.62007699 C15.997324,0.655526967 16,0.691102505 16,0.727272716 L16,5.81818182 C16,6.21818182 15.6727273,6.54545455 15.2727273,6.54545455 C14.8727273,6.54545455 14.5454546,6.21818182 14.5454546,5.81818182 L14.545,2.483 L10.9089455,6.11927273 C10.624516,6.40214768 10.1650113,6.40214768 9.88058183,6.11927273 C9.59770686,5.83484327 9.59770686,5.37533854 9.88058183,5.09090908 L13.517,1.454 L10.1818182,1.45454545 C9.78181818,1.45454545 9.45454545,1.12727272 9.45454545,0.727272716 C9.45454545,0.32727271 9.78181818,0 10.1818182,0 L15.2796688,0.000206168686 L15.2796688,0.000206168686 Z M5.81818182,0 C6.21818182,0 6.54545455,0.327272728 6.54545455,0.727272716 C6.54545455,1.12727271 6.21818182,1.45454545 5.81818182,1.45454545 L1.454,1.454 L1.45454545,5.81818182 C1.45454545,6.21818182 1.12727272,6.54545455 0.727272716,6.54545455 C0.32727271,6.54545455 0,6.21818182 0,5.81818182 L0,0.727272716 C0,0.32727271 0.327272728,0 0.727272716,0 L5.81818182,0 Z" id="合并形状"></path>
            </g>
        </g>
    </g>
</svg>
