<?xml version="1.0" encoding="UTF-8"?>
<svg width="14Px" height="14Px" viewBox="0 0 14 14" version="1.1" xmlns="http://www.w3.org/2000/svg" xmlns:xlink="http://www.w3.org/1999/xlink">
    <!-- Generator: Sketch 61.1 (89650) - https://sketch.com -->
    <title>train_icon_prompt</title>
    <desc>Created with Sketch.</desc>
    <g id="1.20-UI" stroke="none" stroke-width="1" fill="none" fill-rule="evenodd">
        <g id="训练测试" transform="translate(-76.000000, -510.000000)" fill-rule="nonzero">
            <g id="分组-6" transform="translate(76.000000, 510.000000)">
                <g id="jingshi">
                    <path d="M7,0 C3.10625,0 0,3.10625 0,7 C0,10.89375 3.10625,14 7,14 C10.89375,14 14,10.89375 14,7 C14,3.10625 10.89375,0 7,0 Z" id="形状" fill="#FA7272"></path>
                    <path d="M6.32625,2.73875 C6.51,2.555 6.6675,2.4325 6.965,2.4325 C7.2975,2.40625 7.60375,2.56375 7.72625,2.8 C7.86625,2.96625 7.945,3.33375 7.91,3.5525 C7.91,3.61375 7.86625,4.025 7.84875,4.13875 L7.60375,7.245 C7.60375,7.55125 7.5425,7.8575 7.42,8.09375 C7.35875,8.2775 7.175,8.4 6.93,8.4 C6.74625,8.4 6.5625,8.2775 6.50125,8.09375 C6.37875,7.7875 6.3175,7.5425 6.3175,7.245 L6.15125,4.2 C6.09,3.64875 6.09,3.8325 6.09,3.52625 C6.09,3.22875 6.15125,2.98375 6.32625,2.73875 Z" id="路径" fill="#FFFFFF"></path>
                    <path d="M7.67375,11.3225 C7.49,11.50625 7.245,11.5675 7.06125,11.5675 C6.81625,11.5675 6.57125,11.50625 6.3875,11.3225 C6.20375,11.13875 6.08125,10.89375 6.08125,10.59625 C6.08125,10.35125 6.1425,10.10625 6.32625,9.9225 C6.51,9.73875 6.755,9.61625 7,9.61625 C7.245,9.61625 7.49,9.73875 7.67375,9.9225 C7.8575,10.10625 7.91875,10.35125 7.91875,10.59625 C7.91,10.89375 7.84875,11.13875 7.67375,11.3225 Z" id="路径" fill="#FFFFFF"></path>
                </g>
            </g>
        </g>
    </g>
</svg>
