<?xml version="1.0" encoding="UTF-8"?>
<svg width="20px" height="20px" viewBox="0 0 20 20" version="1.1" xmlns="http://www.w3.org/2000/svg" xmlns:xlink="http://www.w3.org/1999/xlink">
    <!-- Generator: Sketch 61.1 (89650) - https://sketch.com -->
    <title>train_btn_unfinfished_perssed</title>
    <desc>Created with Sketch.</desc>
    <g id="1.20-UI" stroke="none" stroke-width="1" fill="none" fill-rule="evenodd">
        <g id="训练热身次数" transform="translate(-261.000000, -466.000000)" fill="#D2D2D2" fill-rule="nonzero">
            <g id="分组-14" transform="translate(53.000000, 466.000000)">
                <g id="分组-6" transform="translate(208.000000, 0.000000)">
                    <g id="dui-copy-2">
                        <path d="M13.0616,7.26666666 C13.312,7.26666666 13.5264,7.3556 13.7050667,7.53333334 C13.882,7.71106668 13.9714667,7.92506668 13.9714667,8.17506666 C13.9714667,8.42493332 13.8808,8.64173332 13.7008,8.82226666 L9.844,12.6777333 C9.67013334,12.8528 9.4568,12.9417333 9.2048,12.9417333 C8.94893334,12.9417333 8.73373334,12.8528 8.55893334,12.6777333 L6.62693334,10.7528 C6.45253334,10.5777333 6.36426666,10.3638667 6.36426666,10.1056 C6.36426666,9.8556 6.4536,9.6416 6.63053334,9.46386666 C6.80946668,9.28613332 7.02306668,9.1972 7.27386666,9.1972 C7.52506666,9.1972 7.74026666,9.28613334 7.92026666,9.46666666 L9.206,10.7528 L12.4157333,7.536 C12.5957333,7.35546666 12.8113333,7.26373334 13.0622667,7.26373334 L13.0616,7.26653334 L13.0616,7.26666666 Z M10.0001333,1.81946666 C8.89226668,1.81946666 7.832,2.03613332 6.82173334,2.46946666 C5.81186668,2.9 4.94186668,3.48333332 4.21266666,4.21106666 C3.48293332,4.94173332 2.90146666,5.81106666 2.46893334,6.82226666 C2.0356,7.83053332 1.8196,8.8916 1.81892725,10 C1.8176,11.1056 2.03506668,12.1666667 2.46893334,13.1777333 C2.902,14.1889333 3.4836,15.0584 4.21266666,15.7889333 C4.94066666,16.5166667 5.8108,17.0972 6.82173334,17.5305333 C7.83333334,17.9638667 8.89293334,18.1805333 10.0001333,18.1805333 C11.1070667,18.1805333 12.1666667,17.9638667 13.1782667,17.5305333 C14.1897333,17.0972 15.0592,16.5166667 15.7873333,15.7889333 C16.5168,15.0582667 17.098,14.1889333 17.5318667,13.1777333 C17.9649333,12.1666667 18.1825333,11.1056 18.181074,10 C18.1805333,8.8916 17.9644,7.83066666 17.5317333,6.82226666 C17.0984,5.81106666 16.5170667,4.9416 15.7873333,4.21106666 C15.0586667,3.48333332 14.1881333,2.9 13.1782667,2.46946666 C12.168,2.03613332 11.1076,1.81946666 10.0001333,1.81946666 Z M10.0001333,0 C11.3593333,0 12.6554667,0.264 13.8886667,0.79173334 C15.1214667,1.31946668 16.1846667,2.03053334 17.0770667,2.92226666 C17.9701333,3.81386666 18.6802667,4.87773332 19.208,6.11106666 C19.736,7.3444 20,8.64173334 20,10 C20,11.3584 19.736,12.6528 19.208,13.8889333 C18.6802667,15.1194667 17.9701333,16.1833333 17.0770667,17.0749333 C16.1845333,17.9694667 15.1214667,18.6805333 13.8886667,19.2056 C12.6554667,19.7333333 11.3593333,20 10,20 C8.64106666,20 7.3444,19.7333333 6.1112,19.2056 C4.8784,18.6805333 3.8152,17.9694667 2.9228,17.0749333 C2.02973334,16.1833333 1.3196,15.1194667 0.79186666,13.8889333 C0.264,12.6528 0,11.3582667 0,10 C0,8.6416 0.264,7.3444 0.792,6.11106666 C1.31973334,4.87773332 2.02986666,3.81386666 2.92293334,2.92226666 C3.81546668,2.03053332 4.87853334,1.31946666 6.11133334,0.7916 C7.34453334,0.264 8.64133334,0 10.0001333,0 Z" id="形状"></path>
                    </g>
                </g>
            </g>
        </g>
    </g>
</svg>
