<?xml version="1.0" encoding="UTF-8"?>
<svg width="20px" height="20px" viewBox="0 0 20 20" version="1.1" xmlns="http://www.w3.org/2000/svg" xmlns:xlink="http://www.w3.org/1999/xlink">
    <!-- Generator: Sketch 61.1 (89650) - https://sketch.com -->
    <title>train_btn_unfinfished_perssed</title>
    <desc>Created with Sketch.</desc>
    <g id="1.20-UI" stroke="none" stroke-width="1" fill="none" fill-rule="evenodd">
        <g id="训练热身次数" transform="translate(-303.000000, -422.000000)" fill="#D2D2D2" fill-rule="nonzero">
            <g id="分组-13" transform="translate(53.000000, 422.000000)">
                <g id="分组-9" transform="translate(208.000000, 0.000000)">
                    <g id="cuo" transform="translate(42.000000, 0.000000)">
                        <path d="M12.5718667,6.51106666 C12.8221333,6.51106666 13.038,6.6 13.2174667,6.77773334 C13.3974667,6.9584 13.488,7.17226668 13.488,7.42226666 C13.488,7.67226666 13.3973333,7.88893332 13.2173333,8.06946666 L11.2866667,10 L13.2173333,11.9250667 C13.3973333,12.1056 13.488,12.3194667 13.488,12.5638667 C13.488,12.8138667 13.3973333,13.0305333 13.2173333,13.2084 C13.038,13.3861333 12.8221333,13.4750667 12.5718667,13.4750667 C12.3201333,13.4750667 12.1070667,13.3861333 11.9318667,13.2110667 L10,11.2861333 L8.0752,13.2110667 C7.89986666,13.3861333 7.68453334,13.4750667 7.42813334,13.4750667 C7.17786668,13.4750667 6.96373334,13.3861333 6.78586666,13.2110667 C6.60786666,13.0361333 6.51893334,12.8222667 6.51893334,12.5722667 C6.51893334,12.3166667 6.6068,12.1 6.78093334,11.9249333 L8.7132,10 L6.78093334,8.06933334 C6.6068,7.8944 6.51893334,7.68053334 6.51893334,7.43066666 C6.51893334,7.17773332 6.60786668,6.96106666 6.78586666,6.78333334 C6.96373332,6.6028 7.17786666,6.514 7.42813334,6.514 C7.6804,6.51106666 7.8952,6.6028 8.0752,6.78333334 L10,8.714 L11.9317333,6.78333334 C12.1124,6.6028 12.3254667,6.514 12.5717333,6.514 L12.5717333,6.51106666 L12.5718667,6.51106666 Z M10,1.81946666 C8.892,1.81946666 7.832,2.03613332 6.822,2.46946666 C5.81173334,2.9 4.94133334,3.48333332 4.21213334,4.21106666 C3.4824,4.94173332 2.90093334,5.81106666 2.46813334,6.82226666 C2.03533334,7.83053332 1.81893334,8.8916 1.8183978,10 C1.8176,11.1056 2.03453334,12.1666667 2.46813334,13.1777333 C2.90186668,14.1889333 3.48293334,15.0584 4.21213334,15.7889333 C4.9408,16.5166667 5.81026668,17.0972 6.822,17.5305333 C7.8332,17.9638667 8.89293334,18.1805333 10,18.1805333 C11.1076,18.1805333 12.1666667,17.9638667 13.1785333,17.5305333 C14.1897333,17.0972 15.0592,16.5166667 15.7878667,15.7889333 C16.5170667,15.0582667 17.0981333,14.1889333 17.5318667,13.1777333 C17.9654667,12.1666667 18.1824,11.1056 18.1816022,10 C18.1810667,8.8916 17.9649333,7.83066666 17.5318667,6.82226666 C17.0993333,5.81106666 16.5178667,4.9416 15.7878667,4.21106666 C15.0585333,3.48333332 14.1885333,2.9 13.1785333,2.46946666 C12.1684,2.036 11.108,1.81946666 10,1.81946666 Z M10,0 C11.3592,0 12.6557333,0.264 13.8888,0.79173334 C15.1221333,1.31946668 16.1848,2.03053334 17.0778667,2.92226666 C17.9709333,3.81386666 18.6805333,4.87773332 19.2085333,6.11106666 C19.7364,7.3444 20,8.64173334 20,10 C20,11.3584 19.7364,12.6528 19.2085333,13.8889333 C18.6805333,15.1222667 17.9709333,16.1833333 17.0778667,17.0749333 C16.1848,17.9694667 15.1222667,18.6805333 13.8888,19.2056 C12.6557333,19.7333333 11.3592,20 10,20 C8.64106666,20 7.3448,19.7333333 6.1112,19.2056 C4.878,18.6805333 3.81546666,17.9694667 2.9224,17.0749333 C2.02933334,16.1833333 1.31946666,15.1222667 0.79173334,13.8889333 C0.26373334,12.6528 0,11.3582667 0,10 C0,8.6416 0.2636,7.3444 0.79173334,6.11106666 C1.31946668,4.87773332 2.02933334,3.81386666 2.9224,2.92226666 C3.81546666,2.03053332 4.878,1.31946666 6.1112,0.7916 C7.3448,0.264 8.64106666,0 10,0 Z" id="形状"></path>
                    </g>
                </g>
            </g>
        </g>
    </g>
</svg>
