<?xml version="1.0" encoding="UTF-8"?>
<svg width="16Px" height="16Px" viewBox="0 0 16 16" version="1.1" xmlns="http://www.w3.org/2000/svg" xmlns:xlink="http://www.w3.org/1999/xlink">
    <!-- Generator: Sketch 61.1 (89650) - https://sketch.com -->
    <title>weight_icon_edit</title>
    <desc>Created with Sketch.</desc>
    <defs>
        <linearGradient x1="93.5714286%" y1="100%" x2="6.25%" y2="0%" id="linearGradient-1">
            <stop stop-color="#849DED" offset="0%"></stop>
            <stop stop-color="#4D64D7" offset="100%"></stop>
        </linearGradient>
        <circle id="path-2" cx="8" cy="7" r="7"></circle>
        <filter x="-25.0%" y="-17.9%" width="150.0%" height="150.0%" filterUnits="objectBoundingBox" id="filter-3">
            <feOffset dx="0" dy="1" in="SourceAlpha" result="shadowOffsetOuter1"></feOffset>
            <feGaussianBlur stdDeviation="1" in="shadowOffsetOuter1" result="shadowBlurOuter1"></feGaussianBlur>
            <feColorMatrix values="0 0 0 0 0.747474747   0 0 0 0 0.78956229   0 0 0 0 1  0 0 0 1 0" type="matrix" in="shadowBlurOuter1"></feColorMatrix>
        </filter>
    </defs>
    <g id="数据页面" stroke="none" stroke-width="1" fill="none" fill-rule="evenodd">
        <g id="体重数据" transform="translate(-300.000000, -361.000000)">
            <g id="编组" transform="translate(0.000000, 247.000000)">
                <g id="分组-4" transform="translate(295.000000, 111.000000)">
                    <g id="分组-2" transform="translate(5.000000, 3.000000)">
                        <g id="weibiaoti13-copy">
                            <g id="椭圆形">
                                <use fill="black" fill-opacity="1" filter="url(#filter-3)" xlink:href="#path-2"></use>
                                <use fill="url(#linearGradient-1)" fill-rule="evenodd" xlink:href="#path-2"></use>
                            </g>
                            <path d="M11.625,6 L10.125,6 C9.91875,6 9.75,5.83125 9.75,5.625 C9.75,5.41875 9.91875,5.25 10.125,5.25 L10.7375,5.25 C10.1625,4.35 9.15,3.75 8,3.75 C6.20625,3.75 4.75,5.20625 4.75,7 C4.75,8.79375 6.20625,10.25 8,10.25 C9.75,10.25 11.18125,8.8625 11.24375,7.125 L11.25,7.125 C11.25,6.91875 11.41875,6.75 11.625,6.75 C11.83125,6.75 12,6.91875 12,7.125 C12,7.15 12,7.175 11.99375,7.19375 C11.89375,9.3125 10.14375,11 8,11 C5.79375,11 4,9.20625 4,7 C4,4.79375 5.79375,3 8,3 C9.3375,3 10.525,3.65625 11.25,4.66875 L11.25,4.125 C11.25,3.91875 11.41875,3.75 11.625,3.75 C11.83125,3.75 12,3.91875 12,4.125 L12,5.625 C12,5.83125 11.83125,6 11.625,6 Z" id="路径" fill="#FFFFFF"></path>
                        </g>
                    </g>
                </g>
            </g>
        </g>
    </g>
</svg>
